<svg xmlns="http://www.w3.org/2000/svg" width="80" height="80" fill="none"><circle cx="40" cy="40" r="38" fill="#E1E7C7" stroke="#262324" stroke-miterlimit="10" stroke-width="2.31"/><path fill="#FA8D81" d="M50.14 75.47c-7.1 2.36-15.06 1.3-18.16.46V64.49l-.42-2.96-2.54-2.95-6.33-6.34-3.38-5.48-1.68-3.38v-2.54l.84-1.26 1.69-.85 1.69.85 1.26 2.1 2.54 4.23 2.1.42.43-22.8v-4.22c0-.84.84-1.27 1.27-1.27h2.1c.35 0 1.28.29 1.7.43.42.28 1.35.76 1.69.42.33-.34.14-1.55 0-2.11l2.1-2.11 1.7-.43 1.26.43.85 3.37 2.1.43 2.12-.43 2.11.85.42 5.49 2.11.84 2.12-1.26 2.1.84.43 1.69v20.27l-.42 9.7-2.11 3.38-1.7 2.96v12.67Z"/><path fill="#262324" d="m51.23 75.6-2.49.4v-1.02c0-3.77.02-7.54 0-11.3A4.92 4.92 0 0 1 51 59.25c1.73-1.2 2.35-3.14 2.36-5.1.08-9.06.04-18.11.03-27.17 0-.93-.6-1.57-1.39-1.55-.77.03-1.32.67-1.32 1.63v10.96c0 1.39-.8 2.11-2.16 2.02-1.1-.07-1.71-.77-1.72-2.04-.02-3.1-.01-6.2-.02-9.3v-7.31c0-.33-.01-.67-.06-1a1.61 1.61 0 0 0-1.66-1.35c-.83.01-1.5.58-1.62 1.4-.04.32-.03.65-.03.99v16.03c0 .36 0 .72-.07 1.08a1.7 1.7 0 0 1-1.79 1.5 1.78 1.78 0 0 1-1.7-1.55c-.04-.27-.02-.55-.02-.83V17.72c0-.28.01-.56-.03-.83a1.68 1.68 0 0 0-1.67-1.45c-.84 0-1.55.6-1.67 1.45-.04.27-.02.55-.02.83v20.19c0 1.13-.33 1.7-1.14 2a1.7 1.7 0 0 1-2.34-1.3c-.07-.34-.06-.7-.06-1.07l-.02-16.2c0-.36 0-.72-.06-1.07a1.6 1.6 0 0 0-1.74-1.35c-.82.04-1.46.64-1.54 1.46-.04.3-.03.61-.03.92l.02 24.5c0 .31.02.62-.03.92-.14.84-.83 1.27-1.66 1.03-.77-.23-1.6-.38-2.28-.78a4.55 4.55 0 0 1-1.61-1.56c-.76-1.32-1.33-2.75-2-4.12-.52-1.1-1.43-1.49-2.35-1.05-.93.43-1.2 1.39-.7 2.48l2.9 6.16c.1.2.22.4.37.55 3.11 3.21 6.22 6.44 9.36 9.62.86.87 1.49 1.86 1.5 3.05.05 4.68.02 9.36.02 14.17-.75-.18-1.69-.12-2.34-.38-.2-.08-.1-.75-.1-1.05-.03-3.46-.11-6.93.01-10.39.07-1.93-.27-3.5-1.97-4.68-.86-.59-1.53-1.44-2.36-2.25l-.69.64-9.55 9.55c-.26.26-.57.46-.82.71-.51.51-1.03.48-1.55.04-.25-.2-.49-.44-.7-.64 3.18-4.33 7.34-7.68 10.98-11.52l.6-.65c-1.25-1.34-2.5-2.6-3.65-3.95-.64-.75-1.2-1.59-1.65-2.46-.92-1.8-1.75-3.65-2.6-5.48-1.09-2.33-.27-4.78 1.9-5.78 2.17-.98 4.54-.04 5.64 2.24.63 1.3 1.22 2.61 1.86 3.9.15.3.45.51.69.77l.23-.12c.02-.34.06-.69.06-1.03 0-7.62-.02-15.23-.01-22.85 0-2.26 1.18-3.88 3.15-4.33 1.3-.3 2.54-.04 3.72.83.1-1.53.58-2.75 1.76-3.62a4.23 4.23 0 0 1 2.92-.78c2.1.16 3.49 1.76 3.79 4.48l.71-.4a4.12 4.12 0 0 1 6.11 3.2c.11 1.2.02 2.4.02 3.7 3.16-1.5 4.46-1.28 6.25.98 3.58-3.55 7.5-7.38 11-10.86.06.02 1.18.97 1.4 1.42.37.73 0 .42-.97 1.55-.97 1.12-.58.73-.92 1.06a2324.3 2324.3 0 0 1-9.54 9.45c-.41.4-.58.81-.57 1.39.02 8.25 0 16.5.02 24.76 0 1.84-.4 3.6-1.37 5.14-.6.96-1.46 1.8-2.31 2.56-.57.5-.96 1-.96 1.75-.02 4.11-.01 8.23-.01 12.43Z"/><path fill="#262324" d="M40.1 63.05a2 2 0 0 1-2.03 1.92 2 2 0 0 1-1.92-2.02 2.01 2.01 0 0 1 1.98-1.88c1.06 0 1.98.94 1.96 1.98ZM43.69 48.37c0 1.09-.88 1.97-1.96 1.96a1.96 1.96 0 0 1 0-3.91 1.95 1.95 0 0 1 1.96 1.95ZM43.33 73.32c1.1 0 1.98.87 1.96 1.94a1.94 1.94 0 0 1-2.01 1.9 1.94 1.94 0 0 1-1.92-1.9 1.94 1.94 0 0 1 1.97-1.94ZM47.18 51.6c.8-.01 1.48.65 1.49 1.47.01.85-.6 1.47-1.46 1.48-.83 0-1.5-.63-1.51-1.44 0-.8.67-1.5 1.48-1.5ZM46.64 69.32a1.22 1.22 0 0 1-1.27 1.15 1.19 1.19 0 0 1-1.19-1.29c.05-.66.65-1.18 1.3-1.14.64.05 1.18.64 1.16 1.28ZM43.8 59.62a1.29 1.29 0 0 1-1.27-1.17c-.05-.64.49-1.22 1.15-1.26.74-.04 1.3.46 1.3 1.18.01.66-.52 1.23-1.17 1.25ZM49.03 48.33a1.22 1.22 0 0 1-1.17-1.25c0-.72.57-1.23 1.3-1.18.66.04 1.19.61 1.15 1.26-.04.64-.65 1.2-1.28 1.17ZM36.8 56.17a1.17 1.17 0 0 1-1.17-1.22c0-.66.55-1.2 1.2-1.21.68 0 1.29.63 1.25 1.29-.04.66-.6 1.16-1.28 1.14ZM38.5 73.77a1.2 1.2 0 0 1-1.25 1.17 1.18 1.18 0 0 1-1.16-1.25 1.2 1.2 0 0 1 1.24-1.18c.67.02 1.2.58 1.18 1.26ZM36.28 49.95c-.31-.5-.66-.82-.62-1.07.04-.27.47-.67.7-.65.26.02.66.43.67.7.02.26-.38.54-.75 1.02ZM40.08 66.96c.35.48.72.77.7 1.02-.03.28-.42.51-.65.77-.26-.24-.68-.46-.73-.73-.04-.24.33-.56.68-1.06ZM32.56 53.74c-.5.33-.82.7-1.08.66-.26-.05-.65-.48-.65-.73 0-.24.44-.63.71-.65.26-.02.54.36 1.02.72Z"/></svg>