<svg xmlns="http://www.w3.org/2000/svg" width="80" height="80" fill="none"><path fill="#E1E7C7" stroke="#262324" stroke-miterlimit="10" stroke-width="2.29" d="M40 77.91a38 38 0 1 0 0-76 38 38 0 0 0 0 76Z"/><path fill="#F8BB71" d="m50.96 43.65-3.65 3.66a66.8 66.8 0 0 1-1.47 3.65c-.29.59.37 2.2.74 2.92l2.55 3.66L53.52 59l5.11-1.83 2.2-3.65 1.1-4.39-.37-5.48-4.02-6.94-2.2 3.65-4.38 3.3Z"/><path fill="#FA8D81" d="m49.5 25.02-.37 2.56-2.55 4.02-4.02 1.46-5.48-1.46-6.22-2.2h-3.28l3.28-5.48 4.02-4.02 3.3-2.19 6.57.73c1.1.73 3.36 2.34 3.65 2.92.3.59.86 2.68 1.1 3.66Z"/><path fill="#F8BB71" d="m32.69 48.04.37 3.65v1.1l1.46 3.29L35.98 59l-2.2.37-4.38-.74-6.21-1.46-3.65-2.55-1.83-5.12.36-4.02L21 41.83l2.92-1.1 3.29.37 3.29 2.19 2.19 4.75Z"/><path fill="#262324" stroke="#262324" stroke-width=".39" d="M47.3 56.74a8.37 8.37 0 0 1-1.27-1.92 7.37 7.37 0 0 1-.7-3.4c.04-1.57.54-3 1.35-4.34a12.65 12.65 0 0 1 3.8-3.85c1.03-.7 2.02-1.48 2.94-2.33.84-.78 1.63-1.6 2.2-2.6.3-.53.53-1.08.46-1.7-.02-.2-.09-.38-.1-.56a.76.76 0 0 1 .51-.8.79.79 0 0 1 .91.27 27.94 27.94 0 0 1 3.3 5c.79 1.5 1.42 3.06 1.78 4.7.16.74.26 1.48.37 2.22.1.8.1 1.62.03 2.43-.22 2.4-1 4.6-2.56 6.46a9.02 9.02 0 0 1-5.2 3.2 7.72 7.72 0 0 1-6.5-1.53c-.1-.06-.16-.08-.25-.03a17 17 0 0 1-4.35 1.48c-.76.15-1.54.23-2.31.32-.19.03-.38.04-.57 0a.76.76 0 0 1-.62-.79c.01-.4.27-.7.67-.76.35-.05.72-.07 1.08-.1 1.05-.12 2.08-.33 3.08-.66.64-.22 1.27-.47 1.94-.71Zm1.43-.8.07-.03a16.18 16.18 0 0 0 6.91-8.06c.29-.72.5-1.48.74-2.22a.8.8 0 0 1 .98-.52c.41.1.65.54.55.97a18 18 0 0 1-7.14 10.42l-.79.54a6.14 6.14 0 0 0 4.85.9 7.56 7.56 0 0 0 4.25-2.71c1.36-1.66 2-3.6 2.14-5.7a14.9 14.9 0 0 0-.76-5.35 21.44 21.44 0 0 0-2.23-4.66c-.27-.44-.56-.86-.85-1.3l-.04.06a9.71 9.71 0 0 1-2.12 3.04 25.05 25.05 0 0 1-3.82 3.17 11.87 11.87 0 0 0-3.16 3.01 7.47 7.47 0 0 0-1.38 3.71c-.08 1.14.15 2.21.7 3.21.3.56.66 1.06 1.1 1.52ZM23.87 40.19c.21-.03.4-.07.6-.08.54-.02 1.1-.07 1.63-.03 1.44.1 2.74.6 3.9 1.46a9.72 9.72 0 0 1 3.4 5.1c.3.95.44 1.93.53 2.92.16 1.85.4 3.68 1 5.45.27.83.6 1.63 1.19 2.3.3.34.64.6 1.1.69a.8.8 0 0 1 .63.8.8.8 0 0 1-.66.77c-.95.12-1.9.26-2.85.33-1.2.1-2.41.1-3.62.02-1.52-.1-3.01-.34-4.48-.78a14.5 14.5 0 0 1-4.68-2.32 10.9 10.9 0 0 1-4.2-6.18 8.66 8.66 0 0 1 .78-6.48 7.7 7.7 0 0 1 3.89-3.41c.16-.07.2-.15.23-.33.1-.84.2-1.7.36-2.53a17 17 0 0 1 1.5-4.28c.12-.22.27-.4.51-.47.33-.11.63-.02.85.24.23.26.27.57.1.89a16.4 16.4 0 0 0-1.64 5.38l-.07.54ZM34.8 58.25a7.44 7.44 0 0 1-1.11-1.94c-.8-1.99-1.12-4.09-1.33-6.2-.07-.69-.13-1.38-.27-2.05a8.92 8.92 0 0 0-2.17-4.43 6.12 6.12 0 0 0-2.7-1.73 6.32 6.32 0 0 0-2.69-.2c-.25.04-.5.1-.79.16.08.83.14 1.64.25 2.45a16.47 16.47 0 0 0 4.84 9.34c.22.2.3.47.22.77-.17.64-.9.81-1.38.33a18.17 18.17 0 0 1-5-8.89c-.18-.8-.28-1.6-.4-2.4-.04-.34-.05-.68-.08-1.02l-.08.03a6.12 6.12 0 0 0-2.76 2.83 7.1 7.1 0 0 0-.58 4.31c.26 1.6.94 3 1.97 4.24a11.23 11.23 0 0 0 3.96 3c1.92.9 3.95 1.34 6.05 1.46 1.1.07 2.2.02 3.3 0 .25 0 .49-.03.75-.06ZM49.86 28.26c-.14.33-.26.64-.42.95A7.53 7.53 0 0 1 44 33.39a9.91 9.91 0 0 1-3.42.1c-1.44-.2-2.79-.68-4.1-1.3a22.86 22.86 0 0 0-4.66-1.7 7.79 7.79 0 0 0-2.54-.24c-.58.06-1.12.22-1.54.68a.79.79 0 0 1-1 .13.78.78 0 0 1-.32-.96c.3-.73.6-1.45.92-2.16a25.26 25.26 0 0 1 1.83-3.34c.93-1.44 2-2.77 3.27-3.93a14.54 14.54 0 0 1 4.08-2.7c1.05-.44 2.14-.76 3.28-.9.85-.1 1.7-.12 2.56-.02 1.6.19 3.1.7 4.44 1.63a7.97 7.97 0 0 1 3.49 7.69c-.03.16 0 .26.16.36 1.28.87 2.45 1.87 3.45 3.06.55.65 1.06 1.35 1.56 2.05.25.34.17.76-.14 1.04a.79.79 0 0 1-1.02.02c-.14-.12-.24-.3-.35-.45a16.82 16.82 0 0 0-3.28-3.57c-.26-.22-.54-.41-.8-.62Zm-21.14.4c.02 0 .04.02.05.03.24-.02.48-.06.71-.06.94-.03 1.85.1 2.76.31 1.81.43 3.53 1.13 5.2 1.92 1.25.59 2.55.99 3.93 1.1a7.71 7.71 0 0 0 3.33-.43 5.85 5.85 0 0 0 2.77-2.1c.45-.63.76-1.32.97-2.06l-.22-.14a16.5 16.5 0 0 0-12.49-1.4c-.43.12-.88-.12-1-.52-.13-.46.1-.88.55-1.01a17.89 17.89 0 0 1 8.13-.43c1.82.31 3.55.9 5.2 1.75l.2.08c-.06-.57-.06-1.1-.17-1.62a6.43 6.43 0 0 0-3.25-4.4 8.29 8.29 0 0 0-4.72-1.08 9.98 9.98 0 0 0-3.06.67 13.86 13.86 0 0 0-5.6 4.16c-.72.86-1.36 1.76-1.92 2.72-.47.83-.91 1.67-1.37 2.5Z"/></svg>