<svg xmlns="http://www.w3.org/2000/svg" width="80" height="80" fill="none"><path fill="#E1E7C7" stroke="#262324" stroke-miterlimit="10" stroke-width="2.29" d="M40 78a38 38 0 1 0 0-76 38 38 0 0 0 0 76Z"/><g clip-path="url(#a)"><path fill="#F8BB71" d="m34.15 21.73 6.21-6.94 2.56 1.46 3.29 4.02 2.92 4.02 5.85 9.13 3.28 8.04.37 6.58-3.29 7.67-5.84 4.39-6.95 2.19.37-1.1 2.2-4.02 1.09-3.65.36-4.39-1.46-3.65-2.56-3.29-1.82 1.83-2.2 2.2-2.19 4.38-1.1 2.92-4.01-1.46-4.75-.73-3.3-.37-.72-3.65.73-7.68 2.92-6.2 8.04-11.7Z"/><path fill="#121621" d="M60.29 42.13a24.08 24.08 0 0 0-2.07-6.18c-1-2.15-2.25-4.34-4.05-7.09-1.7-2.61-3.54-5.17-5.47-7.59-1.11-1.4-2.28-2.8-3.39-4.17L43.58 15a3.52 3.52 0 0 0-2.74-1.3c-1.05 0-2 .46-2.69 1.29-.37.46-.77.93-1.16 1.37-.58.67-1.17 1.37-1.73 2.08l-.18.24a248.07 248.07 0 0 0-5.65 7.43c-3.17 4.4-5.24 8.01-6.73 11.7-.83 2.07-1.74 4.84-1.37 7.95a25.17 25.17 0 0 0 .87 4.39h-.19l-.16.01c-1.05.1-1.62.76-1.58 1.8a14.16 14.16 0 0 0 4.65 10.02 13.42 13.42 0 0 0 9.21 3.57h.09l.43.01.48.02a13.95 13.95 0 0 0 5.58-1.59c.1-.06.27-.11.45-.13l1.27-.1h.2a19.52 19.52 0 0 0 13.07-6.8 19.64 19.64 0 0 0 4.66-11.24c.15-1.3.11-2.48-.07-3.6Zm-2.47 3.65a17 17 0 0 1-6.47 11.85A17.03 17.03 0 0 1 43.9 61a13.76 13.76 0 0 0 3.87-9.65 13.58 13.58 0 0 0-3.72-9.22c-.38-.4-.76-.78-1.18-1.15-.69-.61-1.27-.53-1.84.22-1.12 1.47-2.26 2.9-3.38 4.39a14.32 14.32 0 0 0-2.83 6.59c-.04.28-.08.36-.35.2a12.3 12.3 0 0 0-4.63-1.7 15.86 15.86 0 0 0-3.73-.13c-1.17.1-.98.2-1.35-.87a15.71 15.71 0 0 1-.9-6.3c.07-.93.32-1.88.57-2.8a27.57 27.57 0 0 1 2.69-6.04c1.02-1.76 2.07-3.5 3.18-5.19a101.2 101.2 0 0 1 6.05-8.16c1.18-1.46 2.4-2.9 3.6-4.36l.25-.27c.46-.45.92-.47 1.37.02.66.73 1.32 1.48 1.93 2.26 1.71 2.14 3.43 4.27 5.08 6.44 1.67 2.2 3.2 4.49 4.66 6.84a51.89 51.89 0 0 1 2.86 5.3c.7 1.5 1.27 3.03 1.6 4.66.26 1.23.25 2.47.13 3.7Z"/><path fill="#FA8D81" d="M45.7 51.27c-.07-.53-.12-1.34-.28-2.14a11.36 11.36 0 0 0-2.26-4.86c-.08-.1-.21-.15-.32-.22-.04.1-.1.22-.12.33l-.25 2.3-.4 3.87c-.19 1.64-.4 3.27-.57 4.9-.2 1.72-.37 3.44-.55 5.15l-.01.17c.07-.02.16-.02.2-.07.55-.5 1.13-1 1.63-1.54 1.95-2.14 2.82-4.73 2.93-7.89ZM34.2 63.06c.3-.03.64-.04.95-.09.58-.07 1.15-.16 1.73-.25.09-.02.17-.09.24-.14-.07-.07-.13-.15-.2-.2l-1.13-.7c-3.88-2.44-7.77-4.86-11.66-7.29l-.82-.51c-.05-.03-.11-.04-.17-.06-.01.06-.04.1-.04.17 0 .08.04.16.05.23a11.3 11.3 0 0 0 2.97 5.37 11.28 11.28 0 0 0 8.07 3.47ZM36.75 53.94c-.02 1.62.38 3.14 1.07 4.58.24.52.55 1 .84 1.48.04.06.11.11.16.17.04-.08.09-.16.1-.24.07-.54.16-1.09.22-1.63.17-1.64.32-3.26.5-4.9.22-2 .47-3.99.7-5.98.06-.52.1-1.05.14-1.58.01-.1-.05-.22-.07-.33-.09.08-.2.14-.27.22-.53.73-1.08 1.42-1.56 2.17a11.12 11.12 0 0 0-1.83 6.04ZM27.22 52.63h-1.14c-.23.01-.46.04-.68.06.2.15.38.3.59.43l6.15 3.85 3.45 2.14.2.1c0-.06 0-.14-.03-.21-.51-1.16-.86-2.36-1-3.62a.68.68 0 0 0-.26-.44c-.62-.42-1.22-.87-1.89-1.2a10.5 10.5 0 0 0-5.39-1.11Z"/></g><defs><clipPath id="a"><path fill="#fff" d="M20.27 13.7h40.19v51.87H20.27z"/></clipPath></defs></svg>