<svg xmlns="http://www.w3.org/2000/svg" width="80" height="80" fill="none"><path fill="#E1E7C7" stroke="#262324" stroke-miterlimit="10" stroke-width="2.29" d="M40 78a38 38 0 1 0 0-76 38 38 0 0 0 0 76Z"/><path fill="#262324" stroke="#262324" stroke-width=".44" d="M41.17 58.9v-.66l.38-5.2c.23-3.4-.39-6.65-1.49-9.85a38.78 38.78 0 0 1-1.41-4.75 9.35 9.35 0 0 1 1.86-7.98c1.87-2.36 4.46-3.13 7.37-2.9 2.66.21 4.78 1.52 6.5 3.52a13.62 13.62 0 0 1 3.45 7.89c.29 3.62-.6 6.95-2.63 9.96a23.2 23.2 0 0 1-6.31 6.15 30.19 30.19 0 0 1-7.17 3.65l-.55.17Zm6.8-13.35.11-.57c.58-2.7.66-5.4.04-8.12a15.93 15.93 0 0 0-3.36-6.77c-.25-.28-.47-.36-.78-.16-.45.29-.95.51-1.34.87-1.97 1.77-2.6 4.08-2.38 6.64.14 1.66.75 3.22 1.33 4.77 1.47 4.01 2.09 8.13 1.62 12.4-.06.52-.08 1.05-.11 1.63l.41-.15c2.9-1.37 5.6-3.07 7.89-5.35 2.22-2.21 3.87-4.77 4.48-7.9a12.08 12.08 0 0 0-2.48-10.18c-1.37-1.71-3.03-2.96-5.25-3.27-.54-.08-1.09-.07-1.74-.1 3.85 5.1 4.61 10.65 3.27 16.68l-1.7-.42ZM38.66 46.44c.13 1.33.3 2.56.37 3.8.13 2.54-.04 5.07-.77 7.52-.87 2.97-2.3 5.58-4.9 7.4a10.07 10.07 0 0 1-8.74 1.48c-2.36-.63-3.76-2.25-4.28-4.6-.73-3.28.16-6.01 2.85-8.06a7.78 7.78 0 0 1 2.72-1.23c1.16-.32 2.33-.6 3.5-.9a17.94 17.94 0 0 0 6.61-3.5c.73-.57 1.47-1.1 2.21-1.66.1-.07.21-.12.43-.25Zm-1.43 3.23c-.32.24-.56.4-.78.58a18.26 18.26 0 0 1-6.51 3.3c-1.32.36-2.67.64-3.97 1.05-2.35.76-3.8 2.34-4.08 4.9a6.12 6.12 0 0 0 .42 2.94c.24-.1.43-.22.62-.24a9.88 9.88 0 0 0 3.26-.85c2.47-1.1 4.4-2.9 6.05-5.01l.43-.54 1.4 1.06c-2.77 3.64-6.02 6.44-10.78 7.13.3.2.47.36.67.46a7.63 7.63 0 0 0 5.73.5c3.36-.97 5.4-3.35 6.54-6.58.9-2.53 1.14-5.16 1.06-7.82 0-.26-.03-.51-.06-.88ZM23.7 39.28v-2.2a3.92 3.92 0 0 1 3.86-3.97 3.9 3.9 0 0 1 3.95 3.87c.03 1.53.03 3.06 0 4.58a3.9 3.9 0 1 1-7.8-.2c.06-.69.01-1.39.01-2.08h-.03Zm6.06-.02c0-.71.02-1.43 0-2.14a2.15 2.15 0 1 0-4.31-.02c-.02 1.43 0 2.86 0 4.28 0 .56.14 1.1.51 1.5.63.68 1.44.91 2.32.63.92-.3 1.4-1 1.47-1.96.05-.76.01-1.52.01-2.29ZM53.28 18.22c-.1 2.48-.8 4.38-2.41 5.88a4.09 4.09 0 0 1-2.4 1.14c-1.57.16-2.85-.7-3.54-2.15-1.32-2.76-.14-6.57 1.87-8.27 1.16-.97 2.44-1.45 3.93-.89a3.65 3.65 0 0 1 2.2 2.5c.2.68.27 1.4.35 1.8Zm-1.75.04c-.08-.34-.15-.9-.33-1.4-.5-1.39-1.68-1.76-2.9-.95a4.84 4.84 0 0 0-1.7 2.23 4.94 4.94 0 0 0 .01 4.41 1.63 1.63 0 0 0 2.13.8c.3-.1.58-.27.82-.48 1.34-1.15 1.86-2.68 1.97-4.6ZM20.54 41.37h1.67c.12.7-.14 1.3-.44 1.85a3.89 3.89 0 0 1-6.67.3 3.82 3.82 0 0 1-.67-2.14c0-1.5-.02-2.99 0-4.48a3.93 3.93 0 0 1 3.7-3.9 3.94 3.94 0 0 1 4.07 3.26c.04.2.03.4.04.64h-1.7l-.13-.55a2.14 2.14 0 0 0-2.22-1.56c-1 .05-1.85.81-1.95 1.83-.08.67-.04 1.35-.05 2.03-.02.83-.08 1.66-.04 2.48.04.87.32 1.63 1.16 2.1 1.17.64 2.73.06 3.11-1.34.05-.17.08-.34.12-.52ZM53.02 24.82c.15-1.96.91-3.56 2.72-4.46 1.66-.82 3.33.04 3.75 1.87a5.14 5.14 0 0 1-2.46 5.33c-1.9.97-3.8-.11-3.99-2.26l-.02-.48Zm1.75-.02.03.4c.15.92.76 1.23 1.52.7.4-.28.74-.67 1.01-1.08.42-.66.6-1.4.43-2.2-.12-.62-.53-.9-1.07-.73-.22.08-.45.2-.63.34a3.52 3.52 0 0 0-1.29 2.57Z"/><path fill="#262324" d="M34.63 43.6H37v1.76h-4.15c-.02-.92-.12-1.83.08-2.72.14-.61.58-1 1.17-1.19.38-.13.78-.2 1.15-.35.4-.17.47-.75.13-1-.22-.16-.5-.1-.71.15-.08.1-.17.24-.27.24-.5.03-1.01.02-1.51.02-.1-1.14.83-2.17 1.98-2.27 1.12-.1 2.14.6 2.42 1.67.3 1.15-.2 2.3-1.23 2.77-.36.17-.76.26-1.14.39-.3.1-.3.1-.3.53Z"/><path fill="#262324" stroke="#262324" stroke-width=".44" d="M57.38 30.32c0-1.86 1.87-3.75 3.7-3.76 1.36 0 2.3.97 2.28 2.34-.05 1.85-1.88 3.68-3.7 3.71-1.34.02-2.28-.93-2.28-2.29Zm4.21-1.47c0-.37-.17-.5-.55-.5-.83.04-1.87 1.09-1.9 1.93-.02.36.15.54.5.54.85 0 1.96-1.12 1.95-1.97ZM61.67 38.29c-.9.03-1.63-.28-2.09-1.07-.46-.8-.35-1.64.13-2.4a3.75 3.75 0 0 1 3.4-1.86c1.8.03 2.78 1.76 1.87 3.34a3.77 3.77 0 0 1-3.31 1.99Zm.04-1.76c.7-.07 1.34-.4 1.72-1.08.26-.45.1-.73-.42-.72-.77.01-1.39.36-1.8 1.03-.3.47-.11.77.5.77ZM62.36 44.07c-.99.03-1.96-.59-2.24-1.43a1.7 1.7 0 0 1 .05-1.23c.5-1.22 1.45-1.76 2.68-1.9.34-.04.7-.07 1.04 0 1.63.32 2.21 2.04 1.15 3.33a3.52 3.52 0 0 1-2.68 1.23Zm1.46-2.67c-.5-.41-1.78-.08-1.98.51-.09.26.11.3.28.35.62.16 1.42-.25 1.7-.86Z"/><path fill="#F8BB71" d="m47.98 45.55 1.7.42c1.34-6.03.58-11.58-3.27-16.68.65.03 1.2.02 1.74.1 2.22.31 3.88 1.56 5.24 3.27a12.54 12.54 0 0 1 2.63 5.88 12.1 12.1 0 0 1-.14 4.3c-.61 3.13-2.26 5.69-4.48 7.9a27.84 27.84 0 0 1-7.89 5.35c-.11.06-.24.09-.42.15.04-.58.06-1.11.12-1.64.46-4.26-.15-8.38-1.63-12.39-.57-1.55-1.18-3.11-1.32-4.77-.23-2.56.41-4.87 2.38-6.65.4-.35.9-.57 1.34-.86.31-.2.53-.13.77.16a15.93 15.93 0 0 1 3.36 6.77c.63 2.71.54 5.42-.03 8.12l-.1.57Z"/><path fill="#FA8D81" d="M37.23 49.67c.03.37.06.62.06.88a21.3 21.3 0 0 1-1.06 7.82c-1.15 3.23-3.18 5.61-6.54 6.58a7.64 7.64 0 0 1-5.73-.5c-.2-.1-.38-.26-.67-.46 4.77-.7 8-3.49 10.78-7.13l-1.4-1.06c-.15.2-.3.36-.43.54a16.17 16.17 0 0 1-6.05 5.01 9.9 9.9 0 0 1-3.26.85c-.2.02-.38.14-.62.24a6.1 6.1 0 0 1-.42-2.95c.27-2.55 1.73-4.13 4.08-4.89 1.3-.41 2.65-.7 3.97-1.05 2.4-.63 4.54-1.78 6.5-3.3.23-.18.47-.34.8-.58Z"/><path fill="#E1E7C7" d="M29.76 39.26c0 .76.04 1.53 0 2.29-.07.95-.56 1.66-1.48 1.96-.88.29-1.7.05-2.32-.64-.37-.4-.5-.93-.5-1.49-.01-1.42-.03-2.85 0-4.28.01-1.28.95-2.21 2.16-2.2 1.2 0 2.12.95 2.15 2.22v2.14ZM51.52 18.26c-.1 1.93-.62 3.46-1.96 4.61-.24.2-.53.37-.83.49-.85.33-1.7 0-2.12-.81a4.94 4.94 0 0 1-.02-4.4c.38-.9.9-1.7 1.72-2.25 1.2-.8 2.4-.43 2.89.96.18.5.25 1.06.32 1.4ZM54.77 24.8a3.53 3.53 0 0 1 1.3-2.57c.18-.15.4-.27.63-.34.53-.17.94.11 1.07.74.16.78-.01 1.53-.44 2.19-.26.4-.61.8-1 1.08-.77.53-1.37.22-1.52-.71l-.04-.39ZM61.6 28.85c0 .85-1.1 1.98-1.95 1.97-.36 0-.53-.18-.51-.54.04-.84 1.07-1.89 1.9-1.92.38-.02.55.12.55.49ZM61.71 36.53c-.61 0-.8-.3-.5-.77a2.07 2.07 0 0 1 1.8-1.03c.52 0 .68.27.42.72-.39.69-1.01 1-1.72 1.08ZM63.82 41.4c-.28.61-1.08 1.02-1.7.86-.17-.05-.37-.09-.28-.35.2-.6 1.48-.92 1.98-.51Z"/></svg>