<svg xmlns="http://www.w3.org/2000/svg" width="80" height="80" fill="none"><path fill="#E1E7C7" stroke="#262324" stroke-miterlimit="10" stroke-width="2.29" d="M40 78a38 38 0 1 0 0-76 38 38 0 0 0 0 76Z"/><path fill="#FA8D81" d="M21.42 47.18 7.07 56.47c4.64 8.86 8.44 10.97 12.24 14.35l2.11-1.26 4.22-.85 10.14-.84 8.44-.43 3.38-1.68L63.64 55.2l3.8-2.53c.29-.57.85-1.78.85-2.11 0-.43 0-1.7-.42-2.54-.43-.84-.43-.42-1.27-.84-.84-.42-.84-.42-1.69-.42-.84 0-.84.42-1.69.42a4.9 4.9 0 0 0-2.1.84l-2.12.85V45.9a5.66 5.66 0 0 0-1.69-1.69c-.84-.42-.84-.42-1.27-.42-.42 0-2.1.42-2.53.42-.42 0-.84.85-1.27 1.27l-1.26 1.27h-.85l-.84-.85a4.3 4.3 0 0 0-1.69-.42 1.9 1.9 0 0 0-1.27.42l-2.53 2.11-1.27 2.11h-.84l-5.07-1.69-7.6-1.26-4.64-.42-2.96.42Z"/><path fill="#262324" fill-rule="evenodd" d="m57.6 48.77-.45.75-8.55 5.55-3.08 1.3 7.82-10.64a2.8 2.8 0 0 1 3.94-.48 2.43 2.43 0 0 1 .41 3.42c-.03.05-.07.07-.08.1Zm-13.67 2.12.45-2.17a2.8 2.8 0 0 1 3.4-2.06c.65.16 1.21.58 1.53 1.18l-4.96 6.74.1-.39a4.63 4.63 0 0 0-.52-3.3Zm24.55-3.22a4.6 4.6 0 0 0-6.37-1.36l-1.94 1.25a4.43 4.43 0 0 0-1.65-3.85 4.79 4.79 0 0 0-6.73.8l-.01.03-1.2 1.61c-.59-.7-1.39-1.19-2.29-1.4a4.8 4.8 0 0 0-5.8 3.51v.03l-.18.92c-.42-.25-.9-.44-1.38-.54l-13.4-2.84a10.97 10.97 0 0 0-8.3 1.53L5.42 56.13c-.45.32-.55.93-.24 1.4a1 1 0 0 0 1.3.28l13.82-8.77c2-1.3 4.46-1.77 6.8-1.26l13.34 2.84c.51.1.99.36 1.34.75a2.67 2.67 0 0 1-2.46 4.49l-14.2-3.03a.98.98 0 0 0-1.15 1.2c.09.38.4.67.77.76l5.15 1.2 10.38 2.69 1.1.29.1.01a9.95 9.95 0 0 0 7.14-1.51L63.19 48a2.63 2.63 0 0 1 3.62.76c.78 1.2.44 2.84-.77 3.62L46.42 65.12a10.22 10.22 0 0 1-4.94 1.61l-16.44.97c-1.9.12-3.77.65-5.45 1.58-.29.16.15-.12-.12.07l-1.33.85a.99.99 0 0 0-.3 1.38c.29.46.9.6 1.38.3l.01-.01 1.33-.85c1.6-1.04 2.72-1.21 4.6-1.31l16.44-.97c2.1-.12 4.14-.8 5.91-1.94l19.61-12.74a4.65 4.65 0 0 0 1.36-6.4Z" clip-rule="evenodd"/><path fill="#F8BB71" d="m50.13 21.84-1.26-2.95-2.11-1.27-2.96-.42-3.38.84-3.8 1.7-2.53 2.95 2.95 2.53-6.33.85-3.8 4.22 1.27 2.11H24.8l-.84.42-4.65 3.38c-1.12.84-3.3 2.53-2.95 2.53.33 0 2.1.85 2.95 1.27l3.8.42h3.8L30.3 40l4.22-1.27 2.53-1.26v2.1l1.7-.41 1.68-.85 2.96-2.11 1.26-2.96 1.7-3.37 1.26 3.37 1.27-2.1 1.26-2.12.43-3.8-.43-3.38Z"/><path fill="#262324" d="m12.55 38.08-.01.02c-.02.03-.04.07-.04.1l-.01.05-.02.09v.13c0 .05.02.1.03.14a.7.7 0 0 0 .12.25c.04.05.09.09.14.12l.03.03c.05.04.1.06.17.09 14.24 4.18 20.82 1.3 23.37-.61h.03v.02l-.08 1.85.02.01h.7c3.65-.01 6.38-3.22 6.5-3.36a.7.7 0 0 0-.08-1c-.07-.05-.14-.1-.23-.14a.7.7 0 0 0-.78.22c-.01.02-2.04 2.38-4.64 2.8l-.01-.01.06-1.56a.9.9 0 0 0-1.56-.63c-1.19 1.25-5.5 4.57-16.7 2.55-.02 0-.02-.02-.02-.02s0-.02.02-.02c11.98-.92 20.27-7.51 25.35-13.36a53.45 53.45 0 0 0 4.05-5.32l.01-.01.02.01a11.06 11.06 0 0 1-1.34 11.27c0 .02-.02.02-.04 0l-1.2-3.36c0-.02-.02-.02-.02-.02l-1.33.37-.01.02c-.02 1.28.15 3.37-2.65 7.36a.69.69 0 0 0 .3.95c.04.02.07.04.1.04.34.11.68-.07.89-.36A16 16 0 0 0 46.17 32l.02-.01.01.01.92 2.54h.03l.77-.87a12.64 12.64 0 0 0 1.97-14.62v-.01c2.89-4.68 4.2-8.33 4.28-8.55a.7.7 0 1 0-1.32-.46c-.04.07-2.76 7.7-9 14.89C36.83 32.98 28.42 37.3 18.8 37.8c1.03-.44 3.6-2.7 3.65-2.72.3-.26.34-.7.1-1a.62.62 0 0 0-.32-.22.7.7 0 0 0-.68.11c-.02.02-3.9 3.28-8.43 3.74h-.02l-.1.02h-.03a.13.13 0 0 0-.07.03.52.52 0 0 0-.22.16l-.02.01-.01.02s0 .02-.02.02c-.05.03-.09.07-.09.1Z"/><path fill="#262324" d="M22.43 35.07c.88-.53 2.17-1.72 2.7-2.22h.02s4.9.39 6.05.5c0 0 .35-.27.18-.44-.9-.9-1.9-1.92-3.14-2.36l-.29-.1c-.03-.02-.07-.04-.07-.07l.04-.07c1.12-1.14 2.2-2.3 3.34-3.43h.02l6.63-.75a.82.82 0 0 0 .73-.92.89.89 0 0 0-.4-.62l-3.3-1.9c-.02 0-.02-.02 0-.04a12.7 12.7 0 0 1 11.11-4.5c.4.05.75-.2.82-.6a.72.72 0 0 0-.48-.78l-.12-.04a14.2 14.2 0 0 0-13 5.7l-.48.63v.03l3.11 1.8c.02 0 .02.02.02.04l-.02.01-5.3.61h-.02l-4.86 4.98v.04l1.36 1.05c.02 0 .02.02 0 .04l-.01.01-2.48-.24-.24.24c-.48.46-1.89 1.79-2.7 2.26a.72.72 0 0 0-.06 1.2c.28.1.6.11.84-.06Z"/><path stroke="#262324" stroke-miterlimit="10" stroke-width="1.43" d="M44.9 17.35a4.71 4.71 0 0 1 4.02 1.63"/></svg>