<svg xmlns="http://www.w3.org/2000/svg" width="80" height="80" fill="none"><path fill="#E1E7C7" stroke="#262324" stroke-miterlimit="10" stroke-width="2.29" d="M40 78a38 38 0 1 0 0-76 38 38 0 0 0 0 76Z"/><path fill="#262324" d="M51.9 39.24c.33 1.07.21 1.4-.81 1.87-1.56.73-3.2 1-4.9.67-.54-.1-.77 0-.95.54-2.15 6.21-4.34 12.41-6.5 18.63-.14.37-.25.76-.63.96-.72.4-1.4.06-1.74-.89l-3.7-10.76-9.6-27.96c-.2-.6-.38-1.2.27-1.65.68-.48 1.44-.2 1.74.65l2.53 7.34 9.68 28.17c.06.18.15.36.22.54.26-.06.23-.28.27-.42l5.46-15.55c.1-.31.26-.55-.14-.8-3.2-2.04-4.73-5.95-3.67-10.23 1.12-4.57 3.96-7.75 8-9.97a27.92 27.92 0 0 1 4.54-1.98c.67-.22 1.16-.03 1.5.57 2.33 4.15 3.77 8.5 3.39 13.34-.06.76-.22 1.52-.43 2.24-.26.88-.52 1.06-1.45.98-.72-.3-.92-.81-.7-1.54.21-.69.35-1.38.4-2.11.27-3.85-.88-7.36-2.54-10.75-.17-.36-.35-.3-.63-.2-1.3.5-2.55 1.09-3.72 1.82-3.68 2.24-6.02 5.38-6.4 9.77a6.58 6.58 0 0 0 2.84 6.15l1.97-5.56c.53-1.53 1.07-3.08 1.62-4.6.18-.51.53-.77 1.08-.72.5.04.9.28 1.03.82.09.32-.03.62-.13.93-1.1 3.13-2.18 6.25-3.3 9.36-.18.55-.08.74.5.77a6.08 6.08 0 0 0 3.24-.6c.58-.37 1.13-.35 1.67.17Z"/><path fill="#F8BB71" d="M51.9 39.24c-.53-.52-1.08-.54-1.73-.18-1 .55-2.1.65-3.24.6-.58-.04-.69-.23-.5-.78 1.12-3.1 2.2-6.23 3.3-9.35.1-.31.22-.61.13-.94-.14-.52-.52-.76-1.03-.82-.54-.04-.9.21-1.09.72-.55 1.53-1.08 3.06-1.62 4.6l-1.96 5.57a6.57 6.57 0 0 1-2.84-6.16c.37-4.37 2.72-7.52 6.4-9.77 1.17-.71 2.43-1.3 3.71-1.81.29-.1.46-.17.64.2 1.65 3.38 2.83 6.9 2.53 10.74-.06.72-.18 1.43-.39 2.11-.22.75-.01 1.25.7 1.55a11.14 11.14 0 0 1-2.38 3.26c-.16.19-.32.43-.62.46Z"/></svg>