<svg width="77" height="50" viewBox="0 0 77 50" fill="none" xmlns="http://www.w3.org/2000/svg">
<path d="M5.67648 7.08034H8.13832V9.92876C8.13832 10.4577 8.05694 10.9664 7.89418 11.4547C7.74497 11.9294 7.50082 12.3567 7.16173 12.7365C6.83619 13.1027 6.41571 13.3943 5.90029 13.6113C5.39842 13.8284 4.79483 13.9369 4.08951 13.9369C3.35706 13.9369 2.73312 13.8284 2.21769 13.6113C1.70227 13.3943 1.275 13.1027 0.935907 12.7365C0.610374 12.3703 0.373007 11.943 0.223804 11.4547C0.0746013 10.9664 0 10.451 0 9.90841V0.956254H2.60426V3.66225H8.13832V5.53406H2.60426V9.64392C2.60426 10.295 2.71956 10.7901 2.95014 11.1292C3.19429 11.4683 3.58764 11.6378 4.1302 11.6378C4.65919 11.6378 5.04576 11.4683 5.28991 11.1292C5.54762 10.7901 5.67648 10.3085 5.67648 9.68461V7.08034Z" fill="#205048"/>
<path d="M15.9158 13.6724V7.46691C15.9158 6.70734 15.7802 6.19191 15.5089 5.92063C15.2512 5.63579 14.8172 5.49337 14.2068 5.49337C13.8812 5.49337 13.5896 5.56119 13.3319 5.69683C13.0742 5.8189 12.8572 5.99523 12.6808 6.22582C12.5045 6.44284 12.3689 6.70055 12.2739 6.99896C12.1925 7.2838 12.1519 7.59577 12.1519 7.93487V13.6724H9.5069V0H12.1519V4.96438C12.2468 4.74736 12.3892 4.5439 12.5791 4.354C12.7826 4.15055 13.0132 3.981 13.2709 3.84536C13.5286 3.70972 13.8134 3.60121 14.1254 3.51983C14.4374 3.43844 14.7629 3.39775 15.102 3.39775C16.1329 3.39775 16.967 3.67581 17.6045 4.23193C18.2556 4.78805 18.5811 5.57475 18.5811 6.59204V13.6724H15.9158Z" fill="#205048"/>
<path d="M26.639 7.69072C26.6119 6.9447 26.3949 6.39537 25.988 6.04271C25.581 5.67648 25.1131 5.49337 24.5841 5.49337C24.0551 5.49337 23.5939 5.69005 23.2006 6.0834C22.8208 6.46319 22.6038 6.99896 22.5495 7.69072H26.639ZM22.4681 9.35907C22.5088 10.1322 22.7258 10.7426 23.1192 11.1902C23.5261 11.6242 24.0551 11.8413 24.7062 11.8413C25.1402 11.8413 25.52 11.7463 25.8455 11.5564C26.1846 11.353 26.4017 11.0749 26.4966 10.7222H29.2229C28.911 11.7531 28.3684 12.5466 27.5953 13.1027C26.8221 13.6588 25.8998 13.9369 24.8282 13.9369C21.4915 13.9369 19.8232 12.1193 19.8232 8.4842C19.8232 7.71106 19.9317 7.01252 20.1487 6.38859C20.3657 5.76465 20.6777 5.22887 21.0846 4.78127C21.5051 4.33366 22.0137 3.99456 22.6106 3.76398C23.2074 3.51983 23.8923 3.39775 24.6655 3.39775C26.2253 3.39775 27.3986 3.89283 28.1853 4.883C28.972 5.85959 29.3654 7.35162 29.3654 9.35907H22.4681Z" fill="#205048"/>
<path d="M17.4503 45.3779V32.0474H20.0291V45.3779H17.4503Z" fill="#205048"/>
<path d="M27.1638 40.5972C27.0316 40.7294 26.8398 40.8352 26.5885 40.9146C26.3373 40.9939 25.9736 41.0799 25.4975 41.1725C24.7569 41.3179 24.2477 41.5031 23.97 41.7279C23.6923 41.9527 23.5534 42.2767 23.5534 42.6999C23.5534 43.4273 23.97 43.791 24.8032 43.791C25.1338 43.791 25.438 43.7381 25.7157 43.6323C26.0066 43.5132 26.2513 43.3612 26.4497 43.176C26.6613 42.9776 26.8266 42.7528 26.9456 42.5016C27.0778 42.2371 27.144 41.9593 27.144 41.6684L27.1638 40.5972ZM27.3423 45.3779C27.3027 45.2457 27.2696 45.1134 27.2432 44.9812C27.2167 44.8357 27.1969 44.677 27.1836 44.5051C26.8795 44.8489 26.4761 45.1267 25.9736 45.3383C25.4843 45.5366 24.9024 45.6358 24.2279 45.6358C23.1038 45.6358 22.2773 45.3912 21.7483 44.9018C21.2325 44.3993 20.9746 43.7513 20.9746 42.9578C20.9746 42.2569 21.087 41.7015 21.3118 41.2915C21.5367 40.8683 21.8475 40.5377 22.2442 40.2996C22.6409 40.0616 23.1104 39.8897 23.6526 39.7839C24.2081 39.6648 24.8098 39.559 25.4578 39.4665C26.1058 39.3739 26.5422 39.2549 26.7671 39.1094C26.9919 38.9507 27.1043 38.6994 27.1043 38.3556C27.1043 38.0382 26.9522 37.7935 26.648 37.6216C26.3571 37.4365 25.9604 37.3439 25.4578 37.3439C24.8627 37.3439 24.4329 37.4761 24.1684 37.7406C23.9171 38.0051 23.7584 38.3556 23.6923 38.792H21.292C21.3052 38.2895 21.3846 37.8266 21.5301 37.4034C21.6888 36.9802 21.9334 36.6165 22.264 36.3124C22.6079 36.0082 23.0509 35.7768 23.5931 35.6181C24.1353 35.4461 24.7966 35.3602 25.5768 35.3602C26.3439 35.3602 26.9919 35.4461 27.5209 35.6181C28.0631 35.79 28.4929 36.0412 28.8103 36.3719C29.1409 36.6893 29.379 37.0926 29.5244 37.5819C29.6699 38.058 29.7426 38.6002 29.7426 39.2086V45.3779H27.3423Z" fill="#205048"/>
<path d="M37.3293 45.3779V44.0092C36.6813 45.0936 35.6696 45.6358 34.2942 45.6358C33.8049 45.6358 33.3552 45.5499 32.9453 45.3779C32.5485 45.206 32.2047 44.9614 31.9137 44.644C31.6228 44.3266 31.3913 43.9497 31.2194 43.5132C31.0607 43.0768 30.9814 42.5875 30.9814 42.0453V35.6181H33.5602V41.6486C33.5602 42.8652 34.109 43.4736 35.2067 43.4736C35.8812 43.4736 36.3837 43.2686 36.7143 42.8586C37.0449 42.4354 37.2102 41.8998 37.2102 41.2518V35.6181H39.7692V45.3779H37.3293Z" fill="#205048"/>
<path d="M47.2502 45.3779V39.4665C47.2502 38.7127 47.1245 38.2035 46.8733 37.939C46.622 37.6745 46.1922 37.5423 45.5839 37.5423C44.2482 37.5423 43.5803 38.2895 43.5803 39.7839V45.3779H41.0015V35.6181H43.4613V37.0463C43.7655 36.4909 44.1688 36.0743 44.6713 35.7966C45.1739 35.5056 45.8219 35.3602 46.6154 35.3602C47.0783 35.3602 47.5081 35.4329 47.9048 35.5784C48.3016 35.7106 48.6388 35.9156 48.9165 36.1933C49.2074 36.4711 49.4323 36.8149 49.591 37.2249C49.7629 37.6216 49.8488 38.0845 49.8488 38.6135V45.3779H47.2502Z" fill="#205048"/>
<path d="M55.7017 43.5331C56.0191 43.5331 56.3101 43.467 56.5746 43.3347C56.8391 43.2025 57.0639 43.0107 57.249 42.7594C57.4474 42.5082 57.5995 42.2172 57.7053 41.8866C57.8243 41.5428 57.8838 41.1592 57.8838 40.736C57.8838 38.6201 57.1631 37.5621 55.7216 37.5621C54.2404 37.5621 53.4998 38.5672 53.4998 40.5773C53.4998 41.4502 53.7048 42.1643 54.1148 42.7198C54.5247 43.262 55.0537 43.5331 55.7017 43.5331ZM57.8442 45.3779L57.8243 44.1877C57.2292 45.1531 56.3233 45.6358 55.1066 45.6358C54.4851 45.6358 53.9164 45.5168 53.4006 45.2788C52.8849 45.0407 52.4418 44.6969 52.0715 44.2472C51.7012 43.7976 51.4103 43.2488 51.1987 42.6007C50.9871 41.9527 50.8813 41.2187 50.8813 40.3988C50.8813 39.6582 50.9673 38.9838 51.1392 38.3754C51.3243 37.7539 51.5888 37.2183 51.9327 36.7686C52.2765 36.319 52.6931 35.9751 53.1824 35.7371C53.685 35.4858 54.2536 35.3602 54.8884 35.3602C56.0786 35.3602 57.0441 35.8693 57.7846 36.8876V32.0474H60.3238V45.3779H57.8442Z" fill="#205048"/>
<path d="M61.5453 45.3779V35.6181H63.9655V36.7884C64.1771 36.4578 64.3953 36.1999 64.6201 36.0148C64.8581 35.8297 65.0962 35.6908 65.3342 35.5982C65.5855 35.4924 65.8368 35.4263 66.088 35.3998C66.3393 35.3734 66.5972 35.3602 66.8617 35.3602H67.1989V37.9985C66.9609 37.9588 66.7228 37.939 66.4848 37.939C64.911 37.939 64.1242 38.7259 64.1242 40.2996V45.3779H61.5453Z" fill="#205048"/>
<path d="M74.21 44.0885C74.0248 44.5249 73.6876 44.8688 73.1983 45.1201C72.7222 45.3581 72.18 45.4771 71.5716 45.4771C71.0559 45.4771 70.5798 45.3978 70.1434 45.2391C69.7069 45.0672 69.33 44.8291 69.0126 44.5249C68.6952 44.2075 68.444 43.8373 68.2588 43.4141C68.0869 42.9776 68.0009 42.4883 68.0009 41.9461V35.6181H70.5798V41.5692C70.5798 42.7859 71.1286 43.3942 72.2263 43.3942C72.8214 43.3942 73.2975 43.2223 73.6545 42.8785C74.0248 42.5346 74.21 42.0982 74.21 41.5692V35.6181H76.7888V45.6358C76.7888 46.3235 76.6698 46.9385 76.4317 47.4807C76.2069 48.0229 75.8895 48.4792 75.4795 48.8494C75.0828 49.2197 74.6067 49.5041 74.0513 49.7024C73.5091 49.9008 72.9272 50 72.3056 50C70.8641 50 69.7863 49.6363 69.0721 48.909C68.358 48.1948 68.0009 47.1963 68.0009 45.9135H70.4012C70.4012 46.5087 70.5665 46.9649 70.8972 47.2823C71.241 47.6129 71.7502 47.7782 72.4246 47.7782C72.6627 47.7782 72.8875 47.7253 73.0991 47.6195C73.3107 47.527 73.4958 47.3881 73.6545 47.203C73.8265 47.031 73.9587 46.8128 74.0513 46.5483C74.1571 46.2838 74.21 45.9929 74.21 45.6755V44.0885Z" fill="#205048"/>
<path d="M7.78566 28.3112C8.70801 28.3112 9.46702 27.9653 10.0627 27.2736C10.6776 26.5626 10.985 25.6018 10.985 24.3912C10.985 21.3552 9.91858 19.8372 7.78566 19.8372C5.65275 19.8372 4.58629 21.2783 4.58629 24.1607C4.58629 25.4289 4.88413 26.4377 5.47981 27.1871C6.0947 27.9365 6.86332 28.3112 7.78566 28.3112ZM10.8697 29.2335C10.6007 29.8677 10.1107 30.3673 9.39976 30.7323C8.70801 31.0782 7.90096 31.2512 6.97861 31.2512C5.80647 31.2512 4.81687 31.0494 4.00982 30.6459C3.22199 30.2231 2.57827 29.6755 2.07866 29.003C1.59828 28.3304 1.24279 27.5522 1.0122 26.6683C0.800834 25.7844 0.695149 24.8812 0.695149 23.9589C0.695149 22.8636 0.85848 21.8644 1.18514 20.9613C1.51181 20.0389 1.95376 19.2607 2.51101 18.6266C3.06826 17.9733 3.72159 17.4737 4.47099 17.1278C5.2204 16.7627 6.02745 16.5801 6.89214 16.5801C8.64075 16.5801 9.96662 17.2911 10.8697 18.7131V16.9548H14.6168V31.28C14.6168 32.3561 14.4342 33.2976 14.0691 34.1047C13.704 34.9309 13.2044 35.6131 12.5703 36.1511C11.9362 36.7084 11.1868 37.1311 10.3221 37.4193C9.45741 37.7076 8.53507 37.8517 7.55508 37.8517C6.57509 37.8517 5.66235 37.7076 4.81687 37.4193C3.97139 37.1503 3.2412 36.7564 2.62631 36.2376C2.03062 35.738 1.55985 35.1231 1.21397 34.3929C0.868088 33.6627 0.695149 32.8364 0.695149 31.9141H4.18276C4.18276 32.7788 4.46138 33.4417 5.01863 33.9029C5.5951 34.3833 6.35411 34.6235 7.29567 34.6235C8.29487 34.6235 9.14036 34.3449 9.83211 33.7876C10.5239 33.2496 10.8697 32.5098 10.8697 31.5682V29.2335Z" fill="#205048"/>
<path d="M23.1021 28.3688C25.3887 28.3688 26.532 26.9277 26.532 24.0454C26.532 21.1823 25.3887 19.7507 23.1021 19.7507C20.8154 19.7507 19.6721 21.1823 19.6721 24.0454C19.6721 26.9277 20.8154 28.3688 23.1021 28.3688ZM23.1021 31.5106C21.9491 31.5106 20.9211 31.328 20.018 30.9629C19.1148 30.5978 18.3462 30.0886 17.7121 29.4353C17.0972 28.782 16.6264 27.9941 16.2998 27.0718C15.9731 26.1495 15.8098 25.1406 15.8098 24.0454C15.8098 22.9309 15.9731 21.9124 16.2998 20.9901C16.6457 20.0678 17.1356 19.2799 17.7698 18.6266C18.4039 17.9733 19.1629 17.4737 20.0468 17.1278C20.9499 16.7627 21.9683 16.5801 23.1021 16.5801C24.2166 16.5801 25.2158 16.7627 26.0997 17.1278C26.9836 17.4737 27.733 17.9733 28.3479 18.6266C28.982 19.2607 29.4624 20.0389 29.789 20.9613C30.1349 21.8836 30.3079 22.9116 30.3079 24.0454C30.3079 25.1791 30.1349 26.2071 29.789 27.1294C29.4624 28.0326 28.982 28.8108 28.3479 29.4641C27.733 30.1175 26.974 30.6267 26.0709 30.9918C25.1869 31.3376 24.1973 31.5106 23.1021 31.5106Z" fill="#205048"/>
<path d="M38.4988 28.3688C40.7855 28.3688 41.9288 26.9277 41.9288 24.0454C41.9288 21.1823 40.7855 19.7507 38.4988 19.7507C36.2122 19.7507 35.0689 21.1823 35.0689 24.0454C35.0689 26.9277 36.2122 28.3688 38.4988 28.3688ZM38.4988 31.5106C37.3459 31.5106 36.3179 31.328 35.4148 30.9629C34.5116 30.5978 33.743 30.0886 33.1089 29.4353C32.494 28.782 32.0232 27.9941 31.6966 27.0718C31.3699 26.1495 31.2066 25.1406 31.2066 24.0454C31.2066 22.9309 31.3699 21.9124 31.6966 20.9901C32.0424 20.0678 32.5324 19.2799 33.1665 18.6266C33.8007 17.9733 34.5597 17.4737 35.4436 17.1278C36.3467 16.7627 37.3651 16.5801 38.4988 16.5801C39.6133 16.5801 40.6125 16.7627 41.4965 17.1278C42.3804 17.4737 43.1298 17.9733 43.7447 18.6266C44.3788 19.2607 44.8592 20.0389 45.1858 20.9613C45.5317 21.8836 45.7047 22.9116 45.7047 24.0454C45.7047 25.1791 45.5317 26.2071 45.1858 27.1294C44.8592 28.0326 44.3788 28.8108 43.7447 29.4641C43.1298 30.1175 42.3708 30.6267 41.4676 30.9918C40.5837 31.3376 39.5941 31.5106 38.4988 31.5106Z" fill="#205048"/>
<path d="M53.6362 28.4553C54.0974 28.4553 54.5201 28.3592 54.9044 28.1671C55.2888 27.9749 55.6154 27.6963 55.8844 27.3312C56.1727 26.9661 56.3936 26.5434 56.5474 26.063C56.7203 25.5634 56.8068 25.0061 56.8068 24.3912C56.8068 21.3168 55.7595 19.7795 53.665 19.7795C51.5129 19.7795 50.4368 21.2399 50.4368 24.1607C50.4368 25.4289 50.7347 26.4665 51.3304 27.2736C51.926 28.0614 52.6947 28.4553 53.6362 28.4553ZM56.7491 31.1359L56.7203 29.4065C55.8556 30.8092 54.5393 31.5106 52.7715 31.5106C51.8684 31.5106 51.0421 31.3376 50.2927 30.9918C49.5433 30.6459 48.8996 30.1463 48.3616 29.493C47.8235 28.8396 47.4008 28.0422 47.0933 27.1006C46.7859 26.1591 46.6322 25.0926 46.6322 23.9012C46.6322 22.8252 46.7571 21.8452 47.0069 20.9613C47.2759 20.0581 47.6602 19.2799 48.1598 18.6266C48.6594 17.9733 49.2647 17.4737 49.9757 17.1278C50.7059 16.7627 51.5321 16.5801 52.4545 16.5801C54.1839 16.5801 55.5866 17.3199 56.6627 18.7995V11.7667H60.352V31.1359H56.7491Z" fill="#205048"/>
<g clip-path="url(#clip0_1031_81)">
<path d="M63.9004 27.8262C64.0245 27.7219 64.1412 27.7183 64.258 27.7075C65.4476 27.5672 66.2759 26.9341 66.8014 25.891C67.0459 25.4018 67.17 24.8766 67.2685 24.3443C67.3232 24.0565 67.3232 23.7652 67.4144 23.5062C67.4363 23.5925 67.4728 23.7004 67.4801 23.8191C67.5203 24.499 67.6772 25.1608 67.8596 25.8155C68.0384 26.4449 68.4581 26.8658 69.0967 27.0708C69.4178 27.1751 69.7426 27.2686 70.0783 27.3118C70.3191 27.3442 70.5563 27.4089 70.8519 27.4701C70.5527 27.5348 70.3045 27.5888 70.0564 27.6391C69.7936 27.6895 69.5382 27.7722 69.2864 27.8657C68.7062 28.0851 68.2756 28.4664 67.9983 29.0204C67.7538 29.506 67.5823 30.0203 67.4874 30.5527C67.4655 30.675 67.44 30.7937 67.4035 30.9699C67.2794 30.5599 67.17 30.2038 67.0568 29.8477C67.0058 29.6822 66.951 29.5167 66.8853 29.3585C66.7211 28.9592 66.4474 28.6571 66.0643 28.452C65.6629 28.2362 65.2323 28.0923 64.7871 27.9952C64.5061 27.9341 64.2215 27.8873 63.9004 27.8262ZM64.9258 27.7866C65.2688 27.8909 65.5972 28.006 65.922 28.1319C66.5898 28.3945 67.0459 28.8585 67.2721 29.5347C67.3013 29.6247 67.3378 29.711 67.3853 29.8405C67.4327 29.7182 67.4619 29.6462 67.4874 29.5707C67.5896 29.2865 67.71 29.0168 67.8596 28.7542C68.1041 28.319 68.4508 27.988 68.9033 27.765C69.0602 27.6895 69.2244 27.6283 69.3849 27.5636C69.4579 27.5348 69.5455 27.5312 69.5929 27.4521C69.4214 27.4197 69.2499 27.3945 69.0857 27.3478C68.4033 27.1571 67.918 26.7435 67.6589 26.0852C67.5787 25.8802 67.5239 25.668 67.4874 25.4522C67.4655 25.3407 67.4546 25.2256 67.3816 25.0925C67.2466 25.5097 67.1079 25.8982 66.8926 26.2507C66.6664 26.6212 66.3708 26.9269 66.0314 27.1931C65.6994 27.4521 65.3162 27.6103 64.9258 27.7866Z" fill="#262324"/>
<path d="M64.9258 27.7866C65.3162 27.6103 65.6994 27.4521 66.0315 27.1931C66.3708 26.9233 66.6664 26.6176 66.8926 26.2507C67.1079 25.8982 67.2466 25.5097 67.378 25.0961C67.4509 25.2291 67.4655 25.3442 67.4838 25.4558C67.5239 25.6716 67.575 25.8838 67.6553 26.0888C67.9144 26.7471 68.3997 27.1607 69.0821 27.3514C69.2463 27.3981 69.4178 27.4197 69.5893 27.4557C69.5419 27.5348 69.4543 27.5384 69.3813 27.5672C69.2207 27.6319 69.0565 27.6931 68.8996 27.7686C68.4471 27.988 68.1005 28.3225 67.856 28.7578C67.71 29.0204 67.586 29.2937 67.4838 29.5743C67.4582 29.6498 67.4254 29.7218 67.3816 29.8441C67.3342 29.7146 67.2977 29.6246 67.2685 29.5383C67.0422 28.8621 66.5861 28.3981 65.9183 28.1355C65.5972 28.006 65.2688 27.8909 64.9258 27.7866Z" fill="#F8BB71"/>
</g>
<g clip-path="url(#clip1_1031_81)">
<path d="M71.6992 22.3825C71.7839 22.3114 71.8637 22.3089 71.9434 22.3015C72.7558 22.2059 73.3215 21.7743 73.6804 21.063C73.8474 20.7295 73.9321 20.3714 73.9994 20.0085C74.0368 19.8123 74.0368 19.6136 74.0991 19.437C74.114 19.4959 74.1389 19.5695 74.1439 19.6504C74.1713 20.1139 74.2785 20.5652 74.4031 21.0115C74.5252 21.4407 74.8118 21.7277 75.2479 21.8675C75.4672 21.9386 75.689 22.0023 75.9183 22.0318C76.0827 22.0538 76.2447 22.098 76.4466 22.1397C76.2422 22.1838 76.0728 22.2206 75.9033 22.2549C75.7239 22.2893 75.5494 22.3457 75.3775 22.4095C74.9812 22.5591 74.6872 22.819 74.4978 23.1967C74.3308 23.5278 74.2137 23.8785 74.1489 24.2415C74.134 24.3248 74.1165 24.4058 74.0916 24.5259C74.0069 24.2464 73.9321 24.0036 73.8548 23.7608C73.82 23.648 73.7826 23.5351 73.7377 23.4272C73.6256 23.155 73.4387 22.949 73.177 22.8092C72.9029 22.6621 72.6088 22.564 72.3048 22.4977C72.1129 22.4561 71.9185 22.4242 71.6992 22.3825ZM72.3995 22.3555C72.6337 22.4266 72.858 22.5051 73.0798 22.5909C73.5359 22.77 73.8474 23.0863 74.0019 23.5474C74.0218 23.6087 74.0467 23.6676 74.0791 23.7559C74.1115 23.6725 74.1315 23.6234 74.1489 23.5719C74.2187 23.3782 74.3009 23.1942 74.4031 23.0152C74.5701 22.7185 74.8068 22.4928 75.1158 22.3408C75.223 22.2893 75.3351 22.2476 75.4448 22.2034C75.4946 22.1838 75.5544 22.1814 75.5868 22.1274C75.4697 22.1053 75.3526 22.0882 75.2404 22.0563C74.7744 21.9263 74.443 21.6443 74.266 21.1955C74.2112 21.0557 74.1738 20.911 74.1489 20.7638C74.134 20.6878 74.1265 20.6093 74.0766 20.5186C73.9844 20.8031 73.8897 21.0679 73.7427 21.3083C73.5882 21.5609 73.3863 21.7694 73.1546 21.9508C72.9278 22.1274 72.6661 22.2353 72.3995 22.3555Z" fill="#262324"/>
<path d="M72.4004 22.3555C72.667 22.2353 72.9287 22.1274 73.1555 21.9508C73.3872 21.7669 73.5891 21.5584 73.7436 21.3083C73.8906 21.0679 73.9853 20.8031 74.075 20.521C74.1249 20.6118 74.1349 20.6903 74.1473 20.7663C74.1747 20.9134 74.2096 21.0581 74.2644 21.1979C74.4414 21.6467 74.7728 21.9288 75.2388 22.0588C75.351 22.0906 75.4681 22.1053 75.5852 22.1299C75.5528 22.1838 75.493 22.1863 75.4432 22.2059C75.3335 22.25 75.2214 22.2917 75.1142 22.3432C74.8052 22.4928 74.5685 22.7209 74.4015 23.0177C74.3018 23.1967 74.2171 23.3831 74.1473 23.5744C74.1299 23.6259 74.1074 23.6749 74.0775 23.7583C74.0451 23.67 74.0202 23.6087 74.0003 23.5499C73.8458 23.0888 73.5343 22.7724 73.0782 22.5934C72.8589 22.5051 72.6346 22.4266 72.4004 22.3555Z" fill="#F8BB71"/>
</g>
<g clip-path="url(#clip2_1031_81)">
<path d="M68.9863 14.6455C69.0468 14.5934 69.1038 14.5916 69.1608 14.5862C69.7411 14.516 70.1451 14.1995 70.4015 13.6779C70.5207 13.4334 70.5812 13.1708 70.6293 12.9046C70.656 12.7607 70.656 12.615 70.7005 12.4855C70.7112 12.5287 70.729 12.5827 70.7325 12.642C70.7521 12.9819 70.8287 13.3129 70.9177 13.6402C71.0049 13.9549 71.2096 14.1653 71.5211 14.2679C71.6777 14.32 71.8362 14.3668 71.9999 14.3884C72.1174 14.4045 72.2331 14.4369 72.3773 14.4675C72.2313 14.4999 72.1103 14.5268 71.9892 14.552C71.8611 14.5772 71.7365 14.6186 71.6137 14.6653C71.3306 14.775 71.1206 14.9657 70.9853 15.2426C70.866 15.4854 70.7824 15.7426 70.7361 16.0088C70.7254 16.0699 70.713 16.1293 70.6952 16.2174C70.6346 16.0124 70.5812 15.8343 70.5261 15.6563C70.5011 15.5736 70.4744 15.4908 70.4424 15.4117C70.3623 15.2121 70.2288 15.061 70.0419 14.9585C69.8461 14.8506 69.636 14.7786 69.4189 14.7301C69.2818 14.6995 69.143 14.6761 68.9863 14.6455ZM69.4865 14.6258C69.6538 14.6779 69.814 14.7355 69.9725 14.7984C70.2982 14.9297 70.5207 15.1617 70.6311 15.4998C70.6453 15.5448 70.6631 15.5879 70.6863 15.6527C70.7094 15.5915 70.7236 15.5556 70.7361 15.5178C70.7859 15.3757 70.8447 15.2408 70.9177 15.1095C71.0369 14.8919 71.206 14.7265 71.4268 14.615C71.5033 14.5772 71.5834 14.5466 71.6617 14.5142C71.6973 14.4999 71.74 14.4981 71.7632 14.4585C71.6795 14.4423 71.5959 14.4297 71.5158 14.4063C71.1829 14.311 70.9461 14.1042 70.8198 13.7751C70.7806 13.6726 70.7539 13.5664 70.7361 13.4585C70.7254 13.4028 70.7201 13.3452 70.6845 13.2787C70.6186 13.4873 70.551 13.6815 70.446 13.8578C70.3356 14.043 70.1914 14.1959 70.0259 14.329C69.8639 14.4585 69.677 14.5376 69.4865 14.6258Z" fill="#262324"/>
<path d="M69.4863 14.6258C69.6768 14.5376 69.8637 14.4585 70.0257 14.329C70.1912 14.1941 70.3354 14.0412 70.4458 13.8578C70.5508 13.6816 70.6184 13.4873 70.6825 13.2805C70.7181 13.347 70.7252 13.4046 70.7341 13.4603C70.7537 13.5682 70.7786 13.6744 70.8178 13.7769C70.9442 14.106 71.1809 14.3128 71.5138 14.4081C71.5939 14.4315 71.6776 14.4423 71.7612 14.4603C71.7381 14.4999 71.6954 14.5017 71.6598 14.516C71.5814 14.5484 71.5013 14.579 71.4248 14.6168C71.2041 14.7265 71.035 14.8937 70.9157 15.1113C70.8445 15.2426 70.784 15.3793 70.7341 15.5196C70.7217 15.5574 70.7057 15.5933 70.6843 15.6545C70.6612 15.5897 70.6434 15.5448 70.6291 15.5016C70.5187 15.1635 70.2962 14.9315 69.9705 14.8002C69.8139 14.7355 69.6537 14.6779 69.4863 14.6258Z" fill="#F8BB71"/>
</g>
<defs>
<clipPath id="clip0_1031_81">
<rect width="6.95149" height="7.46013" fill="white" transform="translate(63.9004 23.5062)"/>
</clipPath>
<clipPath id="clip1_1031_81">
<rect width="4.74736" height="5.08645" fill="white" transform="translate(71.6992 19.437)"/>
</clipPath>
<clipPath id="clip2_1031_81">
<rect width="3.39097" height="3.73007" fill="white" transform="translate(68.9863 12.4855)"/>
</clipPath>
</defs>
</svg>
