<svg xmlns="http://www.w3.org/2000/svg" width="80" height="80" fill="none"><path fill="#E1E7C7" stroke="#262324" stroke-miterlimit="10" stroke-width="2.29" d="M40 78a38 38 0 1 0 0-76 38 38 0 0 0 0 76Z"/><path fill="#F8BB71" d="M20.58 56.04v-30.4l5.06 2.96 5.07-2.96 5.49 2.96 5.49-2.96 5.49 2.54 5.06-2.54v36.74H20.58v-6.34Z"/><path fill="#FA8D81" d="M52.67 61.96V25.64l3.38 1.27 3.37-1.27V62.8l-3.37-1.69-3.38.85Z"/><path fill="#262324" stroke="#262324" stroke-miterlimit="10" stroke-width=".19" d="M59.65 44.88c-.5 0-.89.39-.89.88v15.5l-1.78-.88v-16.4a.9.9 0 1 0-1.78-.08V60.37l-1.8.88v-6.58a.9.9 0 0 0-1.78 0v7.14H21.31V36.55c0-.5-.41-.88-.89-.88a.9.9 0 0 0-.88.88v26.17c0 .5.4.89.88.89h32.1c.1 0 .23-.02.33-.07l.05-.02c.02 0 .02-.02.03-.02l3.16-1.58 3.18 1.58a.9.9 0 0 0 1.2-.4c.08-.12.11-.26.1-.4V45.76a.92.92 0 0 0-.92-.88Z"/><path fill="#262324" stroke="#262324" stroke-miterlimit="10" stroke-width=".19" d="M31.28 51.06a.9.9 0 0 0 .24 1.24 8.85 8.85 0 0 0 11.15-1.07l.07.94c.03.47.42.83.88.83h.07a.9.9 0 0 0 .83-.95l-.2-3.21a.9.9 0 0 0-.94-.84h-.01l-3.22.2a.9.9 0 1 0 .12 1.8l1.2-.1a7.08 7.08 0 0 1-8.95.93.9.9 0 0 0-1.24.23Z"/><path fill="#E1E7C7" d="M34.09 12.98c-4.73 2.02-5.63 9.85-5.49 13.5l2.53-.84 5.07 2.96 5.49-2.96 6.33 2.54 4.65-2.96c0-2.67-.93-8.7-4.65-11.4-3.71-2.7-6.9-1.69-8.02-.84 0-.85-1.18-2.03-5.91 0Z"/><path fill="#262324" stroke="#262324" stroke-miterlimit="10" stroke-width=".19" d="M39.88 34.58a.9.9 0 0 0-1.24-.26l-2.67 1.79a.9.9 0 0 0-.25 1.24l1.78 2.67c.29.39.85.49 1.24.2a.9.9 0 0 0 .24-1.19L38.3 38a7.15 7.15 0 0 1 5.3 6.89l-.01.32v.12a.9.9 0 0 0 .83.95h.05c.47 0 .87-.37.88-.83v-.1c.02-.16.02-.3.02-.45 0-3.99-2.67-7.49-6.5-8.56l.76-.51a.9.9 0 0 0 .25-1.24ZM25.83 47.07a.89.89 0 0 0 .4 1.19l2.9 1.43c.43.22.96.03 1.18-.41l1.43-2.89a.9.9 0 0 0-.44-1.19.87.87 0 0 0-1.16.4l-.54 1.11a7.06 7.06 0 0 1 3.7-8.22.9.9 0 0 0 .36-1.2.9.9 0 0 0-1.16-.4 8.89 8.89 0 0 0-4.96 7.99c0 .75.1 1.48.3 2.19l-.8-.4a.91.91 0 0 0-1.21.4Z"/><path fill="#262324" stroke="#262324" stroke-miterlimit="10" stroke-width=".19" d="M59.64 24.37a.9.9 0 0 0-.4.1l-3.17 1.58-.18-.1-1.6-.8-1.38-.7a.94.94 0 0 0-.9.05l-.71.48-4.05 2.84-1.4-.96-3.56-2.36c-.3-.2-.7-.2-.98 0l-2.11 1.41v-.02l-1.56 1.06v.02l-1.2.8-.76-.52-3.35-2.22-.74-.5c-.31-.2-.7-.2-1 0l-4.85 3.25-4.86-3.25a.9.9 0 0 0-1.4.75v11.6c-.01.49.36.9.85.93.5.01.9-.36.94-.85V26.93l3.96 2.64c.3.2.7.2.98 0l4.87-3.25 4.86 3.25c.3.2.7.2.98 0l4.86-3.25 4.86 3.25c.3.2.7.2.99 0l3.96-2.64V54.9a.9.9 0 0 0 1.78 0v-28.2l1.79.89v6.57c0 .5.39.9.9.9.5 0 .9-.39.9-.9v-6.57l1.78-.89v19.79a.9.9 0 0 0 1.78.09V25.24a.87.87 0 0 0-.88-.88Z"/><path fill="#262324" stroke="#262324" stroke-miterlimit="10" stroke-width=".19" d="M47.27 28.7a.87.87 0 0 1-.86-.87c0-3.38-.58-9.55-4.34-12.86-2.99-2.65-6.76-2.5-9.34.37-2.96 3.28-3.76 8.06-3.52 11.42a.9.9 0 0 1-.83.92.86.86 0 0 1-.9-.78c-.28-3.72.62-9.03 3.95-12.71 3.23-3.59 8.1-3.8 11.8-.51 4.26 3.75 4.91 10.48 4.93 14.17a.9.9 0 0 1-.89.85Z"/><path fill="#262324" stroke="#262324" stroke-miterlimit="10" stroke-width=".19" d="M52.54 28.7a.87.87 0 0 1-.87-.87c0-3.38-.58-9.55-4.33-12.86-3-2.65-6.76-2.5-9.35.37-2.95 3.28-3.75 8.06-3.52 11.42a.9.9 0 0 1-.83.92.86.86 0 0 1-.9-.78c-.27-3.72.63-9.03 3.96-12.71 3.23-3.59 8.09-3.8 11.8-.51 4.26 3.75 4.9 10.48 4.92 14.17 0 .46-.39.85-.88.85Z"/></svg>