<svg xmlns="http://www.w3.org/2000/svg" width="82" height="26" fill="none"><path fill="#342B2C" fill-rule="evenodd" d="M6.36 25.98h1.9V15.86h-1.9v10.12Zm6.96-.15h1.7v-6.38l7.16 6.53v-9.96h-1.7v6.27l-7.16-6.43v9.97Zm12.74-2.45a5.23 5.23 0 0 0 3.23 1.13c1.16 0 1.97-.4 1.97-1.27 0-.77-.52-1.07-1.43-1.4l-1.47-.52c-1.36-.48-2.39-1.18-2.39-2.8 0-1.72 1.56-2.66 3.43-2.66 1.15 0 2.19.29 3 .8v1.71a4.82 4.82 0 0 0-2.96-1.05c-1.03 0-1.8.38-1.8 1.17 0 .72.49 1.01 1.34 1.3l1.64.57c1.58.56 2.31 1.42 2.31 2.85 0 1.78-1.57 2.77-3.64 2.77a5.95 5.95 0 0 1-3.23-.86v-1.74Zm11.3 2.6h1.9V15.86h-1.9v10.12Zm10.8-1.53c2.15 0 3.3-1.37 3.3-3.53 0-2.18-1.15-3.54-3.3-3.54h-2.1v7.07h2.1Zm-3.84-8.59h3.91c3 0 4.95 1.98 4.95 5.06 0 3.08-1.94 5.06-4.95 5.06h-3.9V15.86Zm18.36 0v1.52h-4.6v2.43h4.12v1.5h-4.12v3.14h4.6v1.53h-6.33V15.86h6.33Zm6.73 4.58h1.89c1.11 0 1.74-.6 1.74-1.54 0-.94-.63-1.55-1.74-1.55H69.4v3.1Zm0 1.44v4.1h-1.67V15.86h3.59c2.05 0 3.37 1.06 3.37 3.04 0 1.69-.73 2.66-2.3 2.91l3.56 4.17h-1.9l-3.45-4.1h-1.2ZM5.7 5.9c.74-.28 1.32-1.09 1.32-2.2C7.01 1.82 5.7.85 3.58.85H.03v10.4H3.9c2.11 0 3.43-1.03 3.43-2.97 0-1.1-.7-2.07-1.65-2.4Zm-4-.67V2.4h1.87c1.18 0 1.8.42 1.8 1.4 0 .99-.63 1.44-1.8 1.44H1.7Zm0 1.46h2.18c1.16 0 1.79.58 1.79 1.53 0 .93-.63 1.52-1.78 1.52H1.7V6.7Zm13.4 4.75c2.43 0 4.06-1.46 4.06-4.3V.85h-1.71v6.07c0 2-.83 2.93-2.35 2.93s-2.34-.93-2.34-2.93V.86h-1.72v6.26c0 2.86 1.65 4.32 4.06 4.32Zm8.1-.92c.72.51 1.87.92 3.23.92 2.06 0 3.63-1.05 3.63-2.95 0-1.51-.73-2.43-2.31-3.02l-1.64-.6c-.84-.31-1.32-.62-1.32-1.38 0-.85.76-1.25 1.79-1.25 1.18 0 2.1.45 2.95 1.11V1.54a5.37 5.37 0 0 0-2.99-.85c-1.86 0-3.42 1-3.42 2.83 0 1.71 1.03 2.46 2.38 2.97l1.47.54c.91.36 1.42.68 1.42 1.5 0 .92-.8 1.35-1.96 1.35-1.2 0-2.3-.44-3.22-1.2v1.84Zm13-9.66h-1.72v10.4h1.72V.87Zm4.9 10.4h1.65V4.48l6.97 6.93V.85h-1.65V7.5L41.09.69v10.56ZM60.44.85v1.56h-4.46v2.5h4v1.55h-4V9.7h4.46v1.57H54.3V.87h6.14Zm4 9.65c.7.51 1.86.92 3.22.92 2.06 0 3.63-1.05 3.63-2.95 0-1.5-.73-2.42-2.31-3.02l-1.64-.6c-.84-.31-1.32-.61-1.32-1.38 0-.85.76-1.25 1.78-1.25 1.2 0 2.12.46 2.96 1.12V1.53A5.37 5.37 0 0 0 67.77.7c-1.86 0-3.42 1-3.42 2.83 0 1.7 1.03 2.45 2.38 2.96l1.47.54c.9.36 1.42.68 1.42 1.5 0 .93-.8 1.35-1.96 1.35-1.2 0-2.3-.44-3.22-1.2v1.84Zm10.37 0c.7.51 1.86.92 3.22.92 2.06 0 3.63-1.05 3.63-2.95 0-1.5-.73-2.42-2.31-3.02l-1.64-.6c-.84-.31-1.32-.61-1.32-1.38 0-.85.76-1.25 1.79-1.25 1.18 0 2.11.46 2.95 1.12V1.53A5.36 5.36 0 0 0 78.14.7c-1.86 0-3.42 1-3.42 2.83 0 1.7 1.03 2.45 2.38 2.96l1.47.54c.91.36 1.42.68 1.42 1.5 0 .93-.8 1.35-1.96 1.35-1.2 0-2.3-.44-3.22-1.2v1.84Z" clip-rule="evenodd"/></svg>