<svg xmlns="http://www.w3.org/2000/svg" width="69" height="28" fill="none"><path fill="#342B2C" fill-rule="evenodd" d="M2.52 27.22H.45v.4H11.9V20.4h-.34s0 4.16-1.39 5.52c-1.17 1.17-2.4 1.26-4.4 1.26V13.9s1.38-.1 2.06.58C8.87 15.53 9 16.88 9 18.77h.37V8.6H9c0 1.88-.09 3.23-1.17 4.28-.68.68-2.06.59-2.06.59V.86c2 0 2.95.12 4.13 1.26 1.35 1.36 1.38 5.52 1.38 5.52h.34V.46H.45v.4h2.07v26.36ZM24.87.86v26.36c2 0 3.23-.13 4.4-1.27 1.36-1.35 1.4-5.52 1.4-5.52H31v7.22H19.56v-.4h2.07V.83h-2.07V.46h7.19v.4h-1.88ZM43.24.86v26.36c2 0 3.24-.13 4.41-1.27 1.36-1.35 1.39-5.52 1.39-5.52h.34v7.22H37.94v-.4H40V.83h-2.06V.46h7.18v.4h-1.88ZM58.84 27.22h-2.06v.4H68.2V20.4h-.34s0 4.16-1.38 5.52c-1.18 1.17-2.4 1.26-4.41 1.26V13.9s1.38-.1 2.06.58c1.05 1.05 1.17 2.4 1.17 4.29h.37V8.6h-.37c0 1.88-.09 3.23-1.17 4.28-.68.68-2.06.59-2.06.59V.86c2 0 2.96.12 4.13 1.26 1.35 1.36 1.39 5.52 1.39 5.52h.33V.46H56.78v.4h2.06v26.36Z" clip-rule="evenodd"/></svg>