<svg xmlns="http://www.w3.org/2000/svg" width="126" height="14" fill="none"><path fill="#342B2C" d="M.01 5.74c.07-.08.13-.18.21-.23C2.62 3.99 5.03 2.49 7.43.98c.22-.14.39-.14.6-.01l7.24 4.54c.13.08.19.19.19.34v6.83c0 .23-.14.32-.35.2l-2.38-1.45c-.12-.07-.16-.17-.16-.31l.01-3.92a.38.38 0 0 0-.2-.36L7.97 4.08c-.17-.1-.3-.1-.45 0l-4.4 2.75c-.16.1-.23.21-.22.4v3.85c0 .19-.05.3-.2.39L.4 12.84c-.2.13-.27.12-.4-.04V5.74ZM46.42 5.8a3.31 3.31 0 0 1 1.97-1.16 3.91 3.91 0 0 1 2.53.26c.45.23.8.55 1.04 1 0 .03.02.04.04.06.2-.2.38-.39.6-.56a3.94 3.94 0 0 1 3.8-.63c1.07.34 1.65 1.14 1.88 2.2.09.37.12.76.13 1.14v4.57c0 .28-.08.36-.37.36h-2.23c-.26 0-.34-.09-.34-.34V8.5c0-.26-.04-.52-.1-.78-.25-1.05-1.4-1.44-2.26-.78-.41.3-.57.73-.57 1.23v4.42l-.01.18c-.02.17-.11.26-.27.26h-2.4c-.16 0-.25-.09-.28-.23v-.17l-.01-4.3c0-.21-.02-.44-.08-.66a1.35 1.35 0 0 0-2.09-.82c-.47.3-.73.75-.73 1.32v4.46c0 .34-.07.41-.4.41h-2.2c-.27 0-.36-.09-.36-.36V5.1c0-.25.1-.34.35-.34h1.98c.27 0 .35.07.35.35a21.15 21.15 0 0 0 .03.7ZM22.93 5.71c.38-.41.85-.72 1.37-.9a4 4 0 0 1 2.53-.1 2.9 2.9 0 0 1 2.15 2.39c.08.36.1.74.11 1.12.02 1.47.01 2.94.01 4.41 0 .34-.07.41-.41.41h-2.27c-.27 0-.35-.08-.36-.35V8.43c0-.2-.02-.4-.06-.6-.19-.9-.83-1.22-1.65-1.17-.19.02-.4.06-.57.14-.58.26-.9.7-.9 1.37v4.5c0 .3-.06.38-.37.38h-2.2c-.28 0-.37-.09-.37-.36V1.35c0-.26.12-.35.38-.28l2.29.62c.24.07.28.12.28.39v3.64c.02-.02.03-.02.04-.01ZM36.35 13.22a5.76 5.76 0 0 1-3.21-.87 3.9 3.9 0 0 1-1.8-3.7c.06-1.02.4-1.9 1.12-2.64a4.5 4.5 0 0 1 2.27-1.24 6.6 6.6 0 0 1 4.26.27 3.84 3.84 0 0 1 2.47 3.21 4.1 4.1 0 0 1-2.71 4.55c-.78.3-1.58.42-2.4.42Zm-1.9-4.5c0 .83.17 1.42.47 1.87.72 1.05 2.32 1.05 2.99-.03.63-1.03.6-2.13.1-3.22-.3-.64-.86-.96-1.6-.96-.72.01-1.27.33-1.62.97-.25.49-.33 1-.34 1.38ZM63.49 9.7c.05.46.26.78.6 1.03.48.33 1.01.47 1.57.52.98.1 1.95-.01 2.91-.22.26-.06.36 0 .42.25l.24 1.07c.06.28.02.37-.26.45a10.83 10.83 0 0 1-5.29.14 4.24 4.24 0 0 1-2.26-1.41 3.88 3.88 0 0 1-.82-2.82 4.32 4.32 0 0 1 3.74-4.07c.9-.15 1.78-.16 2.67.09a3.65 3.65 0 0 1 2.75 3.04c.1.54.1 1.07.03 1.6-.03.25-.12.32-.36.32h-5.74c-.06.02-.11.02-.2.02Zm3.55-1.77c-.04-.62-.21-1.15-.78-1.44a1.9 1.9 0 0 0-2.03.11c-.46.31-.68.78-.76 1.33h3.57ZM119.18 9.2a2.64 2.64 0 0 0 2 2.67c.7.2 1.4.19 2.1.14a6.53 6.53 0 0 0 1.56-.3c.2-.06.32 0 .38.22l.14.47c.05.23 0 .33-.22.4a9.1 9.1 0 0 1-4.84.13c-1.4-.46-2.37-1.37-2.68-2.84a4.43 4.43 0 0 1 1.14-4.23 4.07 4.07 0 0 1 2.44-1.17 4.88 4.88 0 0 1 2.57.26c1.2.49 1.87 1.43 2.13 2.68.1.4.12.83.07 1.26-.02.24-.1.31-.35.31h-6.45Zm5.12-1.08c-.02-.79-.24-1.47-.88-1.96-.36-.28-.8-.4-1.25-.44a2.6 2.6 0 0 0-2.2.76c-.44.46-.68 1-.78 1.63h5.1ZM83.04 9.2a2.65 2.65 0 0 0 2.24 2.72c1.13.24 2.25.12 3.35-.18.3-.09.38-.05.47.25l.1.4c.08.24.02.34-.22.41-.79.25-1.6.37-2.43.4-.86.04-1.7-.02-2.52-.3a3.85 3.85 0 0 1-2.67-3.76c0-1.06.25-2.03.91-2.88a4.15 4.15 0 0 1 2.84-1.57c.84-.1 1.69-.07 2.5.25 1.2.48 1.86 1.4 2.14 2.63.1.43.13.88.08 1.32-.02.25-.1.31-.36.31h-6.43Zm.02-1.1h5.09l-.01-.31a2.14 2.14 0 0 0-1.48-1.95 2.9 2.9 0 0 0-1.61-.05 2.68 2.68 0 0 0-2 2.32ZM94.04 6.15a3.55 3.55 0 0 1 2.6-1.47 3.64 3.64 0 0 1 2.92.77c.62.53.92 1.22 1.02 2 .03.3.05.61.05.92V12.77c-.03.17-.12.26-.28.26h-1.2c-.19 0-.27-.1-.27-.32V8.54c0-.2 0-.42-.03-.63a3.92 3.92 0 0 0-.14-.7 1.82 1.82 0 0 0-1.55-1.28 2.63 2.63 0 0 0-2.1.5 2.07 2.07 0 0 0-.86 1.73v4.5c0 .3-.08.37-.38.37h-1.05c-.23 0-.33-.1-.33-.32V5.16c0-.24.1-.34.35-.35h.94c.24 0 .33.1.33.34-.02.31-.02.64-.02 1ZM77.1 13.22a5.71 5.71 0 0 1-2.91-.63 3.83 3.83 0 0 1-2.08-3.47 3.97 3.97 0 0 1 1.23-3.08 4.82 4.82 0 0 1 2.52-1.25 7.33 7.33 0 0 1 3.46.15c.32.09.37.19.26.51l-.16.47c-.07.2-.2.27-.4.2-.7-.23-1.41-.3-2.14-.25-1.07.1-1.99.5-2.57 1.45-.89 1.46-.56 4.1 2.1 4.61.88.17 1.74.07 2.59-.2.29-.1.38-.04.45.25.05.16.1.32.13.48.05.2 0 .31-.21.38-.78.26-1.6.37-2.27.38ZM104.24 5.96h-1.15c-.25 0-.34-.09-.34-.33v-.46c0-.25.1-.34.36-.35h1.14V3.6c0-.21.05-.3.26-.34l1.1-.3c.25-.06.36.02.36.27V4.83h2.12c.3 0 .38.09.38.38v.43c0 .25-.09.33-.34.33h-2.15v4.51c0 .23.04.48.1.7a1 1 0 0 0 1 .79c.28.01.56 0 .84-.02.28-.02.38.05.4.33l.04.5c0 .16-.06.26-.2.3-.83.18-1.65.25-2.47-.03a1.98 1.98 0 0 1-1.36-1.73c-.05-.31-.07-.63-.07-.94v-4.2c-.02-.08-.02-.13-.02-.22ZM112.91 6.3c.19-.25.35-.54.58-.78.62-.65 1.4-.93 2.3-.88.2.02.27.1.28.31v.77c0 .25-.08.33-.32.33-.4-.02-.79 0-1.16.15a2.3 2.3 0 0 0-1.47 1.82 4.2 4.2 0 0 0-.07.78v3.85c0 .3-.07.38-.36.38h-1.05c-.22 0-.32-.1-.32-.31v-7.6c0-.18.1-.3.29-.3h1.02c.2 0 .3.12.3.32l-.02 1.16Z"/></svg>