<svg width="82" height="26" viewBox="0 0 82 26" fill="none" xmlns="http://www.w3.org/2000/svg">
<path fill-rule="evenodd" clip-rule="evenodd" d="M6.35509 25.9811H8.25405V15.8632H6.35509V25.9811ZM13.3161 25.8294H15.0169V19.4456L22.176 25.9811V16.015H20.48V22.2897L13.3161 15.8632V25.8294ZM26.0588 23.3789C26.9845 24.0983 28.0956 24.514 29.2868 24.514C30.4471 24.514 31.2611 24.1156 31.2611 23.2359C31.2611 22.4691 30.742 22.1687 29.8329 21.8328L28.3611 21.3229C27.0043 20.8423 25.9724 20.1404 25.9724 18.5271C25.9724 16.8015 27.5345 15.8632 29.4025 15.8632C30.547 15.8632 31.59 16.1502 32.4047 16.6584V18.3698C31.5575 17.7453 30.6302 17.3153 29.439 17.3153C28.4134 17.3153 27.647 17.6971 27.647 18.4931C27.647 19.2124 28.1281 19.5001 28.9754 19.7895L30.6151 20.3633C32.2042 20.9206 32.9334 21.7846 32.9334 23.2058C32.9334 24.9938 31.3562 25.9811 29.2868 25.9811C27.9268 25.9811 26.7705 25.6017 26.0588 25.1227V23.3789ZM37.3637 25.9811H39.2619V15.8632H37.3637V25.9811ZM48.167 24.45C50.3069 24.45 51.4506 23.0809 51.4506 20.9198C51.4506 18.7429 50.3061 17.3785 48.167 17.3785H46.0509V24.45H48.167ZM44.3231 15.8632H48.2304C51.2382 15.8632 53.1831 17.8394 53.1831 20.9198C53.1831 24.0026 51.2382 25.9811 48.2304 25.9811H44.3231V15.8632ZM62.6763 15.8632V17.3785H58.0819V19.8132H62.2024V21.3111H58.0811V24.45H62.6763V25.9811H56.3478V15.8632H62.6763ZM69.4146 20.4447H71.2985C72.4136 20.4447 73.0421 19.8345 73.0421 18.8962C73.0421 17.958 72.4136 17.3469 71.2985 17.3469H69.4146V20.4455V20.4447ZM69.4146 21.8755V25.9811H67.7383V15.8632H71.3302C73.3782 15.8632 74.7033 16.9153 74.7033 18.8962C74.7033 20.5902 73.9678 21.5632 72.4009 21.813L75.965 25.9811H74.0582L70.6074 21.8763H69.4154L69.4146 21.8755ZM5.69172 5.89553C6.43434 5.62441 7.01291 4.81102 7.01291 3.69252C7.01291 1.82862 5.69172 0.862674 3.57798 0.862674H0.0273438V11.2675H3.90768C6.02142 11.2675 7.34261 10.2336 7.34261 8.2851C7.34261 7.18319 6.64913 6.21725 5.69172 5.89553ZM1.69488 5.23471V2.38826H3.56213C4.73511 2.38826 5.36202 2.81195 5.36202 3.79449C5.36202 4.77703 4.73432 5.23471 3.56213 5.23471H1.69488ZM1.69488 6.69232H3.8744C5.03153 6.69232 5.65843 7.26777 5.65843 8.21712C5.65843 9.14907 5.03073 9.7427 3.87519 9.7427H1.69567V6.69153L1.69488 6.69232ZM15.0898 11.4367C17.5174 11.4367 19.1524 9.97905 19.1524 7.1326V0.862674H17.435V6.92867C17.435 8.92853 16.6091 9.86127 15.0898 9.86127C13.5705 9.86127 12.7454 8.92853 12.7454 6.92867V0.862674H11.028V7.11521C11.028 9.97905 12.6789 11.4367 15.0898 11.4367ZM23.1961 10.5213C23.9062 11.0304 25.0625 11.4367 26.4162 11.4367C28.4808 11.4367 30.0493 10.3853 30.0493 8.48824C30.0493 6.98005 29.3233 6.06469 27.7374 5.47185L26.1031 4.86161C25.2607 4.55729 24.782 4.25217 24.782 3.48937C24.782 2.642 25.5412 2.2357 26.5652 2.2357C27.754 2.2357 28.6789 2.69259 29.5214 3.3542V1.5401C28.7122 0.998633 27.6716 0.693516 26.5319 0.693516C24.6662 0.693516 23.1136 1.69345 23.1136 3.52336C23.1136 5.23471 24.1376 5.98011 25.4913 6.48838L26.9615 7.03064C27.8697 7.38634 28.3817 7.70885 28.3817 8.52223C28.3817 9.45419 27.5725 9.87787 26.4162 9.87787C25.2274 9.87787 24.121 9.4368 23.1961 8.67479V10.5213ZM36.186 0.862674H34.4693V11.2667H36.186V0.862674ZM41.0856 11.2541H42.7404V4.48535L49.7054 11.4153V0.846865H48.0553V7.50017L41.0856 0.686401V11.2541ZM60.4373 0.865045V2.42304H55.9784V4.92722H59.9769V6.46783H55.9784V9.69528H60.4373V11.2699H54.2951V0.865045H60.4373ZM64.4358 10.5142C65.1459 11.0232 66.3014 11.4295 67.6559 11.4295C69.7197 11.4295 71.289 10.379 71.289 8.48113C71.289 6.97293 70.5622 6.05837 68.9771 5.46473L67.3421 4.85529C66.4996 4.55017 66.0209 4.24505 66.0209 3.48226C66.0209 2.63489 66.7801 2.22859 67.8041 2.22859C68.993 2.22859 69.9179 2.68627 70.7604 3.34709V1.53377C69.9512 0.991519 68.9105 0.686401 67.7708 0.686401C65.9052 0.686401 64.3526 1.68633 64.3526 3.51625C64.3526 5.2276 65.3765 5.973 66.7302 6.48127L68.2004 7.02352C69.1087 7.37923 69.6207 7.70174 69.6207 8.51512C69.6207 9.44707 68.8123 9.87076 67.6551 9.87076C66.4663 9.87076 65.3599 9.43047 64.4358 8.66768V10.5142ZM74.8071 10.5142C75.5173 11.0232 76.6736 11.4295 78.0273 11.4295C80.0919 11.4295 81.6603 10.379 81.6603 8.48113C81.6603 6.97293 80.9336 6.05837 79.3485 5.46473L77.7134 4.85529C76.8717 4.55017 76.3922 4.24505 76.3922 3.48226C76.3922 2.63489 77.1523 2.22859 78.1755 2.22859C79.3643 2.22859 80.29 2.68627 81.1317 3.34709V1.53377C80.3233 0.991519 79.2827 0.686401 78.143 0.686401C76.2765 0.686401 74.7247 1.68633 74.7247 3.51625C74.7247 5.2276 75.7487 5.973 77.1024 6.48127L78.5725 7.02352C79.4808 7.37923 79.9928 7.70174 79.9928 8.51512C79.9928 9.44707 79.1836 9.87076 78.0273 9.87076C76.8384 9.87076 75.732 9.43047 74.8071 8.66768V10.5142Z" fill="#342B2C"/>
</svg>
