<svg width="69" height="28" viewBox="0 0 69 28" fill="none" xmlns="http://www.w3.org/2000/svg">
<path fill-rule="evenodd" clip-rule="evenodd" d="M2.51855 27.2159H0.453125V27.6166H11.89V20.4031H11.5509C11.5509 20.4031 11.5509 24.5647 10.1637 25.9211C8.99227 27.0926 7.75918 27.185 5.75541 27.185V13.8985C5.75541 13.8985 7.14264 13.806 7.82083 14.4842C8.86896 15.5324 8.99227 16.8888 8.99227 18.7692H9.3622V8.59624H8.99227C8.99227 10.4767 8.89979 11.8331 7.82083 12.8812C7.14264 13.5594 5.75541 13.4669 5.75541 13.4669V0.858609C7.75918 0.858609 8.71482 0.981918 9.88626 2.12252C11.2427 3.47892 11.2735 7.64059 11.2735 7.64059H11.6126V0.457855H0.453125V0.858609H2.51855V27.2159Z" fill="#342B2C"/>
<path fill-rule="evenodd" clip-rule="evenodd" d="M24.8668 0.858609V27.2159C26.8705 27.2159 28.1036 27.0926 29.2751 25.952C30.6315 24.5956 30.6623 20.4339 30.6623 20.4339H31.0014V27.6475H19.5645V27.2467H21.6299V0.827782H19.5645V0.457855H26.7472V0.858609H24.8668Z" fill="#342B2C"/>
<path fill-rule="evenodd" clip-rule="evenodd" d="M43.2417 0.858609V27.2159C45.2455 27.2159 46.4786 27.0926 47.65 25.952C49.0064 24.5956 49.0373 20.4339 49.0373 20.4339H49.3764V27.6475H37.9395V27.2467H40.0049V0.827782H37.9395V0.457855H45.1222V0.858609H43.2417Z" fill="#342B2C"/>
<path fill-rule="evenodd" clip-rule="evenodd" d="M58.8408 27.2159H56.7754V27.6166H68.2123V20.4031H67.8732C67.8732 20.4031 67.8732 24.5647 66.486 25.9211C65.3145 27.0926 64.0814 27.185 62.0777 27.185V13.8985C62.0777 13.8985 63.4649 13.806 64.1431 14.4842C65.1912 15.5324 65.3145 16.8888 65.3145 18.7692H65.6845V8.59624H65.3145C65.3145 10.4767 65.222 11.8331 64.1431 12.8812C63.4649 13.5594 62.0777 13.4669 62.0777 13.4669V0.858609C64.0814 0.858609 65.0371 0.981918 66.2085 2.12252C67.5649 3.47892 67.5957 7.64059 67.5957 7.64059H67.9348V0.457855H56.7754V0.858609H58.8408V27.2159Z" fill="#342B2C"/>
</svg>
