<svg width="126" height="14" viewBox="0 0 126 14" fill="none" xmlns="http://www.w3.org/2000/svg">
<path d="M0.0117188 5.73853C0.0818652 5.66137 0.137982 5.56317 0.222158 5.50705C2.62818 3.99189 5.0342 2.49075 7.43321 0.97559C7.65066 0.835297 7.81901 0.835297 8.03647 0.968575C10.4425 2.48374 12.8555 3.9989 15.2686 5.50705C15.4018 5.59122 15.458 5.69644 15.458 5.85077C15.458 8.12351 15.458 10.4033 15.458 12.676C15.458 12.9145 15.3247 12.9987 15.1142 12.8724C14.3146 12.3954 13.5219 11.9114 12.7293 11.4344C12.61 11.3643 12.5749 11.2591 12.5749 11.1188C12.5749 9.81404 12.5749 8.50931 12.582 7.20459C12.582 7.03624 12.5258 6.93102 12.3785 6.83983C10.9055 5.92091 9.43238 5.00199 7.96632 4.07606C7.80499 3.97786 7.67872 3.97084 7.51739 4.07606C6.05133 4.99498 4.58527 5.9139 3.1192 6.83282C2.95787 6.93102 2.89474 7.04325 2.90175 7.23265C2.90877 8.51633 2.90175 9.80001 2.90877 11.0837C2.90877 11.2661 2.84563 11.3783 2.69131 11.4695C1.92672 11.9254 1.16913 12.3884 0.411553 12.8444C0.208129 12.9706 0.137982 12.9566 0.0117188 12.7953C0.0117188 10.4454 0.0117188 8.08844 0.0117188 5.73853Z" fill="#342B2C"/>
<path d="M46.4205 5.80163C46.9466 5.17732 47.606 4.79152 48.3917 4.64421C49.2545 4.48288 50.1102 4.50392 50.9169 4.90375C51.3659 5.12822 51.7236 5.4509 51.9621 5.90685C51.9691 5.92789 51.9832 5.94192 51.9972 5.95595C52.2006 5.76655 52.383 5.57014 52.6004 5.40179C53.7508 4.50392 55.0486 4.33557 56.4094 4.77048C57.4686 5.10718 58.0508 5.91386 58.2823 6.97307C58.3665 7.34485 58.4015 7.73065 58.4086 8.10944C58.4226 9.63162 58.4156 11.1538 58.4156 12.676C58.4156 12.9636 58.3314 13.0407 58.0438 13.0407C57.3003 13.0407 56.5567 13.0407 55.8131 13.0407C55.5536 13.0407 55.4694 12.9495 55.4694 12.697C55.4694 11.3011 55.4764 9.89818 55.4624 8.50226C55.4624 8.24272 55.4344 7.97617 55.3712 7.72364C55.1187 6.67144 53.9683 6.27862 53.1055 6.938C52.6986 7.24664 52.5373 7.66752 52.5373 8.16556C52.5373 9.63864 52.5373 11.1187 52.5373 12.5918C52.5373 12.6549 52.5373 12.7181 52.5303 12.7742C52.5093 12.9425 52.4181 13.0337 52.2567 13.0337C51.4571 13.0337 50.6504 13.0337 49.8507 13.0337C49.6964 13.0337 49.6122 12.9425 49.5841 12.8022C49.5701 12.7461 49.5771 12.69 49.5771 12.6339C49.5771 11.2029 49.5771 9.7649 49.5701 8.33391C49.5701 8.11646 49.5491 7.89199 49.493 7.67454C49.2474 6.72055 48.2373 6.32071 47.4026 6.85382C46.9256 7.15545 46.6731 7.59738 46.6731 8.17258C46.6731 9.65968 46.6731 11.1468 46.6731 12.6269C46.6731 12.9706 46.6029 13.0407 46.2662 13.0407C45.5367 13.0407 44.8072 13.0407 44.0777 13.0407C43.8041 13.0407 43.7129 12.9495 43.7129 12.683C43.7129 10.1577 43.7129 7.62543 43.7129 5.10016C43.7129 4.84764 43.8041 4.75645 44.0566 4.75645C44.716 4.75645 45.3824 4.75645 46.0418 4.75645C46.3083 4.75645 46.3855 4.83361 46.3925 5.10718C46.3925 5.33165 46.3925 5.5491 46.3995 5.77357C46.3925 5.76655 46.3995 5.78058 46.4205 5.80163Z" fill="#342B2C"/>
<path d="M22.9347 5.71047C23.3135 5.29661 23.7765 4.99498 24.3026 4.80558C25.1373 4.49694 25.9861 4.46888 26.8278 4.70738C28.0414 5.0511 28.7358 5.89285 28.9813 7.09937C29.0585 7.46413 29.0865 7.84292 29.0936 8.22171C29.1076 9.69479 29.1006 11.1608 29.1006 12.6339C29.1006 12.9706 29.0304 13.0408 28.6867 13.0408C27.9291 13.0408 27.1786 13.0408 26.421 13.0408C26.1544 13.0408 26.0703 12.9566 26.0632 12.69C26.0632 11.2731 26.0632 9.84911 26.0632 8.43215C26.0632 8.23574 26.0422 8.03232 26.0001 7.83591C25.8107 6.93102 25.1724 6.60835 24.3517 6.66446C24.1623 6.67849 23.9588 6.72058 23.7835 6.80476C23.2013 7.0643 22.8786 7.50622 22.8856 8.17261C22.8926 9.66673 22.8856 11.1679 22.8856 12.662C22.8856 12.9776 22.8155 13.0478 22.5068 13.0478C21.7703 13.0478 21.0408 13.0478 20.3042 13.0478C20.0306 13.0478 19.9395 12.9636 19.9395 12.69C19.9395 8.90915 19.9395 5.12826 19.9395 1.34736C19.9395 1.08782 20.0587 0.996632 20.3182 1.06678C21.0828 1.27722 21.8404 1.48064 22.605 1.69108C22.8505 1.76123 22.8926 1.81033 22.8926 2.07689C22.8926 3.2343 22.8926 4.3847 22.8926 5.54212C22.8926 5.59824 22.8926 5.66137 22.8926 5.71749C22.9066 5.70346 22.9207 5.70346 22.9347 5.71047Z" fill="#342B2C"/>
<path d="M36.3488 13.2161C35.1984 13.2091 34.1111 12.9847 33.1361 12.3463C31.8103 11.4695 31.2561 10.2069 31.3403 8.64259C31.3964 7.63248 31.7472 6.74162 32.4627 6.0121C33.087 5.36676 33.8586 4.97394 34.7284 4.77051C36.1734 4.42679 37.6114 4.43381 38.9933 5.03707C40.4032 5.64734 41.2801 6.70655 41.4624 8.24977C41.7009 10.277 40.782 11.9886 38.7478 12.7953C37.9692 13.0969 37.1695 13.2232 36.3488 13.2161ZM34.4548 8.72677C34.4548 9.5545 34.6162 10.1437 34.9178 10.5856C35.6403 11.6378 37.2396 11.6378 37.906 10.5576C38.5444 9.52644 38.5163 8.42514 38.0112 7.34488C37.7026 6.69954 37.1484 6.37686 36.4189 6.38388C35.6894 6.39089 35.1423 6.70655 34.7915 7.3519C34.539 7.83591 34.4618 8.35499 34.4548 8.72677Z" fill="#342B2C"/>
<path d="M63.4868 9.70879C63.5359 10.1647 63.7534 10.4804 64.0971 10.7259C64.5671 11.0626 65.1002 11.1959 65.6614 11.252C66.6434 11.3432 67.6114 11.238 68.5724 11.0275C68.825 10.9714 68.9302 11.0346 68.9863 11.2801C69.0705 11.6378 69.1476 11.9956 69.2318 12.3463C69.2949 12.6339 69.2458 12.7181 68.9653 12.7952C68.0744 13.0548 67.1695 13.174 66.2436 13.2021C65.3738 13.2301 64.518 13.181 63.6832 12.9425C62.7924 12.69 62.0067 12.2621 61.4245 11.5256C60.7651 10.7049 60.5266 9.74386 60.6038 8.71271C60.7581 6.56623 62.2102 4.99495 64.3356 4.6372C65.2335 4.4899 66.1243 4.48288 67.0082 4.72839C68.5654 5.1633 69.4493 6.20848 69.7579 7.77275C69.8631 8.30586 69.8631 8.83897 69.793 9.37209C69.7649 9.6176 69.6737 9.69476 69.4282 9.69476C67.5132 9.69476 65.6052 9.69476 63.6902 9.69476C63.6341 9.70879 63.578 9.70879 63.4868 9.70879ZM67.0432 7.92707C67.0012 7.30978 66.8258 6.77667 66.2576 6.48907C65.5702 6.13834 64.8757 6.1664 64.2304 6.6013C63.7674 6.90995 63.55 7.37993 63.4728 7.92707C64.6653 7.92707 65.8437 7.92707 67.0432 7.92707Z" fill="#342B2C"/>
<path d="M119.177 9.20375C119.191 10.4734 119.85 11.4835 121.183 11.8693C121.877 12.0727 122.579 12.0587 123.287 12.0096C123.813 11.9745 124.332 11.8763 124.838 11.715C125.048 11.6519 125.16 11.715 125.223 11.9254C125.265 12.0868 125.315 12.2411 125.357 12.4024C125.413 12.6269 125.364 12.7251 125.139 12.7952C124.354 13.0478 123.547 13.167 122.719 13.2021C121.898 13.2372 121.085 13.1951 120.299 12.9285C118.896 12.4656 117.928 11.5607 117.619 10.0946C117.283 8.5093 117.598 7.05727 118.756 5.86478C119.422 5.18436 120.257 4.8196 121.197 4.69334C122.074 4.56708 122.944 4.60916 123.771 4.94587C124.978 5.43689 125.637 6.38387 125.904 7.62546C125.995 8.03932 126.023 8.4602 125.974 8.88809C125.946 9.12659 125.869 9.20375 125.623 9.20375C123.54 9.20375 121.456 9.20375 119.373 9.20375C119.31 9.20375 119.247 9.20375 119.177 9.20375ZM124.297 8.11648C124.276 7.33084 124.059 6.65042 123.421 6.1594C123.056 5.87881 122.621 5.75956 122.165 5.71748C121.316 5.64733 120.566 5.85777 119.962 6.48207C119.527 6.93802 119.289 7.48517 119.191 8.10947C120.895 8.11648 122.579 8.11648 124.297 8.11648Z" fill="#342B2C"/>
<path d="M83.036 9.20374C83.036 9.69476 83.1342 10.1437 83.3517 10.5576C83.7655 11.3362 84.446 11.7571 85.2807 11.9254C86.4101 12.1569 87.5324 12.0447 88.6337 11.736C88.9283 11.6518 89.0125 11.6939 89.0967 11.9885C89.1317 12.1218 89.1738 12.2551 89.2089 12.3884C89.279 12.6339 89.2229 12.7321 88.9844 12.8022C88.1918 13.0548 87.3781 13.174 86.5503 13.2091C85.6946 13.2442 84.8458 13.181 84.0321 12.8934C82.3626 12.3042 81.3665 10.9083 81.3595 9.1406C81.3525 8.08139 81.612 7.10636 82.2714 6.2646C82.9939 5.33867 83.9619 4.84764 85.1053 4.69332C85.9541 4.58109 86.7959 4.61616 87.6025 4.93883C88.802 5.41583 89.4684 6.34176 89.749 7.56932C89.8472 8.00423 89.8823 8.44615 89.8332 8.88808C89.8051 9.1406 89.728 9.20374 89.4684 9.20374C87.3921 9.20374 85.3228 9.20374 83.2465 9.20374C83.1763 9.20374 83.1132 9.20374 83.036 9.20374ZM83.0571 8.10945C84.7546 8.10945 86.4451 8.10945 88.1497 8.10945C88.1427 7.99722 88.1427 7.892 88.1357 7.78678C88.0655 6.86085 87.5043 6.11028 86.6556 5.84372C86.1295 5.67537 85.5893 5.65433 85.0492 5.78761C83.983 6.04715 83.2184 6.93801 83.0571 8.10945Z" fill="#342B2C"/>
<path d="M94.0357 6.1524C94.7021 5.2405 95.5859 4.79858 96.6381 4.67933C97.7113 4.55307 98.7144 4.72843 99.5632 5.45094C100.18 5.97704 100.482 6.67149 100.58 7.45713C100.615 7.75876 100.629 8.06039 100.629 8.36903C100.636 9.77898 100.629 11.1889 100.629 12.5918C100.629 12.655 100.629 12.7181 100.622 12.7742C100.601 12.9356 100.51 13.0268 100.349 13.0338C99.949 13.0408 99.5422 13.0408 99.1423 13.0338C98.96 13.0338 98.8758 12.9215 98.8758 12.7111C98.8758 11.3222 98.8758 9.9333 98.8758 8.5444C98.8758 8.33396 98.8758 8.12352 98.8477 7.91308C98.8197 7.6816 98.7776 7.4431 98.7074 7.21863C98.4549 6.47508 97.9288 6.04719 97.1572 5.92794C96.3856 5.80869 95.6771 5.94197 95.0528 6.42598C94.4916 6.86088 94.19 7.43608 94.197 8.15859C94.204 9.65973 94.197 11.1609 94.197 12.662C94.197 12.9566 94.1199 13.0338 93.8182 13.0338C93.4675 13.0338 93.1168 13.0338 92.766 13.0338C92.5416 13.0338 92.4434 12.9356 92.4434 12.7111C92.4434 10.1928 92.4434 7.67458 92.4434 5.15633C92.4434 4.91783 92.5486 4.81962 92.7871 4.81261C93.1027 4.81261 93.4184 4.81261 93.7341 4.81261C93.9655 4.81261 94.0567 4.91081 94.0567 5.14931C94.0357 5.46497 94.0357 5.78764 94.0357 6.1524Z" fill="#342B2C"/>
<path d="M77.0969 13.2161C75.9676 13.2232 75.0346 13.0618 74.1859 12.5918C72.818 11.8413 72.1516 10.6558 72.1095 9.1196C72.0745 7.92009 72.4743 6.88192 73.3371 6.04017C74.0386 5.35975 74.9014 4.97394 75.8554 4.79156C77.0198 4.56008 78.1772 4.61619 79.3206 4.93887C79.6433 5.03006 79.6924 5.12826 79.5801 5.45094C79.531 5.60526 79.4749 5.7666 79.4188 5.92092C79.3486 6.12434 79.2294 6.19449 79.019 6.12434C78.3245 5.88584 77.609 5.8157 76.8795 5.87182C75.8063 5.96301 74.8944 6.36284 74.3121 7.31683C73.4213 8.78289 73.751 11.4204 76.4025 11.9325C77.2863 12.1008 78.1491 12.0026 78.9979 11.729C79.2855 11.6379 79.3767 11.687 79.4539 11.9816C79.496 12.1429 79.5451 12.2972 79.5801 12.4586C79.6292 12.662 79.5731 12.7742 79.3697 12.8374C78.5911 13.1039 77.7704 13.2091 77.0969 13.2161Z" fill="#342B2C"/>
<path d="M104.241 5.963C103.841 5.963 103.469 5.963 103.091 5.963C102.845 5.963 102.754 5.87181 102.754 5.63331C102.754 5.47899 102.754 5.32467 102.754 5.17035C102.754 4.92483 102.852 4.82663 103.105 4.81961C103.476 4.81961 103.848 4.81961 104.248 4.81961C104.248 4.7635 104.248 4.71439 104.248 4.66529C104.248 4.30754 104.248 3.9498 104.248 3.59907C104.248 3.38863 104.304 3.30445 104.508 3.25535C104.872 3.15714 105.244 3.05192 105.616 2.96073C105.861 2.8976 105.974 2.98178 105.974 3.2343C105.981 3.69727 105.974 4.16024 105.974 4.63022C105.974 4.69335 105.974 4.74947 105.974 4.82663C106.044 4.82663 106.1 4.82663 106.156 4.82663C106.801 4.82663 107.447 4.82663 108.092 4.82663C108.387 4.82663 108.471 4.91782 108.471 5.20542C108.471 5.35273 108.471 5.49302 108.471 5.64033C108.464 5.88584 108.38 5.97001 108.134 5.97001C107.475 5.97001 106.822 5.97001 106.163 5.97001C106.107 5.97001 106.051 5.97001 105.981 5.97001C105.974 6.04016 105.974 6.08926 105.974 6.14538C105.974 7.5904 105.967 9.03541 105.981 10.4804C105.981 10.7119 106.016 10.9574 106.079 11.1819C106.219 11.6729 106.563 11.9465 107.075 11.9675C107.356 11.9816 107.643 11.9675 107.924 11.9465C108.204 11.9254 108.302 11.9956 108.324 12.2762C108.338 12.4445 108.345 12.6129 108.359 12.7882C108.366 12.9356 108.295 13.0408 108.155 13.0758C107.334 13.2582 106.507 13.3284 105.693 13.0478C104.879 12.7602 104.437 12.1569 104.325 11.3152C104.283 11.0065 104.262 10.6909 104.262 10.3752C104.255 8.9793 104.262 7.57637 104.262 6.18045C104.241 6.10329 104.241 6.04718 104.241 5.963Z" fill="#342B2C"/>
<path d="M112.913 6.29969C113.095 6.05417 113.263 5.75956 113.488 5.52106C114.105 4.8687 114.884 4.58811 115.782 4.64423C115.985 4.65826 116.062 4.74945 116.069 4.95288C116.069 5.21242 116.069 5.47196 116.069 5.72449C116.069 5.97 115.985 6.05417 115.747 6.04716C115.354 6.03313 114.961 6.05417 114.589 6.20148C113.754 6.53117 113.291 7.16249 113.123 8.01827C113.074 8.27782 113.053 8.53736 113.053 8.80391C113.046 10.0876 113.053 11.3713 113.053 12.655C113.053 12.9426 112.976 13.0267 112.688 13.0267C112.337 13.0267 111.987 13.0267 111.636 13.0267C111.419 13.0267 111.32 12.9285 111.32 12.7181C111.32 10.1858 111.32 7.65351 111.327 5.12123C111.327 4.93885 111.426 4.82661 111.608 4.8196C111.952 4.81258 112.288 4.81258 112.632 4.8196C112.828 4.82661 112.927 4.93885 112.927 5.14227C112.92 5.54211 112.913 5.93493 112.913 6.29969Z" fill="#342B2C"/>
</svg>
