<svg xmlns="http://www.w3.org/2000/svg" width="19" height="19" fill="none"><path fill="#112D2A" d="M8.54.03A9.67 9.67 0 0 0 2.1 3.51a9.61 9.61 0 0 0-2.08 6.9 9.6 9.6 0 0 0 3.49 6.49 9.4 9.4 0 0 0 7.02 2.06 9.4 9.4 0 0 0 6.38-3.5 9.6 9.6 0 0 0 2.05-6.87 9.43 9.43 0 0 0-4.12-6.96A9.52 9.52 0 0 0 8.54.03Zm1.5 1.24a8.2 8.2 0 0 1 5.29 2.4 8.21 8.21 0 0 1 1.17 10.17c-.02 0-.1-.11-.18-.25a8.03 8.03 0 0 0-3.94-3.28c-.12-.05-.26-.1-.3-.1-.06-.03-.05-.04.14-.2a4.15 4.15 0 0 0 1.31-3.76 4.12 4.12 0 0 0-3.26-3.33 5.78 5.78 0 0 0-1.54 0A4.12 4.12 0 0 0 5.8 8.7c.25.51.58.96.97 1.3.13.11.19.18.16.2a8.18 8.18 0 0 0-1.54.7 8.16 8.16 0 0 0-2.89 2.94 8.2 8.2 0 0 1 .1-8.85 8.26 8.26 0 0 1 7.44-3.72Zm-.03 2.9a2.87 2.87 0 0 1 2.28 2.27A2.86 2.86 0 0 1 8.84 9.7a2.87 2.87 0 0 1-1.3-.72 2.8 2.8 0 0 1-.73-2.89 2.89 2.89 0 0 1 2.16-1.91c.25-.06.78-.06 1.04 0Zm.2 6.9a6.77 6.77 0 0 1 5.34 3.74l.08.18-.1.13a8.24 8.24 0 0 1-12.06 0l-.1-.13.08-.18a6.79 6.79 0 0 1 6.75-3.74Z"/></svg>