<svg xmlns="http://www.w3.org/2000/svg" width="19" height="19" fill="none"><path fill="#112D2A" d="M8.58.03a9.5 9.5 0 1 0 2.54 18.85A9.52 9.52 0 0 0 10.37.02c-.34-.04-1.45-.03-1.79 0Zm1.4 1.23a8.24 8.24 0 0 1 6.49 12.62l-.15.21-.06-.64c-.09-1-.37-3.83-.48-4.81a6.98 6.98 0 0 0-.14-.97.56.56 0 0 0-.25-.26c-.1-.05-.13-.05-1.17-.06l-1.06-.01v-.15c0-.42-.12-1.1-.28-1.55-.55-1.6-1.78-2.51-3.4-2.51-.7 0-1.38.2-1.95.58-.27.18-.71.63-.91.93a4.8 4.8 0 0 0-.76 2.4l-.01.29-1.06.01c-.73.01-1.07.03-1.12.05a.69.69 0 0 0-.29.27c-.02.05-.05.16-.06.25a284.5 284.5 0 0 0-.64 6.21 8.25 8.25 0 0 1 7.3-12.86Zm-.1 3.06c.26.03.6.15.84.28.23.13.55.44.73.69.32.47.53 1.12.57 1.79l.02.26H6.99L7 7.08c.03-.52.15-.99.36-1.42a2.3 2.3 0 0 1 1.37-1.24c.38-.13.75-.16 1.15-.1ZM5.84 9.25c0 .72.01.76.06.86.1.2.3.31.53.31.15 0 .36-.12.45-.25l.08-.1v-.79l.01-.78h5.06v.72c0 .82 0 .88.19 1.05.27.25.7.18.87-.15l.07-.13V8.5h1.43l.02.06c.04.2.66 6.51.66 6.75 0 .05-.05.12-.26.3a8.3 8.3 0 0 1-6.42 2.1c-1-.13-1.8-.37-2.72-.82a7.72 7.72 0 0 1-1.77-1.18l-.3-.26-.08-.07.1-1.1c.15-1.65.45-4.6.57-5.65l.02-.13h1.42l.01.75Z"/></svg>