<svg xmlns="http://www.w3.org/2000/svg" width="20" height="20" fill="none"><path fill="#112D2A" d="M5.99.05H3.66c-.34 0-.69 0-1.06.03C2.38.14.2.38.13 2.46l-.03.3c0 .22-.03.44-.03.65v.44C.03 4.49 0 5.15 0 5.79v1.6c0 .6.03 1.2.07 1.78v1.1c0 .44.02.87.03 1.3v1.08c0 .34 0 .7.05 1.04.05.34.05.63.07.94v2.15c-.02.25-.02.5 0 .75v.08a1.79 1.79 0 0 0 1.3 1.76l1.29.11c.42.05 4.55.1 5.06.1h2.37v-.36c0-.12-.25-6.82-.23-7.13v-.31h-.28l-1.9.06v-.3a.32.32 0 0 1-.03-.14.2.2 0 0 1 0-.07v-.25l-.03-.99c0-.22 0-.45-.04-.67.33-.05 2.34-.16 2.34-.16h.15v-.18l-.04-.36v-.04a6.65 6.65 0 0 1-.04-.82c0-.06-.13-2.02.65-2.94a4.27 4.27 0 0 1 1.74-1c.19-.07.35-.1.52-.13l.39-.06h.33c.33-.05.68-.1 1.01-.13h.34c.21 0 .42.01.63.05h.07c0 .44.15 2.28.15 2.28h-1.38c-.18 0-.36.01-.53.05-.17.04-.33.1-.49.16l-.05.02-.1.04a1.38 1.38 0 0 0-.64.68l-.04.06a2 2 0 0 0-.18.6v.04c0 .27-.03.54-.05.82v.15c0 .2.06.4.09.58h.52c.08 0 2.6.13 2.86.12 0 .1-.03.23-.05.34l-.35 2.28v.07H12.6v.55c0 .4.32 6.57.33 6.89v.32h2.16c.5 0 1 0 1.5-.04l.48-.02c.2 0 .39-.05.59-.05 1.63 0 1.68-1.41 1.68-1.41v-.23c0-.17.03-.35.04-.53 0-.35-.12-11.58-.15-11.95-.03-.22-.07-2.6-.07-2.83 0-2.23-1.64-2.3-1.74-2.31h-.36l.1.03C16.85.2 7.28.1 7.1.1 6.82.07 6.54.05 6.25.05h-.26Z"/></svg>