<svg xmlns="http://www.w3.org/2000/svg" width="22" height="20" fill="none"><g fill="#112D2A" clip-path="url(#a)"><path d="M19.54 14.99c-.27 1.32-1.45 2.53-2.82 2.58-.16 0-11.93.44-12.44.3a3.57 3.57 0 0 1-.42-.18 2.9 2.9 0 0 1-.78-.92 5.5 5.5 0 0 1-.36-.94c-.07-.35-.11-.71-.15-1.07l-.14-1.2-.14-1.17c-.04-.39-.4-5.86-.44-6.62.02-.5.08-1 .2-1.5.06-.15.14-.3.23-.43l.3-.36a3.16 3.16 0 0 1 1.18-.6c.36-.07.71-.11 1.07-.13.4 0 .82-.08 1.22-.12.82-.07 1.64-.12 2.46-.13.83 0 1.7-.05 2.55-.08l2.6-.11c.63-.04 1.25-.08 1.87-.06l.68.03c.3 0 .6.04.9.08.2.02.38.05.57.1.1 0 .19.04.28.07.2.07.38.16.56.26l.21.18.17.25c.2.42.37.85.5 1.29.47 3.47.52 7 .14 10.48Zm2.2-9.95a9.29 9.29 0 0 0-.24-1.31 8.34 8.34 0 0 0-.77-1.81 3.47 3.47 0 0 0-.83-.9A4.16 4.16 0 0 0 18.23.3a4.99 4.99 0 0 0-.8-.14 21.14 21.14 0 0 0-3.98-.06l-2.6.14-2.59.14C7.4.4 6.64.49 5.84.59 5.4.64 5.01.7 4.6.74c-.46.04-.92.11-1.37.22-.48.15-.93.37-1.32.67A3.89 3.89 0 0 0 .2 4.31a13.43 13.43 0 0 0-.14 1.32c-.03.52.18 6.55.22 6.94l.29 2.36c.05.48.14.95.26 1.41a7.4 7.4 0 0 0 .73 1.64c.14.22.3.42.47.6.27.3.58.57.92.78.35.2.71.34 1.09.44.14.05.28.1.44.13l.41.07c.28.04 10.95-.07 11.54-.2l.11-.02c.39-.06.77-.14 1.15-.25.31-.12.61-.28.93-.4a4.65 4.65 0 0 0 2.28-2.17c.07-.13.1-.27.16-.4l.21-.45c.55-2.04.6-9.76.46-11.07Z"/><path d="M13.37 11.1c-.1.28-.23.56-.39.82l-.37.48-.38.44c-.21.16-.44.31-.67.44-.23.1-.46.18-.7.24-.3.05-.6.08-.9.08a4.27 4.27 0 0 1-.67-.11c-.23-.09-.44-.2-.68-.3a3.4 3.4 0 0 1-1.25-1.68c-.16-2.34.76-3.08 1.15-3.42a4.85 4.85 0 0 1 1.3-.61c.3-.05.61-.08.92-.08.33.04.65.1.96.2.23.1.45.2.66.34.18.13.35.28.5.44.1.12.19.24.26.37a3.78 3.78 0 0 1 .4 1.67c-.02.22-.07.44-.14.65v.02Zm1.95-2.83a3.78 3.78 0 0 0-1.2-1.76 4.58 4.58 0 0 0-.67-.49 3.86 3.86 0 0 0-1.2-.57 5.23 5.23 0 0 0-3.94.18c-.4.16-.76.37-1.1.6-.41.33-.76.72-1.02 1.16-.2.28-.35.57-.49.88a7.03 7.03 0 0 0-.53 3.39c.06.49.7 3.4 3.72 3.92.42.08.85.14 1.28.16.38 0 .76-.04 1.13-.13a4.8 4.8 0 0 0 1.69-.65 5.27 5.27 0 0 0 1.67-1.6c.51-.7.87-1.5 1.04-2.36.05-.3.06-.6.05-.9a10.25 10.25 0 0 0-.43-1.84ZM17.17 4.15a1.12 1.12 0 0 0-1.32.88c-.05.3.02.59.18.83a1.12 1.12 0 0 0 1.84-1.27 1.12 1.12 0 0 0-.7-.44Z"/></g><defs><clipPath id="a"><path fill="#fff" d="M0 0h21.89v20H0z"/></clipPath></defs></svg>