<svg xmlns="http://www.w3.org/2000/svg" width="30" height="36" fill="none"><path fill="#F8BB71" stroke="#262324" stroke-miterlimit="10" stroke-width="2.05" d="M23.57 1.26S5.17 4.36 9.4 30.08c0 0 12.35 2.98 17.8-11.02 0 0 4.73-11.9-3.63-17.8Z"/><path fill="#262324" d="M.96 36a.98.98 0 0 1-.96-.96c0-.44.29-.8.7-.91.8-.2 19.77-5.5 21.83-31.96a1 1 0 0 1 .98-.94 1 1 0 0 1 .94 1v.07c-1.12 14.52-7.35 22.9-12.37 27.36-5.48 4.86-10.65 6.26-10.86 6.31L.96 36Z"/><path fill="#262324" d="M10.86 31.6c-2 0-2.18-.54-2.29-.87-.1-.34-3.35-10.58 1.23-19.62C12.42 5.9 17.05 2.22 23.57.07c2.36-.78 4.93 5.63 4.96 5.71 2.23 5.98.88 14.14-3.22 19.44-1.56 2-3.59 3.6-5.9 4.65-1.4.62-2.91 1.06-4.44 1.32-1.35.24-2.73.4-4.1.42Zm-.6-1.94c1.48-.03 2.94-.16 4.4-.36a13.97 13.97 0 0 0 9.12-5.27c3.74-4.82 4.96-12.2 2.93-17.6-.39-1.04-2-4-2.75-4.5-8.45 2.81-13.3 8.35-14.45 16.48-.7 5.14.36 9.8.75 11.25Z"/></svg>