<svg xmlns="http://www.w3.org/2000/svg" width="18" height="18" fill="none"><path fill="#112D2A" d="M6.07.04a7.23 7.23 0 0 0-4.8 2.93 8.65 8.65 0 0 0-.94 1.89A5.9 5.9 0 0 0 .02 7.1c0 .83.01 1 .09 1.35a7.04 7.04 0 0 0 11.11 4.32l.35-.25 1 .98 2.68 2.68c.92.94 1.73 1.73 1.79 1.77.16.08.5.07.65-.04.21-.14.31-.32.31-.56a.9.9 0 0 0-.04-.3c-.03-.05-1.26-1.31-2.74-2.8l-2.69-2.73.25-.35A7.1 7.1 0 0 0 8.4.11 12.21 12.21 0 0 0 6.07.04Zm2.01 1.39A5.5 5.5 0 0 1 11.06 3a5.66 5.66 0 0 1-4.93 9.57A5.52 5.52 0 0 1 3.14 11 5.54 5.54 0 0 1 1.8 5.13a5.64 5.64 0 0 1 6.3-3.7Z"/></svg>