<svg xmlns="http://www.w3.org/2000/svg" width="27" height="29" fill="none"><g clip-path="url(#a)"><path fill="#262324" d="M0 16.8c.48-.41.93-.43 1.38-.47 4.6-.54 7.8-3 9.84-7.06.95-1.9 1.43-3.94 1.8-6.01.22-1.12.22-2.25.57-3.26.09.34.23.76.26 1.22.15 2.64.76 5.21 1.47 7.76a6.88 6.88 0 0 0 4.78 4.88c1.24.4 2.5.77 3.8.93.93.13 1.85.38 3 .62l-3.09.66c-1.01.2-2 .51-2.97.88a8.9 8.9 0 0 0-4.99 4.49 21.76 21.76 0 0 0-1.97 5.95l-.33 1.62c-.48-1.59-.9-2.97-1.34-4.36-.2-.64-.4-1.29-.66-1.9a6.82 6.82 0 0 0-3.18-3.52 18.79 18.79 0 0 0-4.94-1.78c-1.09-.24-2.19-.42-3.43-.66Zm3.97-.16c1.32.4 2.6.85 3.85 1.34a8.54 8.54 0 0 1 5.22 5.45l.44 1.2c.18-.48.3-.76.4-1.06.4-1.1.86-2.15 1.44-3.17a9.2 9.2 0 0 1 4.03-3.84c.61-.3 1.25-.54 1.87-.79.28-.1.62-.12.8-.43-.66-.13-1.33-.22-1.96-.4a7.9 7.9 0 0 1-5.52-4.91c-.31-.8-.52-1.63-.66-2.47-.09-.43-.13-.88-.41-1.4a20.78 20.78 0 0 1-1.9 4.5 13.81 13.81 0 0 1-3.33 3.67c-1.28 1-2.76 1.62-4.27 2.3Z"/><path fill="#F8BB71" d="M3.97 16.64c1.5-.69 2.99-1.3 4.27-2.3a14.25 14.25 0 0 0 3.34-3.67 20.24 20.24 0 0 0 1.87-4.49c.29.52.34.97.41 1.4.16.84.36 1.66.67 2.46a7.9 7.9 0 0 0 5.51 4.9c.64.19 1.3.27 1.97.41-.19.31-.53.32-.8.44-.63.25-1.26.49-1.87.78a9.13 9.13 0 0 0-4.04 3.84 22.14 22.14 0 0 0-1.44 3.18c-.1.3-.22.57-.4 1.05-.18-.5-.32-.86-.43-1.2A8.54 8.54 0 0 0 7.8 18c-1.25-.5-2.52-.96-3.84-1.36Z"/></g><defs><clipPath id="a"><path fill="#fff" d="M0 0h26.89v29H0z"/></clipPath></defs></svg>