<svg xmlns="http://www.w3.org/2000/svg" width="51" height="55" fill="none"><g clip-path="url(#a)"><path fill="#262324" d="M0 31.85c.91-.77 1.77-.8 2.62-.88 8.73-1.03 14.8-5.7 18.66-13.39 1.8-3.6 2.7-7.48 3.43-11.4.4-2.12.4-4.27 1.07-6.18.16.64.43 1.43.48 2.3.3 5.02 1.45 9.9 2.79 14.73 1.3 4.64 4.39 7.74 9.07 9.25 2.36.77 4.74 1.46 7.2 1.78 1.77.24 3.51.71 5.68 1.16-2.2.48-4.02.88-5.84 1.25-1.92.37-3.8.98-5.64 1.67a16.87 16.87 0 0 0-9.46 8.51 41.27 41.27 0 0 0-3.74 11.3c-.16.9-.35 1.78-.62 3.08-.9-3.03-1.71-5.65-2.54-8.28a41.03 41.03 0 0 0-1.26-3.6 12.94 12.94 0 0 0-6.02-6.69A35.62 35.62 0 0 0 6.5 33.1c-2.07-.46-4.15-.8-6.51-1.25Zm7.52-.3c2.52.78 4.93 1.62 7.31 2.55 4.9 1.94 8.25 5.36 9.9 10.35.22.66.49 1.3.84 2.25.34-.9.56-1.43.75-1.99.75-2.1 1.63-4.08 2.73-6.02 1.8-3.2 4.33-5.65 7.65-7.3 1.16-.55 2.36-1 3.54-1.48.53-.2 1.18-.24 1.52-.82-1.25-.24-2.51-.42-3.72-.77-5-1.4-8.56-4.45-10.47-9.3a23.6 23.6 0 0 1-1.25-4.67c-.16-.83-.24-1.67-.78-2.66-.99 3.08-2 5.95-3.59 8.54a26.2 26.2 0 0 1-6.32 6.95c-2.43 1.91-5.24 3.08-8.1 4.38Z"/><path fill="#F8BB71" d="M7.52 31.56c2.87-1.3 5.68-2.47 8.11-4.38a27.03 27.03 0 0 0 6.32-6.95c1.58-2.6 2.6-5.46 3.56-8.5.54.97.65 1.82.78 2.64.3 1.6.67 3.16 1.26 4.67 1.9 4.85 5.46 7.9 10.47 9.3 1.2.35 2.46.51 3.72.78-.35.58-1 .6-1.53.82-1.18.48-2.38.93-3.53 1.48a17.32 17.32 0 0 0-7.66 7.3 42 42 0 0 0-2.73 6.02c-.19.55-.43 1.08-.75 1.99-.35-.96-.62-1.62-.83-2.26-1.66-4.98-5-8.4-9.9-10.34a87 87 0 0 0-7.29-2.57Z"/></g><defs><clipPath id="a"><path fill="#fff" d="M0 0h51v55H0z"/></clipPath></defs></svg>