<svg xmlns="http://www.w3.org/2000/svg" width="81" height="14" fill="none"><path fill="#112D2A" d="M69.47 13.25a.73.73 0 0 1-.29-.75l.88-3.89L67.07 6a.73.73 0 0 1 .42-1.28l3.96-.35L73 .69a.73.73 0 0 1 1.34 0l1.56 3.67 3.96.35A.73.73 0 0 1 80.3 6l-3 2.62.89 3.9a.73.73 0 0 1-1.09.78l-3.41-2.04-3.41 2.04a.73.73 0 0 1-.8-.04Zm-16.5 0a.73.73 0 0 1-.28-.75l.88-3.89L50.58 6A.73.73 0 0 1 51 4.7l3.95-.35L56.52.69a.73.73 0 0 1 1.34 0l1.56 3.67 3.96.35A.73.73 0 0 1 63.8 6L60.8 8.6l.88 3.9a.73.73 0 0 1-1.08.78l-3.41-2.04-3.42 2.04a.73.73 0 0 1-.8-.04Zm-16.49 0a.73.73 0 0 1-.28-.75l.88-3.89-3-2.62a.73.73 0 0 1 .42-1.28l3.96-.35L40.03.69a.73.73 0 0 1 1.34 0l1.56 3.67 3.96.35a.73.73 0 0 1 .64.92.73.73 0 0 1-.23.36L44.31 8.6l.88 3.9a.73.73 0 0 1-1.08.78l-3.41-2.04-3.42 2.04a.73.73 0 0 1-.8-.04Zm-16.49 0a.73.73 0 0 1-.28-.75l.88-3.89-3-2.62a.73.73 0 0 1 .42-1.28l3.96-.35L23.54.69a.73.73 0 0 1 1.33 0l1.57 3.67 3.96.35A.73.73 0 0 1 30.8 6L27.82 8.6l.88 3.9a.73.73 0 0 1-1.08.78l-3.42-2.04-3.41 2.04a.73.73 0 0 1-.8-.04Zm-16.5 0a.73.73 0 0 1-.27-.75l.88-3.89L1.1 6a.73.73 0 0 1 .42-1.28l3.96-.35L7.04.69a.73.73 0 0 1 1.34 0l1.57 3.67 3.96.35A.73.73 0 0 1 14.3 6L11.34 8.6l.88 3.9a.73.73 0 0 1-1.09.78l-3.4-2.04-3.42 2.04a.73.73 0 0 1-.8-.04Z"/></svg>