<svg width="20" height="20" viewBox="0 0 20 20" fill="none" xmlns="http://www.w3.org/2000/svg">
<path d="M5.98772 0.0507812H3.66351C3.3207 0.0507812 2.97333 0.0507812 2.60175 0.0834128C2.37719 0.144816 0.19614 0.382009 0.130526 2.4564C0.130526 2.55885 0.105965 2.65639 0.0978947 2.75885C0.0978947 2.97534 0.0733333 3.19569 0.0652632 3.41218V3.84517C0.031886 4.49279 0.0101281 5.14097 0 5.78938V7.38657C0 7.98306 0.0284211 8.58306 0.0652632 9.16727V10.262C0.0652632 10.7069 0.0898246 11.1357 0.0978947 11.5606V12.6511C0.0978947 12.9901 0.0978947 13.3459 0.147018 13.6887C0.19614 14.0318 0.2 14.3178 0.220702 14.628V16.7806C0.20386 17.0297 0.20386 17.2789 0.220702 17.528V17.6136C0.212066 18.0088 0.334901 18.3958 0.569929 18.7137C0.804958 19.0316 1.13888 19.2625 1.5193 19.3701C1.94897 19.3988 2.37796 19.4369 2.80596 19.4845C3.23053 19.5294 7.35579 19.5743 7.87053 19.5743H10.2396V19.2189C10.2396 19.1006 9.99439 12.3978 10.0067 12.0876V11.7771H9.73298L7.82561 11.8385V11.5445C7.80586 11.498 7.79744 11.4475 7.80105 11.3971C7.79755 11.3755 7.79755 11.3534 7.80105 11.3318V11.0789C7.78195 10.751 7.77107 10.4227 7.76842 10.0943C7.76842 9.86973 7.76842 9.64096 7.72772 9.41639C8.06246 9.36727 10.0719 9.2571 10.0719 9.2571H10.2193V9.07745L10.1782 8.7178V8.6771C10.1492 8.40583 10.1369 8.13303 10.1414 7.86025C10.1414 7.79885 10.0067 5.84271 10.7909 4.92341C10.9628 4.74618 11.1562 4.59117 11.3667 4.46201C11.5604 4.33688 11.764 4.22763 11.9754 4.13534C12.1589 4.05895 12.3441 3.98677 12.5309 3.91885C12.7186 3.84938 12.8782 3.82903 13.0537 3.79218C13.2291 3.75534 13.307 3.74727 13.4375 3.73078L13.6621 3.72692H13.7726C14.1035 3.6778 14.4463 3.62482 14.7814 3.60025H15.1204C15.3323 3.59815 15.5442 3.61464 15.7533 3.64938H15.8228C15.8228 4.08622 15.966 5.92832 15.966 5.92832H14.5891C14.411 5.92843 14.2333 5.94488 14.0582 5.97745C13.8915 6.01702 13.7288 6.07163 13.5719 6.14061L13.5189 6.16096L13.4126 6.20201C13.3179 6.25008 13.2284 6.30903 13.1474 6.37745C12.986 6.51218 12.8586 6.68271 12.7754 6.87569L12.7428 6.94131C12.7011 7.02832 12.6656 7.1185 12.6368 7.21078C12.6046 7.31678 12.5786 7.42457 12.5589 7.53359V7.5785C12.5589 7.84797 12.5305 8.11745 12.514 8.39534V8.55464C12.514 8.75078 12.5674 8.94271 12.5958 9.13464H13.1228C13.2046 9.13464 15.7203 9.26096 15.9818 9.24903C15.9818 9.3592 15.9491 9.4778 15.9326 9.59218C15.9165 9.70622 15.5979 11.7648 15.5775 11.8669V11.9445H12.6042V12.488C12.6042 12.8964 12.9186 19.0599 12.9347 19.3781V19.7048H15.0916C15.5937 19.7048 16.0961 19.7048 16.5863 19.6641L17.0723 19.6396C17.2723 19.6396 17.4604 19.5904 17.6565 19.5946C19.2902 19.5946 19.3351 18.1771 19.3351 18.1771V17.9525C19.3351 17.7771 19.3719 17.5974 19.3761 17.4178C19.3761 17.0746 19.2618 5.8385 19.2288 5.47499C19.2042 5.24622 19.1551 2.87324 19.1551 2.64447C19.1551 0.41429 17.5218 0.332536 17.4196 0.328676H17.0642L17.154 0.357097C16.8558 0.21429 7.29439 0.107974 7.11053 0.0956935C6.82405 0.0684054 6.53653 0.0534209 6.24877 0.0507812H5.98737H5.98772Z" fill="#112D2A"/>
</svg>
