<svg width="22" height="20" viewBox="0 0 22 20" fill="none" xmlns="http://www.w3.org/2000/svg">
<g clip-path="url(#clip0_1063_544)">
<path d="M19.5353 14.9884C19.2673 16.3061 18.09 17.5227 16.7153 17.571C16.5568 17.571 4.78923 18.0102 4.27527 17.8744C4.13224 17.8204 3.99284 17.7572 3.85791 17.6853C3.72867 17.5844 3.60824 17.4727 3.49791 17.3514C3.41867 17.2635 3.34395 17.1714 3.27376 17.0793C3.20365 16.9789 3.13915 16.8747 3.08055 16.7672C2.93078 16.467 2.80876 16.1538 2.71602 15.8314C2.64546 15.4759 2.60621 15.1201 2.56659 14.7597C2.52697 14.3997 2.46999 13.9778 2.42584 13.565C2.38532 13.1736 2.34142 12.7827 2.29414 12.3921C2.24584 12.0012 1.88131 6.53251 1.85489 5.77251C1.86848 5.26798 1.93301 4.76609 2.0481 4.27439C2.11338 4.1227 2.18961 3.9759 2.2764 3.83515C2.37074 3.70836 2.47338 3.58798 2.58395 3.47515C2.80433 3.30911 3.03791 3.16232 3.28244 3.0359C3.43867 2.96722 3.60017 2.91138 3.76546 2.86873C4.1174 2.80836 4.47241 2.76742 4.82885 2.74609C5.23716 2.74609 5.64583 2.67138 6.05414 2.63175C6.87209 2.55617 7.69275 2.51362 8.51414 2.50421C9.33564 2.49553 10.2141 2.45138 11.0621 2.41666C11.9096 2.38119 12.7972 2.35062 13.6666 2.30685C14.2862 2.27137 14.91 2.2276 15.5292 2.24534L16.21 2.2759C16.513 2.2759 16.8164 2.32421 17.1194 2.36383C17.307 2.38232 17.493 2.41175 17.6772 2.45175C17.7738 2.45175 17.8704 2.50005 17.9628 2.531C18.1545 2.60345 18.3409 2.69024 18.5205 2.78987C18.5949 2.84664 18.6653 2.90828 18.7315 2.97439C18.7919 3.05439 18.8477 3.13779 18.8983 3.22458C19.1021 3.63628 19.2681 4.06571 19.3949 4.5076C19.8736 7.98204 19.9208 11.5023 19.5353 14.9884ZM21.7315 5.04345C21.6857 4.59905 21.6079 4.15854 21.4987 3.72534C21.3804 3.33448 21.2336 2.95282 21.0594 2.58345C20.9624 2.35548 20.8509 2.13391 20.7258 1.92005C20.5889 1.70228 20.4282 1.50041 20.2466 1.31817C20.141 1.20724 20.0233 1.1085 19.8956 1.02383C19.6792 0.867453 19.4482 0.73224 19.2058 0.620054C18.8894 0.489818 18.5651 0.379662 18.2349 0.290243C17.9684 0.220987 17.6967 0.173908 17.4224 0.149488C16.9262 0.0883562 16.4209 0.0706204 15.9156 0.0487336C15.0912 0.0151846 14.2655 0.0299268 13.4428 0.0928845L10.8421 0.228734C9.96357 0.27779 9.12017 0.3393 8.2598 0.369488C7.39866 0.400432 6.64319 0.487979 5.84395 0.589111C5.4047 0.641941 5.01376 0.703451 4.59187 0.738545C4.12857 0.777756 3.66898 0.852569 3.21716 0.962319C2.74093 1.10571 2.29451 1.33326 1.89904 1.63439C1.44332 1.93496 1.056 2.32814 0.762319 2.78833C0.468636 3.24852 0.275169 3.76541 0.194515 4.30534C0.163572 4.50307 0.137534 4.70534 0.11527 4.90722C0.0916969 5.14826 0.0740815 5.38984 0.0624398 5.63175C0.0277228 6.14571 0.238289 12.1812 0.28244 12.5676C0.369987 13.354 0.466968 14.145 0.567723 14.931C0.623572 15.4065 0.709987 15.8774 0.826968 16.3412C0.917911 16.6797 1.04319 17.0076 1.20055 17.3208C1.30923 17.548 1.42923 17.7691 1.56055 17.9842C1.69904 18.197 1.8564 18.397 2.03074 18.5816C2.29813 18.886 2.60888 19.1495 2.95301 19.3635C3.2964 19.5521 3.66017 19.6993 4.03791 19.8027C4.17867 19.8465 4.32357 19.8948 4.47716 19.9257L4.89451 20.0004C5.1715 20.0442 15.8368 19.9299 16.4341 19.8027L16.5436 19.7763C16.9297 19.7214 17.3114 19.6392 17.6858 19.5302C18.0024 19.4118 18.3009 19.2491 18.6172 19.1216C19.2704 18.831 19.8473 18.3936 20.3039 17.8435C20.3919 17.7438 20.4726 17.6382 20.5455 17.5272C20.6764 17.3461 20.7953 17.157 20.9013 16.9604C20.9673 16.8287 21.007 16.6884 21.0639 16.5521C21.1402 16.4091 21.2092 16.2627 21.2704 16.1129C21.8194 14.0744 21.8677 6.35213 21.7315 5.04345Z" fill="#112D2A"/>
<path d="M13.3729 11.0919C13.2687 11.3787 13.1378 11.6553 12.9819 11.9179C12.8635 12.0802 12.7359 12.2387 12.6084 12.4009C12.4812 12.5636 12.3627 12.6998 12.2265 12.8402C12.0152 13.0036 11.7925 13.1507 11.5585 13.2794C11.3344 13.3783 11.1023 13.4575 10.8646 13.5168C10.5635 13.5745 10.2578 13.6036 9.951 13.6047C9.7272 13.5841 9.50538 13.5459 9.2876 13.4904C9.0593 13.4024 8.84836 13.2972 8.60685 13.196C8.0233 12.7778 7.5867 12.186 7.3593 11.5051C7.19704 9.17263 8.12383 8.42999 8.50572 8.08735C8.63628 7.99867 8.77138 7.91678 8.90987 7.84131C9.19832 7.69246 9.49984 7.57044 9.81062 7.47678C10.1155 7.42625 10.4239 7.39975 10.7329 7.39754C11.0574 7.43829 11.3782 7.50735 11.6906 7.60433C11.9199 7.69404 12.1392 7.80735 12.345 7.94244C12.5299 8.07263 12.7016 8.2198 12.8589 8.38169C12.9514 8.49678 13.0352 8.61867 13.1095 8.74621C13.254 9.08395 13.3687 9.43376 13.4518 9.7915C13.4914 9.99904 13.5133 10.2092 13.5178 10.4198C13.4876 10.6417 13.4385 10.8606 13.3729 11.0745V11.0919ZM15.3189 8.26772C15.1783 7.84052 14.9626 7.44183 14.6819 7.09037C14.5145 6.8814 14.3293 6.68734 14.1284 6.51037C13.9181 6.3276 13.6917 6.16441 13.4518 6.02282C13.3159 5.93074 13.1751 5.84735 13.0348 5.7681C12.7836 5.63385 12.5183 5.52779 12.2438 5.45188C11.8944 5.33112 11.534 5.24433 11.1676 5.19263C10.1906 5.06621 9.1977 5.21848 8.30345 5.63188C7.91741 5.79489 7.54911 5.99791 7.20534 6.23829C6.79922 6.5575 6.45406 6.9474 6.18647 7.38923C5.99779 7.66584 5.83628 7.96018 5.70345 8.26772C5.2487 9.33673 5.06602 10.5018 5.17175 11.6587C5.23326 12.1462 5.86156 15.0587 8.89251 15.5768C9.31213 15.6624 9.73817 15.7153 10.1661 15.7353C10.5489 15.7404 10.931 15.6989 11.3038 15.6119C11.6023 15.5553 11.8963 15.476 12.1823 15.3749C12.464 15.2644 12.7347 15.1276 12.9906 14.9662C13.3429 14.7519 13.6687 14.4969 13.9616 14.2066C14.213 13.9441 14.4449 13.6636 14.6555 13.3673C15.1737 12.6667 15.5294 11.8595 15.6967 11.0043C15.7468 10.707 15.7646 10.4047 15.7495 10.1036C15.7302 9.91112 15.6967 9.72018 15.6484 9.53263C15.5604 9.09791 15.4552 8.66735 15.3189 8.26772Z" fill="#112D2A"/>
<path d="M17.172 4.15136C17.0277 4.12197 16.8791 4.12143 16.7346 4.14976C16.5901 4.17809 16.4526 4.23474 16.3302 4.31644C16.2077 4.39813 16.1025 4.50326 16.0209 4.62577C15.9392 4.74827 15.8826 4.88573 15.8543 5.03022C15.8045 5.32079 15.8694 5.62004 16.0343 5.86456C16.1605 6.04485 16.3372 6.18378 16.5422 6.26388C16.7472 6.34398 16.9713 6.36167 17.1864 6.31472C17.4014 6.26777 17.5977 6.15828 17.7507 6.00002C17.9036 5.84177 18.0064 5.64182 18.046 5.42532C18.0956 5.1344 18.0311 4.83556 17.866 4.59098C17.6989 4.3613 17.4506 4.20395 17.1716 4.15098L17.172 4.15136Z" fill="#112D2A"/>
</g>
<defs>
<clipPath id="clip0_1063_544">
<rect width="21.8868" height="20" fill="white"/>
</clipPath>
</defs>
</svg>
