<svg width="30" height="36" viewBox="0 0 30 36" fill="none" xmlns="http://www.w3.org/2000/svg">
<path d="M23.5654 1.26074C23.5654 1.26074 5.16951 4.35271 9.40472 30.0758C9.40472 30.0758 21.7466 33.0638 27.203 19.059C27.203 19.059 31.9319 7.15886 23.5654 1.26074Z" fill="#F8BB71" stroke="#262324" stroke-width="2.04745" stroke-miterlimit="10"/>
<path d="M0.961369 35.9997C0.441711 35.9997 0 35.558 0 35.0384C0 34.5967 0.285813 34.2329 0.70154 34.129C1.50701 33.9211 20.4745 28.6206 22.5272 2.17C22.5532 1.65035 22.9949 1.23462 23.5145 1.23462C24.0342 1.2606 24.4499 1.70231 24.4499 2.22197C24.4499 2.24795 24.4499 2.27393 24.4499 2.29992C23.3326 16.8244 17.0967 25.1909 12.082 29.6599C6.59966 34.5187 1.42906 35.9218 1.2212 35.9738C1.14325 35.9738 1.03932 35.9997 0.961369 35.9997Z" fill="#262324"/>
<path d="M10.8611 31.6089C8.86042 31.6089 8.67854 31.0633 8.57461 30.7255C8.47068 30.3877 5.22281 20.1504 9.7958 11.1084C12.4201 5.9118 17.045 2.22223 23.5667 0.0656485C25.9312 -0.713839 28.5035 5.70394 28.5295 5.78189C30.764 11.758 29.4129 19.9166 25.3076 25.2171C23.7486 27.2178 21.722 28.8287 19.4095 29.868C18.0064 30.4916 16.4994 30.9333 14.9664 31.1932C13.6153 31.427 12.2382 31.5829 10.8611 31.6089ZM10.2635 29.6602C11.7445 29.6342 13.1996 29.5043 14.6546 29.2964C16.0317 29.0886 17.3568 28.6988 18.604 28.1272C20.6307 27.1918 22.3975 25.7887 23.7746 24.0219C27.5161 19.215 28.7373 11.8359 26.7107 6.43146C26.3209 5.39215 24.71 2.43009 23.9565 1.93642C15.512 4.74257 10.6532 10.2769 9.50999 18.4096C8.80846 23.5542 9.87375 28.2051 10.2635 29.6602Z" fill="#262324"/>
</svg>
