<svg width="81" height="14" viewBox="0 0 81 14" fill="none" xmlns="http://www.w3.org/2000/svg">
<path d="M69.466 13.2541C69.3502 13.1703 69.2615 13.0543 69.2109 12.9205C69.1604 12.7866 69.1502 12.641 69.1817 12.5014L70.0642 8.61358L67.072 5.98816C66.9649 5.89378 66.8878 5.76998 66.8501 5.63222C66.8124 5.49446 66.8158 5.34872 66.86 5.2129C66.9044 5.07751 66.9874 4.95798 67.0987 4.86912C67.21 4.78026 67.3448 4.72593 67.4866 4.71271L71.4454 4.35706L73.0102 0.692177C73.066 0.56086 73.1593 0.448865 73.2783 0.37024C73.3973 0.291614 73.5369 0.249784 73.6795 0.250002C73.8222 0.249859 73.9619 0.291783 74.0811 0.370384C74.2003 0.448986 74.2938 0.560858 74.3499 0.692177L75.9147 4.35706L79.8735 4.71271C80.0154 4.72563 80.1504 4.77992 80.2618 4.86883C80.3731 4.95773 80.456 5.07735 80.5001 5.2129C80.5443 5.34872 80.5478 5.49446 80.5101 5.63222C80.4724 5.76998 80.3952 5.89378 80.2881 5.98816L77.2959 8.61358L78.1784 12.5014C78.2099 12.641 78.1998 12.7866 78.1492 12.9205C78.0987 13.0543 78.01 13.1703 77.8941 13.2541C77.7786 13.3378 77.641 13.3858 77.4985 13.3921C77.3559 13.3985 77.2147 13.3627 77.0922 13.2896L73.6795 11.2474L70.2668 13.2872C70.1539 13.3545 70.025 13.3902 69.8937 13.3904C69.7403 13.3913 69.5906 13.3436 69.466 13.2541ZM52.9735 13.2541C52.8577 13.1703 52.7692 13.0541 52.7188 12.9203C52.6685 12.7865 52.6586 12.6408 52.6904 12.5014L53.5729 8.61358L50.5807 5.98816C50.4735 5.89387 50.3962 5.77015 50.3585 5.63236C50.3208 5.49457 50.3244 5.3487 50.3687 5.2129C50.4129 5.07743 50.4958 4.95786 50.6072 4.86897C50.7186 4.78009 50.8535 4.72578 50.9953 4.71271L54.9541 4.35706L56.5189 0.692177C56.5747 0.56086 56.668 0.448865 56.787 0.37024C56.906 0.291614 57.0455 0.249784 57.1881 0.250002C57.3309 0.249859 57.4705 0.291783 57.5897 0.370384C57.7089 0.448986 57.8024 0.560858 57.8586 0.692177L59.4234 4.35706L63.381 4.71271C63.5229 4.72563 63.6579 4.77992 63.7692 4.86883C63.8806 4.95773 63.9635 5.07735 64.0076 5.2129C64.0516 5.34883 64.0549 5.49474 64.017 5.63251C63.9791 5.77027 63.9017 5.89392 63.7944 5.98816L60.8034 8.61358L61.6847 12.5014C61.7165 12.6408 61.7066 12.7865 61.6563 12.9203C61.6059 13.0541 61.5174 13.1703 61.4016 13.2541C61.286 13.3378 61.1485 13.3858 61.0059 13.3921C60.8634 13.3985 60.7222 13.3627 60.5997 13.2896L57.187 11.2474L53.7743 13.2872C53.661 13.3547 53.5317 13.3904 53.3999 13.3904C53.247 13.3909 53.0978 13.3432 52.9735 13.2541ZM36.4822 13.2541C36.3664 13.1703 36.2778 13.0541 36.2275 12.9203C36.1772 12.7865 36.1673 12.6408 36.1991 12.5014L37.0804 8.61358L34.0894 5.98816C33.982 5.89392 33.9046 5.77027 33.8667 5.63251C33.8289 5.49474 33.8321 5.34883 33.8761 5.2129C33.9207 5.07759 34.0037 4.95825 34.115 4.86941C34.2263 4.78057 34.361 4.72608 34.5028 4.71271L38.4616 4.35706L40.0263 0.692177C40.0824 0.560766 40.1759 0.448716 40.2951 0.370095C40.4143 0.291474 40.554 0.249705 40.6968 0.250002C40.8396 0.249859 40.9792 0.291783 41.0984 0.370384C41.2176 0.448986 41.3111 0.560858 41.3673 0.692177L42.9309 4.35706L46.8896 4.71271C47.0316 4.72548 47.1666 4.77976 47.278 4.86868C47.3894 4.95761 47.4723 5.07727 47.5163 5.2129C47.5606 5.3487 47.5641 5.49457 47.5264 5.63236C47.4887 5.77015 47.4115 5.89387 47.3042 5.98816L44.3121 8.61358L45.1945 12.5014C45.2262 12.6408 45.2162 12.7865 45.1659 12.9203C45.1156 13.0541 45.0271 13.1702 44.9114 13.2541C44.7959 13.3378 44.6583 13.3858 44.5158 13.3921C44.3733 13.3985 44.232 13.3627 44.1095 13.2896L40.6968 11.2474L37.2829 13.2872C37.17 13.3544 37.0411 13.39 36.9098 13.3904C36.756 13.3915 36.6059 13.3438 36.481 13.2541H36.4822ZM19.9908 13.2541C19.875 13.1703 19.7863 13.0543 19.7357 12.9205C19.6852 12.7866 19.675 12.641 19.7065 12.5014L20.589 8.61358L17.5968 5.98816C17.4897 5.89378 17.4126 5.76998 17.3749 5.63222C17.3372 5.49446 17.3406 5.34872 17.3848 5.2129C17.4292 5.07751 17.5122 4.95798 17.6235 4.86912C17.7348 4.78026 17.8696 4.72593 18.0114 4.71271L21.9702 4.35706L23.535 0.692177C23.5908 0.56086 23.6841 0.448865 23.8031 0.37024C23.9221 0.291614 24.0617 0.249784 24.2043 0.250002C24.347 0.249859 24.4867 0.291783 24.6059 0.370384C24.7251 0.448986 24.8186 0.560858 24.8747 0.692177L26.4395 4.35706L30.3983 4.71271C30.5402 4.72563 30.6752 4.77992 30.7866 4.86883C30.8979 4.95773 30.9808 5.07735 31.0249 5.2129C31.0691 5.34872 31.0725 5.49446 31.0349 5.63222C30.9972 5.76998 30.92 5.89378 30.8129 5.98816L27.8207 8.61358L28.7032 12.5014C28.7347 12.641 28.7246 12.7866 28.674 12.9205C28.6235 13.0543 28.5348 13.1703 28.4189 13.2541C28.3034 13.3378 28.1658 13.3858 28.0233 13.3921C27.8807 13.3985 27.7395 13.3627 27.617 13.2896L24.2043 11.2474L20.7904 13.2872C20.6775 13.3545 20.5486 13.3902 20.4173 13.3904C20.2639 13.3913 20.1142 13.3436 19.9896 13.2541H19.9908ZM3.49831 13.2541C3.38254 13.1703 3.29397 13.0541 3.24364 12.9203C3.1933 12.7865 3.18341 12.6408 3.21519 12.5014L4.09769 8.61358L1.10551 5.98816C0.998255 5.89387 0.920995 5.77015 0.883306 5.63236C0.845617 5.49457 0.849154 5.3487 0.893473 5.2129C0.937732 5.07743 1.02065 4.95786 1.132 4.86897C1.24335 4.78009 1.37826 4.72578 1.5201 4.71271L5.47887 4.35706L7.04367 0.692177C7.0995 0.56086 7.19275 0.448865 7.31178 0.37024C7.4308 0.291614 7.57032 0.249784 7.71294 0.250002C7.85569 0.249859 7.99534 0.291783 8.11454 0.370384C8.23373 0.448986 8.32722 0.560858 8.3834 0.692177L9.94819 4.35706L13.9058 4.71271C14.0477 4.72563 14.1827 4.77992 14.294 4.86883C14.4054 4.95773 14.4883 5.07735 14.5324 5.2129C14.5764 5.34883 14.5797 5.49474 14.5418 5.63251C14.5039 5.77027 14.4265 5.89392 14.3192 5.98816L11.3282 8.61358L12.2095 12.5014C12.2413 12.6408 12.2314 12.7865 12.1811 12.9203C12.1307 13.0541 12.0422 13.1703 11.9264 13.2541C11.8108 13.3378 11.6733 13.3858 11.5307 13.3921C11.3882 13.3985 11.247 13.3627 11.1245 13.2896L7.71176 11.2474L4.29788 13.2872C4.185 13.3545 4.05611 13.3902 3.92474 13.3904C3.77142 13.3911 3.62177 13.3434 3.49712 13.2541H3.49831Z" fill="#112D2A"/>
</svg>
