<svg width="1900" height="41" viewBox="0 0 1900 41" fill="none" xmlns="http://www.w3.org/2000/svg">
<path fill-rule="evenodd" clip-rule="evenodd" d="M0 28.0846H45.9167C90.25 28.0846 180.5 28.0846 270.75 22.3768C362.583 16.669 452.833 5.25334 543.083 10.9611C633.333 16.669 723.583 39.5002 813.833 40.9272C904.083 42.3541 995.917 22.3768 1086.17 19.5229C1176.42 16.669 1266.67 30.9385 1356.92 30.9385C1447.17 30.9385 1537.42 16.669 1629.25 12.3881C1719.5 8.10724 1809.75 13.8151 1854.08 16.669L1900 19.5229V0H1854.08C1809.75 0 1719.5 0 1629.25 0C1537.42 0 1447.17 0 1356.92 0C1266.67 0 1176.42 0 1086.17 0C995.917 0 904.083 0 813.833 0C723.583 0 543.083 0 543.083 0C543.083 0 362.583 0 270.75 0C180.5 0 90.25 0 45.9167 0H0V28.0846Z" fill="white"/>
</svg>
