<svg width="375" height="13" viewBox="0 0 375 13" fill="none" xmlns="http://www.w3.org/2000/svg">
<path d="M0 5.26629V0H375V5.69116C371.331 6.01913 367.667 6.36319 364.009 6.7068C347.44 8.26292 330.971 9.80976 314.501 9.80976C301.697 9.80976 288.894 8.87495 276.091 7.94014C260.727 6.81837 245.362 5.6966 229.998 6.19018C217.494 6.59187 204.893 8.06349 192.281 9.53637C176.482 11.3814 160.665 13.2285 145.002 12.9769C129.353 12.7255 113.704 10.3795 98.0559 8.03349C85.537 6.15666 73.0181 4.27984 60.4992 3.47549C40.3927 2.18362 20.2862 3.65823 0 5.26629Z" fill="white"/>
</svg>
