<svg width="1900" height="40" viewBox="0 0 1900 40" fill="none" xmlns="http://www.w3.org/2000/svg">
<path fill-rule="evenodd" clip-rule="evenodd" d="M0 0L79.1667 4.7619C158.333 9.52381 316.667 19.0476 475 22.8571C633.333 26.6667 791.667 24.7619 950 19.0476C1108.33 13.3333 1266.67 3.80952 1425 3.80952C1583.33 3.80952 1741.67 13.3333 1820.83 18.0952L1900 22.8571V40H1820.83C1741.67 40 1583.33 40 1425 40C1266.67 40 1108.33 40 950 40C791.667 40 633.333 40 475 40C316.667 40 158.333 40 79.1667 40H0V0Z" fill="white"/>
</svg>
