<svg width="1900" height="64" viewBox="0 0 1900 64" fill="none" xmlns="http://www.w3.org/2000/svg">
<path fill-rule="evenodd" clip-rule="evenodd" d="M0 0L79.1667 4.03636C158.333 8.07272 316.667 36.1455 475 36.1455C633.333 36.1455 791.667 -1.92728 950 10.1818C1108.33 22.2909 1266.67 54.5818 1425 58.6182C1583.33 62.6545 1741.67 38.4364 1820.83 26.3273L1900 14.2182V64H1820.83C1741.67 64 1583.33 64 1425 64C1266.67 64 1108.33 64 950 64C791.667 64 633.333 64 475 64C316.667 64 158.333 64 79.1667 64H0V0Z" fill="white"/>
</svg>
