<svg width="51" height="55" viewBox="0 0 51 55" fill="none" xmlns="http://www.w3.org/2000/svg">
<g clip-path="url(#clip0_880_231)">
<path d="M0 31.8491C0.910236 31.08 1.76693 31.0535 2.62362 30.974C11.3512 29.9397 17.4283 25.2724 21.2835 17.582C23.0772 13.9754 23.9874 10.1037 24.7102 6.17888C25.1118 4.05738 25.1118 1.90935 25.7811 0C25.9417 0.636451 26.2094 1.43202 26.263 2.30714C26.5575 7.31919 27.7087 12.1986 29.0472 17.0251C30.3591 21.6659 33.4378 24.7686 38.1228 26.2801C40.4787 27.0492 42.8614 27.7387 45.3244 28.0569C47.0913 28.2956 48.8315 28.7729 51 29.2237C48.8047 29.7011 46.9842 30.0988 45.1638 30.4701C43.2362 30.8414 41.3622 31.4513 39.515 32.1408C35.2583 33.7584 32.0992 36.5694 30.0646 40.6533C28.2709 44.2334 27.0126 48.0256 26.3165 51.9503C26.1559 52.852 25.9685 53.7271 25.7008 55.0265C24.7906 52.0034 23.9874 49.378 23.1575 46.7527C22.7827 45.5328 22.3811 44.3129 21.8992 43.1461C20.6945 40.2025 18.6866 37.9749 15.8756 36.4634C12.9307 34.8722 9.77165 33.8115 6.50551 33.0955C4.44409 32.6446 2.35591 32.2999 0 31.8491ZM7.52283 31.5574C10.0394 32.3264 12.4488 33.175 14.8315 34.1032C19.7307 36.0391 23.0772 39.46 24.737 44.4455C24.9512 45.1085 25.2189 45.7449 25.5669 46.6996C25.915 45.798 26.1291 45.2676 26.3165 44.7107C27.0661 42.6157 27.9496 40.6268 29.0472 38.6909C30.8409 35.4822 33.3843 33.0424 36.7039 31.3983C37.8551 30.8414 39.0598 30.3906 40.2378 29.9132C40.7732 29.7011 41.4157 29.6745 41.7638 29.0911C40.5055 28.8525 39.2472 28.6668 38.0425 28.3221C33.0362 26.9166 29.4756 23.8669 27.5748 19.014C26.9858 17.5024 26.5843 15.9378 26.3165 14.3467C26.1559 13.5246 26.0756 12.676 25.5402 11.6948C24.5496 14.771 23.5323 17.635 21.9528 20.2338C20.2929 22.9653 18.1244 25.2194 15.6346 27.1818C13.1984 29.0911 10.3874 30.258 7.52283 31.5574Z" fill="#262324"/>
<path d="M7.52283 31.5574C10.3874 30.258 13.1984 29.0911 15.6346 27.1818C18.1244 25.1929 20.2929 22.9388 21.9527 20.2339C23.5323 17.635 24.5496 14.771 25.5134 11.7213C26.0488 12.7025 26.1559 13.5511 26.2898 14.3732C26.5842 15.9643 26.959 17.5289 27.548 19.0405C29.4488 23.8934 33.0094 26.9431 38.0157 28.3486C39.2205 28.6934 40.4787 28.8525 41.737 29.1177C41.389 29.7011 40.7465 29.7276 40.211 29.9397C39.0331 30.4171 37.8283 30.8679 36.6772 31.4248C33.3575 33.0424 30.8142 35.5087 29.0205 38.7175C27.9496 40.6533 27.0394 42.6688 26.2898 44.7372C26.1024 45.2941 25.8614 45.8245 25.5402 46.7261C25.1921 45.7715 24.9244 45.1085 24.7102 44.472C23.0504 39.4865 19.7039 36.0656 14.8047 34.1297C12.4488 33.175 10.0394 32.3264 7.52283 31.5574Z" fill="#F8BB71"/>
</g>
<defs>
<clipPath id="clip0_880_231">
<rect width="51" height="55" fill="white"/>
</clipPath>
</defs>
</svg>
