<svg width="27" height="29" viewBox="0 0 27 29" fill="none" xmlns="http://www.w3.org/2000/svg">
<g clip-path="url(#clip0_1068_481)">
<path d="M0 16.7932C0.479943 16.3877 0.931654 16.3737 1.38336 16.3317C5.98517 15.7864 9.18949 13.3255 11.2222 9.27049C12.168 7.36885 12.6479 5.32739 13.029 3.25796C13.2408 2.13934 13.2408 1.00675 13.5937 0C13.6784 0.335583 13.8195 0.755063 13.8478 1.21649C14.003 3.85921 14.61 6.43201 15.3158 8.97686C16.0075 11.4238 17.6308 13.0598 20.1011 13.8568C21.3433 14.2623 22.5997 14.6258 23.8983 14.7936C24.83 14.9195 25.7475 15.1712 26.8909 15.4089C25.7334 15.6606 24.7735 15.8703 23.8136 16.0661C22.7973 16.2618 21.8092 16.5834 20.8352 16.947C18.5907 17.7999 16.925 19.2821 15.8522 21.4354C14.9065 23.323 14.243 25.3226 13.876 27.392C13.7913 27.8674 13.6925 28.3288 13.5513 29.014C13.0714 27.42 12.6479 26.0357 12.2103 24.6514C12.0127 24.0082 11.8009 23.365 11.5469 22.7498C10.9116 21.1977 9.85294 20.0231 8.37077 19.2261C6.81801 18.3872 5.15233 17.8279 3.43018 17.4503C2.34325 17.2126 1.2422 17.0309 0 16.7932ZM3.96659 16.6393C5.29349 17.0448 6.56392 17.4923 7.82024 17.9817C10.4035 19.0024 12.168 20.8062 13.0431 23.4349C13.1561 23.7845 13.2972 24.1201 13.4807 24.6234C13.6643 24.148 13.7772 23.8684 13.876 23.5747C14.2712 22.4701 14.7371 21.4214 15.3158 20.4007C16.2616 18.7088 17.6026 17.4224 19.353 16.5554C19.96 16.2618 20.5952 16.0241 21.2163 15.7724C21.4986 15.6606 21.8374 15.6466 22.0209 15.339C21.3575 15.2131 20.694 15.1152 20.0588 14.9335C17.4191 14.1924 15.5417 12.5844 14.5394 10.0256C14.2289 9.22854 14.0172 8.40357 13.876 7.56461C13.7913 7.13115 13.7489 6.6837 13.4666 6.16634C12.9443 7.78833 12.4079 9.29846 11.5751 10.6688C10.6999 12.109 9.55651 13.2975 8.24372 14.3322C6.95917 15.339 5.47699 15.9542 3.96659 16.6393Z" fill="#262324"/>
<path d="M3.9668 16.6393C5.47721 15.9541 6.95938 15.3389 8.24393 14.3321C9.55672 13.2834 10.7001 12.0949 11.5753 10.6687C12.4081 9.29837 12.9446 7.78824 13.4527 6.18024C13.735 6.69759 13.7915 7.14504 13.8621 7.5785C14.0174 8.41746 14.215 9.24244 14.5255 10.0394C15.5278 12.5983 17.4052 14.2063 20.0449 14.9474C20.6801 15.1291 21.3435 15.213 22.007 15.3529C21.8235 15.6605 21.4847 15.6745 21.2024 15.7863C20.5813 16.038 19.9461 16.2757 19.3391 16.5693C17.5887 17.4223 16.2477 18.7227 15.3019 20.4146C14.7373 21.4353 14.2573 22.498 13.8621 23.5886C13.7633 23.8823 13.6362 24.1619 13.4668 24.6373C13.2833 24.134 13.1422 23.7844 13.0292 23.4488C12.1541 20.8201 10.3896 19.0163 7.80634 17.9956C6.56413 17.4922 5.2937 17.0448 3.9668 16.6393Z" fill="#F8BB71"/>
</g>
<defs>
<clipPath id="clip0_1068_481">
<rect width="26.8909" height="29" fill="white"/>
</clipPath>
</defs>
</svg>
