<svg width="80" height="80" viewBox="0 0 80 80" fill="none" xmlns="http://www.w3.org/2000/svg">
<circle cx="40" cy="40" r="38" fill="#E1E7C7" stroke="#262324" stroke-width="2.30505" stroke-miterlimit="10"/>
<path d="M50.1361 75.4666C43.0428 77.8311 35.0769 76.7733 31.9806 75.9289V70.3999V64.4888L31.5583 61.5333L29.025 58.5777L22.6917 52.2444L19.3139 46.7555L17.625 43.3777V40.8444L18.4694 39.5777L20.1583 38.7333L21.8472 39.5777L23.1139 41.6888L25.6472 45.9111L27.7583 46.3333L28.1806 23.5333V19.3111C28.1806 18.4666 29.025 18.0444 29.4472 18.0444H31.5583C31.8961 18.0444 32.825 18.3259 33.2472 18.4666C33.6694 18.7481 34.5983 19.2266 34.9361 18.8888C35.2739 18.5511 35.0769 17.3407 34.9361 16.7777L37.0472 14.6666L38.7361 14.2444L40.0028 14.6666L40.8472 18.0444L42.9583 18.4666L45.0694 18.0444L47.1806 18.8888L47.6028 24.3777L49.7139 25.2222L51.825 23.9555L53.9361 24.7999L54.3583 26.4888V46.7555L53.9361 56.4666L51.825 59.8444L50.1361 62.7999V75.4666Z" fill="#FA8D81"/>
<path d="M51.2291 75.5998C50.4667 75.7211 49.6574 75.8507 48.7409 75.9986C48.7409 75.5748 48.7409 75.2773 48.7409 74.9782C48.7409 71.2122 48.7593 67.4446 48.7308 63.6786C48.7174 61.794 49.3826 60.3614 50.9979 59.2479C52.7338 58.0513 53.347 56.1134 53.3638 54.149C53.4359 45.0931 53.3956 36.0371 53.3889 26.9795C53.3889 26.0471 52.7891 25.4073 52.0032 25.4322C51.2325 25.4555 50.6845 26.0987 50.6829 27.0559C50.6745 30.7122 50.6879 34.3668 50.6795 38.0231C50.6762 39.4059 49.8836 40.1305 48.523 40.0407C47.4289 39.9676 46.8089 39.2663 46.8005 38.0048C46.7804 34.9037 46.7854 31.8008 46.7804 28.6996C46.7771 26.2632 46.7787 23.8251 46.772 21.3887C46.772 21.058 46.7704 20.7206 46.7151 20.3948C46.5777 19.5805 45.8924 19.0321 45.0629 19.042C44.2335 19.0503 43.5566 19.6171 43.4426 20.4314C43.3974 20.7588 43.4075 21.0945 43.4075 21.4269C43.4091 26.7717 43.4158 32.1182 43.4158 37.4631C43.4158 37.8204 43.4008 38.1843 43.3421 38.5367C43.1829 39.4856 42.4708 40.0706 41.5509 40.0424C40.6964 40.0175 39.9909 39.3859 39.8535 38.4935C39.8117 38.2226 39.8318 37.94 39.8318 37.6641C39.8301 31.0164 39.8284 24.3702 39.8267 17.7224C39.8267 17.4449 39.8435 17.164 39.8033 16.8931C39.6776 16.0439 38.9688 15.4406 38.131 15.4406C37.2932 15.4406 36.5845 16.0439 36.4588 16.8915C36.4186 17.1624 36.4353 17.4449 36.4353 17.7208C36.4353 24.45 36.4404 31.1809 36.4387 37.9101C36.4387 39.0369 36.1053 39.607 35.3026 39.9128C34.2403 40.3166 33.1512 39.7266 32.9568 38.6181C32.8948 38.2674 32.9015 37.9018 32.8999 37.5428C32.8915 32.1415 32.8864 26.7418 32.8781 21.3405C32.8781 20.9815 32.8781 20.6159 32.8161 20.2652C32.6636 19.406 31.9531 18.8692 31.0818 18.9157C30.2642 18.9589 29.6241 19.5556 29.5353 20.3832C29.5034 20.6857 29.5135 20.9915 29.5135 21.2956C29.5185 29.4658 29.5235 37.6359 29.5269 45.806C29.5269 46.1102 29.547 46.4193 29.4967 46.7168C29.3577 47.5594 28.6707 47.9932 27.8413 47.7505C27.0671 47.5245 26.236 47.3716 25.5558 46.9744C24.9224 46.6038 24.3058 46.0354 23.9455 45.4055C23.1915 44.0859 22.6184 42.6649 21.9566 41.2938C21.4271 40.197 20.5206 39.8014 19.5974 40.2352C18.6708 40.6723 18.3993 41.6296 18.907 42.7198C19.8688 44.7773 20.8373 46.8314 21.8091 48.8823C21.903 49.0784 22.0203 49.2778 22.1694 49.4324C25.2826 52.6449 28.3858 55.8675 31.5309 59.0501C32.3938 59.9226 33.0205 60.9065 33.0322 62.1048C33.0791 66.7815 33.0523 71.4599 33.0523 76.2712C32.3033 76.0884 31.3606 76.1498 30.7138 75.8889C30.5094 75.8058 30.606 75.1444 30.6043 74.8369C30.5808 71.3751 30.5004 67.9099 30.6244 64.4531C30.6931 62.5153 30.3513 60.9497 28.6489 59.773C27.791 59.1797 27.1191 58.3255 26.2947 57.5228C26.0702 57.7305 25.8272 57.9382 25.6027 58.1626C22.4174 61.3452 19.2354 64.5329 16.0485 67.7138C15.7938 67.9681 15.4821 68.1659 15.2274 68.4202C14.7164 68.9337 14.2036 68.8955 13.6809 68.4617C13.4279 68.2573 13.1949 68.0213 12.9805 67.8218C16.1591 63.4875 20.3162 60.1353 23.9572 56.2962C24.1432 56.1001 24.3259 55.899 24.5538 55.6531C23.3071 54.3119 22.0605 53.0471 20.9093 51.701C20.2709 50.9531 19.708 50.1138 19.2606 49.2396C18.339 47.4414 17.5113 45.595 16.6584 43.7618C15.5709 41.4251 16.3853 38.9754 18.5669 37.9832C20.725 37.001 23.0993 37.94 24.2002 40.2219C24.8252 41.5199 25.4167 42.8328 26.0618 44.1208C26.2092 44.4166 26.5142 44.6344 26.7471 44.8886C26.8258 44.8504 26.9063 44.8105 26.985 44.7723C27.0035 44.4283 27.0386 44.0826 27.037 43.7386C27.0336 36.1219 27.0202 28.5052 27.0252 20.8901C27.0269 18.6348 28.2065 17.0128 30.177 16.5557C31.4857 16.2516 32.7172 16.5208 33.9002 17.3851C33.9957 15.8577 34.4783 14.6362 35.6562 13.772C36.5275 13.1338 37.5077 12.9128 38.5784 12.9925C40.6729 13.1504 42.0653 14.7509 42.3652 17.4731C42.6333 17.3219 42.8562 17.1906 43.0841 17.0676C45.7298 15.6583 48.9235 17.3036 49.1949 20.2702C49.3039 21.4651 49.2134 22.6784 49.2134 23.9631C52.3735 22.4739 53.6688 22.6933 55.4616 24.9486C59.0407 21.402 62.9515 17.5679 66.4619 14.0878C66.5202 14.1052 67.6426 15.0597 67.8694 15.5111C68.2346 16.2374 67.8694 15.9333 66.8942 17.056C65.919 18.1787 66.306 17.7889 65.9709 18.1213C62.7957 21.279 59.6204 24.435 56.4268 27.5745C56.0179 27.975 55.8537 28.3838 55.8554 28.9555C55.8755 37.2088 55.8671 45.462 55.8772 53.7152C55.8789 55.5567 55.4851 57.3183 54.5133 58.864C53.91 59.8246 53.0538 60.6572 52.1976 61.4217C51.6346 61.9236 51.2375 62.4255 51.2358 63.1651C51.2241 67.2817 51.2291 71.4 51.2291 75.5998Z" fill="#262324"/>
<path d="M40.0913 63.0505C40.0662 64.1141 39.1362 64.9933 38.0689 64.965C37.0049 64.9368 36.1068 63.9911 36.152 62.9474C36.1956 61.9253 37.1071 61.0578 38.1309 61.0661C39.1915 61.0727 40.1148 62.0084 40.0913 63.0505Z" fill="#262324"/>
<path d="M43.6903 48.3705C43.6937 49.4558 42.8056 50.3449 41.7349 50.3283C40.6894 50.3117 39.8315 49.4574 39.8147 48.4137C39.7979 47.3218 40.6525 46.4327 41.7316 46.4161C42.8073 46.4011 43.687 47.2803 43.6903 48.3705Z" fill="#262324"/>
<path d="M43.3278 73.3162C44.427 73.3178 45.31 74.192 45.2949 75.2606C45.2782 76.3343 44.3834 77.1769 43.2792 77.1553C42.2169 77.1353 41.3673 76.296 41.3556 75.254C41.3422 74.1854 42.2286 73.3145 43.3278 73.3162Z" fill="#262324"/>
<path d="M47.1752 51.603C47.9845 51.5881 48.6598 52.2512 48.6698 53.0722C48.6815 53.9181 48.0666 54.5413 47.2137 54.548C46.3759 54.5546 45.704 53.9181 45.6973 53.1104C45.6906 52.3127 46.3743 51.6163 47.1752 51.603Z" fill="#262324"/>
<path d="M46.6377 69.3207C46.6093 69.9772 46.053 70.4841 45.371 70.4741C44.6555 70.4625 44.1328 69.8925 44.183 69.1795C44.2283 68.5247 44.8264 67.9978 45.4715 68.0444C46.1233 68.0892 46.6646 68.6826 46.6377 69.3207Z" fill="#262324"/>
<path d="M43.8076 59.6203C43.1692 59.6452 42.5676 59.0968 42.5257 58.4536C42.4839 57.8104 43.0167 57.2287 43.6802 57.1905C44.4158 57.149 44.9721 57.6509 44.9822 58.3672C44.9905 59.0336 44.4644 59.5953 43.8076 59.6203Z" fill="#262324"/>
<path d="M49.0271 48.3272C48.3653 48.3023 47.8475 47.7488 47.8576 47.0774C47.8676 46.3611 48.4256 45.8525 49.1545 45.8957C49.823 45.9356 50.3492 46.5123 50.309 47.1605C50.2687 47.8003 49.6622 48.3521 49.0271 48.3272Z" fill="#262324"/>
<path d="M36.8033 56.1734C36.118 56.1585 35.6187 55.64 35.6271 54.9536C35.6354 54.2871 36.1783 53.742 36.8368 53.7404C37.5121 53.7404 38.117 54.3669 38.0784 55.0267C38.0399 55.6865 37.4819 56.1884 36.8033 56.1734Z" fill="#262324"/>
<path d="M38.5061 73.7701C38.486 74.4531 37.9397 74.965 37.2527 74.9434C36.5641 74.9218 36.0664 74.3883 36.0865 73.6903C36.105 73.0055 36.6562 72.482 37.3315 72.507C38.0034 72.5319 38.5262 73.0936 38.5061 73.7701Z" fill="#262324"/>
<path d="M36.2775 49.9492C35.9692 49.4473 35.6241 49.1349 35.6609 48.8756C35.6978 48.6147 36.1301 48.2059 36.358 48.2258C36.6177 48.2491 37.0248 48.6646 37.0349 48.9222C37.045 49.1881 36.6545 49.4689 36.2775 49.9492Z" fill="#262324"/>
<path d="M40.0817 66.9561C40.4318 67.443 40.8022 67.7322 40.777 67.9798C40.7485 68.2557 40.3581 68.4934 40.1252 68.7476C39.8672 68.5067 39.4466 68.2939 39.3997 68.018C39.3578 67.7771 39.7348 67.4646 40.0817 66.9561Z" fill="#262324"/>
<path d="M32.5627 53.7386C32.0533 54.0693 31.7366 54.4333 31.4836 54.3951C31.2172 54.3535 30.8251 53.9247 30.8301 53.6721C30.8352 53.4328 31.2708 53.0356 31.5406 53.0156C31.7969 52.9974 32.0818 53.3779 32.5627 53.7386Z" fill="#262324"/>
</svg>
