<svg width="80" height="80" viewBox="0 0 80 80" fill="none" xmlns="http://www.w3.org/2000/svg">
<path d="M40 77.9146C60.9868 77.9146 78 60.9014 78 39.9146C78 18.9278 60.9868 1.91461 40 1.91461C19.0132 1.91461 2 18.9278 2 39.9146C2 60.9014 19.0132 77.9146 40 77.9146Z" fill="#E1E7C7" stroke="#262324" stroke-width="2.2931" stroke-miterlimit="10"/>
<path d="M50.9597 43.6534L47.3059 47.3072C46.9405 48.2816 46.1366 50.3764 45.8443 50.9611C45.552 51.5457 46.2097 53.1534 46.5751 53.8841L49.1328 57.538L53.5174 58.9995L58.6328 57.1726L60.8251 53.5188L61.9213 49.1341L61.5559 43.6534L57.5366 36.7111L55.3443 40.3649L50.9597 43.6534Z" fill="#F8BB71"/>
<path d="M49.4993 25.0187L49.1339 27.5764L46.5762 31.5956L42.5569 33.0572L37.0762 31.5956L30.8646 29.4033H27.5762L30.8646 23.9225L34.8839 19.9033L38.1723 17.711L44.7493 18.4418C45.8454 19.1725 48.1108 20.7802 48.4031 21.3648C48.6954 21.9495 49.2557 24.0443 49.4993 25.0187Z" fill="#FA8D81"/>
<path d="M32.6898 48.0381L33.0551 51.6919V52.7881L34.5167 56.0766L35.9782 58.9996L33.7859 59.365L29.4013 58.6343L23.1898 57.1727L19.5359 54.615L17.709 49.4996L18.0744 45.4804L20.9974 41.8266L23.9205 40.7304L27.209 41.0958L30.4974 43.2881L32.6898 48.0381Z" fill="#F8BB71"/>
<path d="M47.2934 56.7387C46.7659 56.1255 46.3539 55.5037 46.0333 54.8221C45.5257 53.7434 45.2922 52.6103 45.3277 51.4174C45.3746 49.8451 45.8685 48.4173 46.6794 47.0832C47.6433 45.498 48.9581 44.2648 50.4779 43.2278C51.5142 42.5207 52.5035 41.7501 53.4238 40.8967C54.2594 40.122 55.05 39.3045 55.6193 38.3026C55.92 37.7732 56.1517 37.2209 56.0848 36.5928C56.0649 36.4055 55.9913 36.223 55.9806 36.0365C55.9596 35.6633 56.1631 35.3707 56.4945 35.2485C56.8226 35.1276 57.1776 35.2233 57.4044 35.51C57.7284 35.9193 58.0513 36.3298 58.3609 36.7498C59.2394 37.9427 60.0337 39.1888 60.7134 40.5066C61.4881 42.0083 62.1188 43.567 62.4841 45.2194C62.6448 45.9469 62.7446 46.6891 62.8451 47.4283C62.9548 48.2355 62.9496 49.0497 62.8776 49.8595C62.6637 52.2638 61.8864 54.4508 60.324 56.3224C58.9464 57.9726 57.2271 59.095 55.1106 59.5261C52.7215 60.0127 50.5481 59.4785 48.6127 57.9937C48.5262 57.9272 48.4634 57.9135 48.3681 57.9612C46.9842 58.6472 45.5349 59.1511 44.0191 59.4426C43.2566 59.5893 42.4801 59.665 41.7083 59.7625C41.5225 59.7862 41.326 59.7976 41.1442 59.7637C40.7522 59.6905 40.5025 59.3565 40.5162 58.9727C40.5302 58.5774 40.7888 58.2689 41.1852 58.2131C41.5436 58.1625 41.906 58.1426 42.2662 58.1049C43.3165 57.9941 44.3457 57.778 45.3472 57.4455C45.9908 57.2319 46.6225 56.9837 47.2934 56.7387ZM48.7346 55.9441C48.77 55.9282 48.7878 55.9223 48.8033 55.9131C49.7527 55.3523 50.6379 54.7043 51.4554 53.9636C53.344 52.2531 54.7774 50.2219 55.7132 47.852C55.9998 47.1261 56.2063 46.3684 56.4531 45.6266C56.5928 45.2073 57.011 44.9889 57.4343 45.106C57.8403 45.2183 58.0842 45.6532 57.9789 46.078C57.6486 47.415 57.1669 48.6951 56.5392 49.9205C55.1767 52.58 53.2782 54.7752 50.8389 56.5023C50.5814 56.6844 50.3183 56.8592 50.0497 57.0428C50.0908 57.0757 50.1129 57.0975 50.1384 57.1137C51.6143 58.0362 53.2058 58.3158 54.9019 57.9339C56.6397 57.5423 58.0361 56.5902 59.1526 55.227C60.5084 53.5716 61.1564 51.635 61.2916 49.5215C61.3315 48.8986 61.2945 48.2684 61.2554 47.6437C61.1808 46.4574 60.9052 45.3092 60.535 44.1828C59.9923 42.5311 59.2231 40.9872 58.304 39.5161C58.0317 39.0802 57.7406 38.6557 57.448 38.2109C57.4247 38.2531 57.4151 38.2671 57.4092 38.2822C56.9293 39.4508 56.1602 40.419 55.2924 41.3153C54.1335 42.5119 52.8364 43.5478 51.4676 44.4902C50.2522 45.3273 49.1542 46.2764 48.313 47.5007C47.542 48.6227 47.0333 49.8459 46.9321 51.212C46.8482 52.3454 47.0832 53.4205 47.6244 54.4239C47.9237 54.978 48.2946 55.4793 48.7346 55.9441Z" fill="#262324" stroke="#262324" stroke-width="0.393104"/>
<path d="M23.869 40.1876C24.084 40.1596 24.2754 40.1197 24.4682 40.1123C25.0135 40.092 25.5621 40.0443 26.1045 40.0805C27.5416 40.1762 28.842 40.6716 29.9935 41.539C31.7228 42.8416 32.7712 44.6038 33.3993 46.642C33.6926 47.594 33.8404 48.5723 33.9261 49.5649C34.0853 51.4099 34.3328 53.2426 34.921 55.0096C35.1969 55.8387 35.5379 56.64 36.1202 57.3105C36.4157 57.6507 36.7626 57.9104 37.2225 57.9991C37.6012 58.0722 37.858 58.4143 37.8528 58.8C37.8476 59.1765 37.5635 59.526 37.19 59.5729C36.2406 59.6926 35.2915 59.8282 34.338 59.9017C33.1355 59.9948 31.93 60.0014 30.7235 59.919C29.2018 59.8152 27.7071 59.5751 26.2448 59.1381C24.5506 58.6319 22.9709 57.8916 21.5593 56.818C19.4695 55.2287 17.9939 53.2101 17.3637 50.6356C16.8143 48.3887 17.0076 46.2116 18.1443 44.1642C19.0298 42.5694 20.3498 41.4522 22.0252 40.7503C22.1933 40.6797 22.2332 40.5959 22.2553 40.4204C22.361 39.5759 22.4593 38.728 22.6248 37.8942C22.9214 36.3987 23.4431 34.9757 24.1236 33.611C24.2359 33.3856 24.3896 33.2127 24.6319 33.1355C24.9648 33.0295 25.2566 33.1163 25.4809 33.3753C25.711 33.6409 25.7487 33.9487 25.5887 34.2664C25.1354 35.1652 24.7638 36.0958 24.4819 37.0622C24.2348 37.9093 24.043 38.7683 23.9422 39.646C23.9222 39.8208 23.8953 39.9944 23.869 40.1876ZM34.8149 58.2533C34.328 57.654 33.9782 57.0035 33.6996 56.3137C32.8946 54.3214 32.5847 52.223 32.3671 50.104C32.2969 49.4216 32.237 48.7345 32.1026 48.0632C31.7693 46.3993 31.1014 44.8883 29.9318 43.6289C29.1818 42.8217 28.2919 42.2321 27.2353 41.9033C26.3516 41.6284 25.4502 41.5941 24.5395 41.7078C24.2891 41.7393 24.0427 41.8021 23.7519 41.8589C23.8336 42.6939 23.886 43.5037 23.998 44.305C24.1361 45.2939 24.3925 46.2582 24.7213 47.2024C25.1465 48.4241 25.7088 49.5808 26.4041 50.6684C27.0979 51.7538 27.9103 52.7472 28.8386 53.6439C29.0577 53.8555 29.1368 54.1219 29.0577 54.4186C28.8874 55.0562 28.1681 55.2339 27.6764 54.7518C26.6494 53.7454 25.7487 52.6349 24.9847 51.4158C23.9049 49.6935 23.115 47.8467 22.6754 45.8614C22.4995 45.0686 22.4042 44.2577 22.286 43.4527C22.2372 43.1213 22.2254 42.7844 22.1955 42.4371C22.1652 42.4504 22.1434 42.4582 22.1235 42.4685C20.8899 43.1095 19.9612 44.0489 19.356 45.3032C18.694 46.676 18.5411 48.1223 18.7812 49.6108C19.038 51.2023 19.7203 52.6083 20.7455 53.8467C21.8301 55.1571 23.1756 56.1283 24.7095 56.8472C26.6268 57.746 28.6606 58.1886 30.7597 58.3113C31.8569 58.3755 32.9611 58.326 34.062 58.319C34.3055 58.3179 34.5482 58.278 34.8149 58.2533Z" fill="#262324" stroke="#262324" stroke-width="0.393104"/>
<path d="M49.8631 28.2626C49.7212 28.5851 49.596 28.9039 49.4441 29.2098C48.3122 31.4892 46.4813 32.8613 44.0024 33.3918C42.8653 33.6352 41.7204 33.6423 40.5763 33.4878C39.1385 33.2939 37.7923 32.8051 36.4856 32.1823C34.9861 31.4674 33.4418 30.8641 31.8182 30.4877C30.9851 30.2945 30.1417 30.1644 29.2828 30.2494C28.6983 30.3074 28.1553 30.4662 27.7419 30.9321C27.4903 31.2158 27.0621 31.2565 26.7466 31.0629C26.4223 30.8634 26.2723 30.4659 26.4208 30.1001C26.7156 29.3738 27.0167 28.6498 27.3392 27.9356C27.8627 26.7771 28.4752 25.6658 29.1668 24.5986C30.0999 23.1581 31.1717 21.8315 32.4381 20.67C33.6543 19.5547 35.0008 18.6319 36.5225 17.9772C37.5736 17.5254 38.663 17.2058 39.7994 17.0666C40.6494 16.9624 41.5014 16.9539 42.3566 17.0518C43.9692 17.2361 45.4572 17.753 46.795 18.6769C48.6295 19.9445 49.8069 21.6582 50.2373 23.8571C50.3999 24.688 50.4154 25.5303 50.2879 26.3704C50.2635 26.5322 50.2994 26.6278 50.4457 26.7269C51.7298 27.5954 52.9028 28.5966 53.8995 29.7858C54.4507 30.4433 54.9557 31.1412 55.4611 31.8357C55.7101 32.1782 55.6321 32.599 55.3174 32.8816C55.0433 33.1276 54.5966 33.1491 54.3014 32.8979C54.1603 32.7778 54.0595 32.6071 53.9534 32.4505C53.0369 31.0958 51.9304 29.9154 50.6692 28.8788C50.4084 28.6649 50.1335 28.4687 49.8631 28.2626ZM28.7242 28.6527C28.7401 28.6664 28.756 28.6804 28.7718 28.6941C29.0094 28.6704 29.2466 28.6335 29.4845 28.6257C30.4169 28.5954 31.3316 28.7288 32.2371 28.9416C34.0525 29.3683 35.7685 30.0665 37.4487 30.859C38.694 31.4464 39.9867 31.8468 41.3665 31.9565C42.5092 32.047 43.6223 31.9322 44.6981 31.5339C45.8341 31.1135 46.7639 30.4094 47.4714 29.4263C47.9184 28.8049 48.2313 28.1144 48.4441 27.3678C48.3661 27.3202 48.2956 27.2732 48.2213 27.233C46.1477 26.1055 43.9385 25.4398 41.5823 25.2513C40.628 25.1749 39.6764 25.1797 38.7266 25.2665C37.7132 25.3592 36.7146 25.5484 35.7345 25.8265C35.3004 25.9496 34.8505 25.7142 34.7345 25.3082C34.6037 24.8505 34.825 24.4316 35.2812 24.2982C36.5742 23.9203 37.8942 23.7093 39.2393 23.6281C40.6395 23.5438 42.0289 23.6255 43.4073 23.8656C45.2274 24.1826 46.9605 24.7685 48.6018 25.6204C48.6469 25.6437 48.6964 25.6588 48.8109 25.7046C48.7544 25.128 48.7492 24.5952 48.644 24.0825C48.2413 22.1178 47.1001 20.6767 45.3859 19.6825C43.93 18.838 42.3466 18.5107 40.6679 18.6034C39.6121 18.6618 38.5958 18.886 37.612 19.2651C35.3577 20.1332 33.5552 21.611 32.0125 23.4348C31.2932 24.2853 30.6463 25.1893 30.0915 26.1546C29.6186 26.9773 29.1786 27.8193 28.7242 28.6527Z" fill="#262324" stroke="#262324" stroke-width="0.393104"/>
</svg>
