<svg width="80" height="80" viewBox="0 0 80 80" fill="none" xmlns="http://www.w3.org/2000/svg">
<path d="M40 78C60.9868 78 78 60.9868 78 40C78 19.0132 60.9868 2 40 2C19.0132 2 2 19.0132 2 40C2 60.9868 19.0132 78 40 78Z" fill="#E1E7C7" stroke="#262324" stroke-width="2.2931" stroke-miterlimit="10"/>
<g clip-path="url(#clip0_1068_539)">
<path d="M34.1493 21.7304L40.3609 14.7881L42.9186 16.2496L46.207 20.2689L49.1301 24.2881L54.9763 33.4227L58.2647 41.4612L58.6301 48.0381L55.3416 55.7112L49.4955 60.0958L42.5532 62.2881L42.9186 61.1919L45.1109 57.1727L46.207 53.5189L46.5724 49.1342L45.1109 45.4804L42.5532 42.1919L40.7263 44.0189L38.534 46.2112L36.3416 50.5958L35.2455 53.5189L31.2263 52.0573L26.4763 51.3265L23.1878 50.9612L22.457 47.3073L23.1878 39.6342L26.1109 33.4227L34.1493 21.7304Z" fill="#F8BB71"/>
<path d="M60.29 42.1283C59.9025 39.7932 59.0306 37.7027 58.2193 35.9544C57.2142 33.8027 55.9669 31.6144 54.1746 28.8637C52.4671 26.2474 50.6264 23.6923 48.701 21.2717C47.5869 19.8658 46.4244 18.4721 45.3103 17.1028C44.729 16.406 44.1598 15.6969 43.5786 15.0001C42.9004 14.1687 41.9074 13.692 40.8418 13.692C39.7882 13.692 38.8315 14.1565 38.1534 14.9878C37.778 15.4524 37.3784 15.917 36.9909 16.3571C36.4096 17.0295 35.8162 17.7263 35.2592 18.4354L35.0775 18.6799C33.1884 21.1006 31.2508 23.5945 29.4344 26.113C26.2616 30.5141 24.1908 34.1206 22.7013 37.8005C21.8658 39.8788 20.9575 42.6539 21.3329 45.7592C21.4903 47.0184 21.7083 48.5221 22.1685 50.0259C22.1685 50.0259 22.1927 50.1114 22.2048 50.1481C22.1564 50.1481 22.1079 50.1481 22.0595 50.1481C22.0474 50.1481 22.0232 50.1481 22.0111 50.1481C21.9626 50.1481 21.9021 50.1481 21.8536 50.1603C20.8001 50.2581 20.2309 50.9183 20.2673 51.9575C20.2915 52.5932 20.3399 53.0822 20.4126 53.5346C20.9817 56.9577 22.4955 59.8062 24.9174 61.9823C27.5573 64.354 30.6574 65.5521 34.1329 65.5521H34.2177C34.363 65.5521 34.5083 65.5521 34.6537 65.5644C34.8111 65.5644 34.9685 65.5766 35.1259 65.5766C35.356 65.5766 35.5498 65.5644 35.7193 65.5399C37.6569 65.2832 39.2917 64.7697 40.7085 63.9873C40.8175 63.9261 40.975 63.8772 41.1566 63.865C41.5805 63.8161 42.0164 63.7917 42.4281 63.7672L42.634 63.755C43.954 63.6694 45.286 63.4005 46.715 62.9481C50.2874 61.7867 53.3148 59.7695 55.7004 56.9577C57.3474 55.0138 58.5704 52.8622 59.3576 50.5393C59.8783 49.0112 60.2174 47.3852 60.3627 45.7225C60.508 44.4144 60.4717 43.2408 60.29 42.1283ZM57.8196 45.7836C57.6501 47.4096 57.2989 48.9989 56.6813 50.5027C55.5067 53.3389 53.7629 55.7351 51.353 57.6301C49.1854 59.3416 46.7513 60.4419 43.8934 61.0043C44.8138 60.0629 45.4798 59.0971 46.0611 58.0702C46.8119 56.7498 47.2963 55.3317 47.5385 53.828C47.6717 53.0089 47.7807 52.1653 47.7564 51.3462C47.6474 47.8131 46.4728 44.7078 44.0387 42.1283C43.6633 41.7248 43.2758 41.3458 42.8641 40.9791C42.1738 40.3678 41.5926 40.4534 41.0234 41.1991C39.8972 42.6662 38.7589 44.1088 37.6448 45.588C36.1553 47.5441 35.1865 49.7325 34.8111 52.1775C34.7748 52.4587 34.7263 52.5443 34.4599 52.3731C33.031 51.4929 31.493 50.9305 29.834 50.6738C28.5988 50.4904 27.3515 50.4415 26.1042 50.5516C24.9295 50.6494 25.1233 50.7594 24.7479 49.6835C24.0455 47.6419 23.6943 45.5391 23.8518 43.3875C23.9244 42.4461 24.1666 41.5048 24.4209 40.5878C25.0385 38.4484 26.0073 36.4557 27.1093 34.5363C28.1265 32.7758 29.1801 31.0398 30.2941 29.3527C32.1591 26.5286 34.1935 23.8146 36.3369 21.1861C37.5237 19.7313 38.7468 18.2887 39.9456 16.8339C40.0183 16.7361 40.1031 16.6505 40.1878 16.5649C40.648 16.1126 41.1082 16.0881 41.5562 16.5772C42.2223 17.3107 42.8762 18.0564 43.4938 18.8389C45.2013 20.9783 46.9209 23.1055 48.5678 25.2816C50.2389 27.4822 51.7769 29.7684 53.23 32.1156C54.2836 33.8272 55.2403 35.5999 56.0879 37.4215C56.7903 38.913 57.3595 40.4534 57.6986 42.0793C57.9529 43.3141 57.9407 44.5489 57.8196 45.7836Z" fill="#121621"/>
<path d="M45.6986 51.2731C45.6259 50.7352 45.5775 49.9283 45.4201 49.1337C45.0689 47.3243 44.2817 45.7106 43.1555 44.268C43.0829 44.1702 42.9497 44.1213 42.8407 44.0479C42.8044 44.1579 42.7317 44.268 42.7196 44.378C42.6348 45.1482 42.5501 45.9062 42.4653 46.6764C42.3321 47.9723 42.211 49.2559 42.0657 50.5518C41.884 52.19 41.6781 53.816 41.4965 55.4542C41.3027 57.1658 41.1332 58.8896 40.9516 60.6011C40.9395 60.6623 40.9395 60.7234 40.9395 60.7723C41.0121 60.7478 41.0969 60.7478 41.1453 60.6989C41.6903 60.1977 42.2715 59.7087 42.768 59.1585C44.7177 57.0191 45.5896 54.4273 45.6986 51.2731Z" fill="#FA8D81"/>
<path d="M34.1941 63.0579C34.509 63.0334 34.8359 63.0212 35.1508 62.9723C35.732 62.899 36.3012 62.8134 36.8825 62.7156C36.9672 62.7034 37.052 62.63 37.1247 62.5811C37.052 62.5077 36.9915 62.4344 36.9188 62.3855C36.5434 62.141 36.168 61.9087 35.7926 61.6764C31.9054 59.2436 28.0181 56.8229 24.1309 54.3901C23.8524 54.2189 23.586 54.0478 23.3074 53.8766C23.259 53.8522 23.1984 53.8399 23.1379 53.8155C23.1258 53.8766 23.1016 53.9255 23.1016 53.9866C23.1016 54.0722 23.1379 54.1456 23.15 54.2189C23.6586 56.285 24.6274 58.0822 26.1169 59.5859C28.333 61.8476 31.0456 62.9845 34.1941 63.0579Z" fill="#FA8D81"/>
<path d="M36.751 53.938C36.7268 55.5639 37.1264 57.0799 37.8167 58.5225C38.0589 59.0359 38.3737 59.5127 38.6644 60.0017C38.7007 60.0629 38.7734 60.1118 38.8218 60.1729C38.8581 60.0873 38.9066 60.014 38.9187 59.9284C38.9913 59.3905 39.0761 58.8403 39.1367 58.3024C39.3062 56.6642 39.4636 55.0382 39.6453 53.4C39.8632 51.4073 40.1054 49.4146 40.3355 47.4218C40.3961 46.8961 40.4445 46.3704 40.4808 45.8447C40.4929 45.7347 40.4324 45.6247 40.4082 45.5146C40.3234 45.588 40.2144 45.6491 40.1418 45.7347C39.6089 46.456 39.064 47.1529 38.5796 47.8986C37.405 49.7324 36.7632 51.7374 36.751 53.938Z" fill="#FA8D81"/>
<path d="M27.2208 52.63C26.809 52.63 26.4457 52.6177 26.0824 52.63C25.8524 52.6422 25.6223 52.6666 25.4043 52.6911C25.5981 52.8378 25.7797 52.9845 25.9856 53.119C28.0321 54.4026 30.0908 55.6863 32.1373 56.97C33.2878 57.6913 34.4382 58.3881 35.5886 59.1094C35.6613 59.1461 35.7339 59.1828 35.7945 59.2194C35.7824 59.1461 35.7945 59.0727 35.7582 58.9994C35.2495 57.838 34.8984 56.6399 34.7652 55.3807C34.753 55.2217 34.6319 55.0384 34.4987 54.9406C33.8811 54.5249 33.2756 54.0726 32.6096 53.7425C30.9021 52.8989 29.0857 52.5077 27.2208 52.63Z" fill="#FA8D81"/>
</g>
<defs>
<clipPath id="clip0_1068_539">
<rect width="40.1923" height="51.8846" fill="white" transform="translate(20.2695 13.6923)"/>
</clipPath>
</defs>
</svg>
