<svg width="80" height="80" viewBox="0 0 80 80" fill="none" xmlns="http://www.w3.org/2000/svg">
<path d="M40 78C60.9868 78 78 60.9868 78 40C78 19.0132 60.9868 2 40 2C19.0132 2 2 19.0132 2 40C2 60.9868 19.0132 78 40 78Z" fill="#E1E7C7" stroke="#262324" stroke-width="2.2931" stroke-miterlimit="10"/>
<path d="M20.5781 56.0443V26.911V25.6443L25.6448 28.5999L30.7115 25.6443L36.2003 28.5999L41.6892 25.6443L47.1781 28.1777L52.2448 25.6443V26.911V62.3777H20.5781V56.0443Z" fill="#F8BB71"/>
<path d="M52.668 61.9555V26.911V25.6443L56.0457 26.911L59.4235 25.6443V62.7999L56.0457 61.111L52.668 61.9555Z" fill="#FA8D81"/>
<path d="M59.6464 44.8775C59.1535 44.8775 58.7627 45.2684 58.7627 45.7613V61.2604L56.9782 60.3766V43.9768C56.9952 43.484 56.6213 43.0761 56.1285 43.0421C55.6357 43.0081 55.2278 43.399 55.1938 43.8918C55.1938 43.9258 55.1938 43.9428 55.1938 43.9768V60.3766L53.4094 61.2604V54.6834C53.3924 54.1906 52.9675 53.8167 52.4747 53.8337C52.0158 53.8507 51.6419 54.2246 51.6249 54.6834V61.8212H21.3065V36.5502C21.3065 36.0573 20.8986 35.6664 20.4228 35.6664C19.9469 35.6664 19.5391 36.0743 19.5391 36.5502V62.7219C19.5391 63.2147 19.9469 63.6056 20.4228 63.6056H52.5256C52.6276 63.6056 52.7466 63.5886 52.8485 63.5376L52.8995 63.5206C52.9165 63.5206 52.9165 63.5037 52.9335 63.5037L56.0945 61.9232L59.2725 63.5037C59.7144 63.7246 60.2582 63.5376 60.4791 63.0958C60.5471 62.9768 60.5811 62.8409 60.5641 62.7049V45.7613C60.5471 45.2684 60.1392 44.8775 59.6464 44.8775Z" fill="#262324" stroke="#262324" stroke-width="0.192798" stroke-miterlimit="10"/>
<path d="M31.2826 51.0636C31.0107 51.4715 31.1127 52.0323 31.5205 52.3042C35.0214 54.6495 39.678 54.1907 42.669 51.2336L42.737 52.1683C42.771 52.6441 43.1619 53.001 43.6207 53.001H43.6887C44.1815 52.967 44.5554 52.5422 44.5214 52.0493L44.3175 48.8373C44.2835 48.3445 43.8586 47.9876 43.3828 48.0046H43.3658L40.1538 48.2085C39.661 48.2425 39.2871 48.6674 39.3211 49.1602C39.3551 49.6531 39.7799 50.027 40.2728 49.993L41.4794 49.908C39.1001 52.3212 35.3443 52.6951 32.5232 50.8257C32.0984 50.5538 31.5545 50.6558 31.2826 51.0636Z" fill="#262324" stroke="#262324" stroke-width="0.192798" stroke-miterlimit="10"/>
<path d="M34.0903 12.9777C29.3614 15.0043 28.4607 22.8295 28.6014 26.4888L31.1347 25.6443L36.2014 28.5999L41.6903 25.6443L48.0236 28.1776L52.6681 25.2221C52.6681 22.548 51.7392 16.5243 48.0236 13.8221C44.3081 11.1199 41.1273 12.1332 40.0014 12.9777C40.0014 12.1332 38.8192 10.951 34.0903 12.9777Z" fill="#E1E7C7"/>
<path d="M39.8805 34.579C39.6086 34.1711 39.0477 34.0522 38.6399 34.3241L35.9717 36.1085C35.5638 36.3804 35.4449 36.9413 35.7168 37.3491L37.5012 40.0173C37.7901 40.4082 38.351 40.5101 38.7418 40.2212C39.1157 39.9493 39.2177 39.4225 38.9798 39.0316L38.3 37.9949C41.427 38.8277 43.5853 41.6488 43.6023 44.8778C43.6023 44.9797 43.6023 45.0987 43.5853 45.2007V45.3196C43.5513 45.8125 43.9252 46.2373 44.418 46.2713H44.469C44.9449 46.2713 45.3358 45.8974 45.3527 45.4386V45.3366C45.3697 45.1837 45.3697 45.0307 45.3697 44.8948C45.3697 40.901 42.7016 37.4001 38.8778 36.3295L39.6256 35.8196C40.0334 35.5307 40.1524 34.9869 39.8805 34.579Z" fill="#262324" stroke="#262324" stroke-width="0.192798" stroke-miterlimit="10"/>
<path d="M25.8255 47.0698C25.6045 47.5116 25.7915 48.0385 26.2333 48.2594L29.1224 49.687C29.5643 49.9079 30.0911 49.7209 30.3121 49.2791L31.7396 46.39C31.9435 45.9481 31.7566 45.4043 31.2977 45.2004C30.8729 44.9964 30.363 45.1664 30.1421 45.5912L29.5983 46.7129C28.6976 43.4329 30.2441 39.983 33.3031 38.4875C33.728 38.2496 33.8979 37.7057 33.66 37.2809C33.4391 36.873 32.9292 36.7031 32.5044 36.89C29.4623 38.3855 27.5419 41.4786 27.5419 44.8775C27.5419 45.6252 27.6439 46.356 27.8478 47.0698L27.0321 46.6619C26.5732 46.458 26.0464 46.6279 25.8255 47.0698Z" fill="#262324" stroke="#262324" stroke-width="0.192798" stroke-miterlimit="10"/>
<path d="M59.6432 24.3651C59.5073 24.3651 59.3713 24.3991 59.2354 24.467L56.0744 26.0475L55.8874 25.9456L54.2899 25.1468L52.9134 24.4501C52.6245 24.3141 52.2846 24.3311 52.0127 24.501L51.2989 24.9769L47.2542 27.815L45.8436 26.8633L42.2917 24.501C41.9858 24.2971 41.5949 24.2971 41.306 24.501L39.1987 25.9116V25.8946L37.6352 26.9483C37.6352 26.9483 37.6352 26.9483 37.6352 26.9653L36.4456 27.764L35.6808 27.2542L32.3329 25.0279L31.5851 24.535C31.2792 24.3311 30.8883 24.3311 30.5994 24.535L25.739 27.781L20.8785 24.535C20.4706 24.2631 19.9098 24.3821 19.6379 24.7899C19.5359 24.9429 19.4849 25.1128 19.4849 25.2828V36.8731C19.4679 37.366 19.8418 37.7738 20.3347 37.8078C20.8275 37.8248 21.2354 37.4509 21.2694 36.9581C21.2694 36.9241 21.2694 36.9071 21.2694 36.8731V26.9313L25.2291 29.5654C25.535 29.7694 25.9259 29.7694 26.2148 29.5654L31.0753 26.3195L35.9357 29.5654C36.2416 29.7694 36.6325 29.7694 36.9214 29.5654L41.7819 26.3195L46.6424 29.5654C46.9483 29.7694 47.3391 29.7694 47.628 29.5654L51.5878 26.9313V54.8874C51.6048 55.3803 52.0297 55.7542 52.5225 55.7372C52.9813 55.7202 53.3552 55.3463 53.3722 54.8874V26.6933L55.1567 27.5771V34.154C55.1567 34.6468 55.5475 35.0547 56.0574 35.0547C56.5672 35.0547 56.9581 34.6638 56.9581 34.154V27.5771L58.7425 26.6933V46.4751C58.7255 46.9679 59.0994 47.3758 59.5923 47.4098C60.0851 47.4438 60.493 47.0529 60.527 46.5601C60.527 46.5261 60.527 46.5091 60.527 46.4751V25.2488C60.544 24.756 60.1361 24.3651 59.6432 24.3651Z" fill="#262324" stroke="#262324" stroke-width="0.192798" stroke-miterlimit="10"/>
<path d="M47.2739 28.6988C46.7981 28.6988 46.4072 28.3079 46.4072 27.8321C46.4072 24.4501 45.8294 18.2811 42.0736 14.9671C39.0825 12.316 35.3097 12.4689 32.7265 15.341C29.7695 18.621 28.9707 23.3965 29.2086 26.7614C29.2256 27.2373 28.8517 27.6451 28.3759 27.6791C27.917 27.6961 27.5092 27.3562 27.4752 26.8974C27.2033 23.1755 28.104 17.8732 31.4349 14.1854C34.6639 10.5995 39.5244 10.3956 43.2292 13.6755C47.4949 17.4314 48.1407 24.1612 48.1576 27.8491C48.1407 28.3079 47.7498 28.6988 47.2739 28.6988Z" fill="#262324" stroke="#262324" stroke-width="0.192798" stroke-miterlimit="10"/>
<path d="M52.5396 28.6988C52.0637 28.6988 51.6728 28.3079 51.6728 27.8321C51.6728 24.4501 51.095 18.2811 47.3392 14.9671C44.3481 12.316 40.5753 12.4689 37.9921 15.341C35.0351 18.621 34.2363 23.3965 34.4743 26.7614C34.4913 27.2373 34.1174 27.6451 33.6415 27.6791C33.1827 27.6961 32.7748 27.3562 32.7408 26.8974C32.4689 23.1755 33.3696 17.8732 36.7006 14.1854C39.9295 10.5995 44.79 10.3956 48.4948 13.6755C52.7605 17.4314 53.4063 24.1612 53.4233 27.8491C53.4233 28.3079 53.0324 28.6988 52.5396 28.6988Z" fill="#262324" stroke="#262324" stroke-width="0.192798" stroke-miterlimit="10"/>
</svg>
