<svg width="80" height="80" viewBox="0 0 80 80" fill="none" xmlns="http://www.w3.org/2000/svg">
<path d="M40 78C60.9868 78 78 60.9868 78 40C78 19.0132 60.9868 2 40 2C19.0132 2 2 19.0132 2 40C2 60.9868 19.0132 78 40 78Z" fill="#E1E7C7" stroke="#262324" stroke-width="2.2931" stroke-miterlimit="10"/>
<path d="M41.1722 58.9003C41.1722 58.6137 41.1606 58.4236 41.1741 58.2364C41.2958 56.503 41.4252 54.7707 41.5459 53.0383C41.7815 49.6437 41.1645 46.3856 40.0599 43.1909C39.5201 41.631 38.9813 40.0537 38.6463 38.4412C38.039 35.5214 38.6656 32.7907 40.5108 30.4617C42.3811 28.1015 44.9727 27.3274 47.8781 27.5594C50.5402 27.772 52.6586 29.0803 54.3792 31.0817C56.3287 33.3493 57.582 35.9572 57.8254 38.9686C58.1179 42.5855 57.2344 45.9176 55.199 48.9281C53.5141 51.4199 51.3474 53.4058 48.8861 55.0807C46.6518 56.6005 44.2784 57.8503 41.7216 58.7297C41.5749 58.7775 41.4242 58.8213 41.1722 58.9003ZM47.9775 45.5491C48.0191 45.3259 48.048 45.1524 48.0837 44.9817C48.6554 42.2784 48.7394 39.5711 48.1156 36.8648C47.5334 34.3379 46.422 32.0771 44.7554 30.0932C44.514 29.8056 44.2939 29.7325 43.9801 29.9333C43.534 30.2199 43.0329 30.4441 42.6437 30.7951C40.675 32.5714 40.0319 34.8799 40.2578 37.4429C40.4036 39.1002 41.0139 40.662 41.5855 42.213C43.0618 46.2218 43.6759 50.3378 43.2086 54.603C43.1507 55.1294 43.1342 55.6607 43.0956 56.2379C43.2762 56.1764 43.3998 56.1462 43.5128 56.0936C46.4172 54.7219 49.1044 53.0197 51.3995 50.7365C53.6213 48.5265 55.2685 45.9742 55.8836 42.835C56.1617 41.4166 56.2505 39.9864 56.0168 38.5455C55.6606 36.3461 54.7713 34.3895 53.3953 32.6601C52.0339 30.9491 50.3702 29.7022 48.1542 29.3854C47.6135 29.3084 47.0612 29.3201 46.4104 29.286C50.2611 34.3905 51.021 39.9445 49.676 45.9683C49.0696 45.8172 48.5569 45.6915 47.9775 45.5491Z" fill="#262324" stroke="#262324" stroke-width="0.438462"/>
<path d="M38.6607 46.4449C38.793 47.7668 38.9649 49.0011 39.0296 50.2401C39.1638 52.7836 38.9851 55.3096 38.261 57.7624C37.3852 60.729 35.9562 63.3427 33.3626 65.158C30.6803 67.0366 27.744 67.4636 24.6223 66.6369C22.2605 66.011 20.8634 64.3927 20.3391 62.0305C19.613 58.7578 20.4965 56.03 23.1943 53.9769C24.0053 53.3598 24.9448 53.0176 25.9085 52.7524C27.071 52.4327 28.2442 52.1539 29.4125 51.8536C31.8931 51.217 34.0279 49.9204 36.0247 48.3498C36.7479 47.7815 37.4933 47.2423 38.231 46.6935C38.3286 46.6223 38.4415 46.5716 38.6607 46.4449ZM37.2326 49.665C36.9072 49.9067 36.6736 50.0744 36.4457 50.2509C34.4837 51.7688 32.3372 52.9153 29.9378 53.5538C28.6169 53.9057 27.2738 54.1855 25.9732 54.6028C23.6181 55.3583 22.164 56.9435 21.8878 59.4909C21.7749 60.5399 21.9496 61.5518 22.3069 62.4351C22.5512 62.3395 22.7385 62.2157 22.9345 62.1992C24.0691 62.1046 25.1515 61.817 26.1875 61.351C28.6613 60.2406 30.5847 58.4507 32.2436 56.3352C32.3787 56.1626 32.5168 55.992 32.6703 55.799C33.1628 56.1694 33.605 56.5029 34.0743 56.8558C31.2973 60.5038 28.054 63.2959 23.2898 63.9852C23.5814 64.1889 23.7591 64.3468 23.9638 64.4512C25.8061 65.3919 27.7546 65.5021 29.6945 64.9454C33.0508 63.9822 35.0833 61.5967 36.2285 58.3669C37.1245 55.839 37.3726 53.2136 37.2944 50.5472C37.2896 50.2928 37.2606 50.0383 37.2326 49.665Z" fill="#262324" stroke="#262324" stroke-width="0.438462"/>
<path d="M23.6909 39.2767C23.6909 38.5465 23.6871 37.8172 23.6919 37.0871C23.7044 34.8828 25.4067 33.1339 27.5551 33.1144C29.7257 33.0949 31.4695 34.7814 31.512 36.9837C31.541 38.5094 31.5362 40.0361 31.5091 41.5618C31.4792 43.2455 30.3746 44.698 28.791 45.206C27.2355 45.7051 25.4849 45.1777 24.5184 43.8509C23.9912 43.1275 23.6388 42.3213 23.7122 41.3668C23.7653 40.6747 23.7228 39.9747 23.7228 39.2776C23.7122 39.2767 23.7015 39.2767 23.6909 39.2767ZM29.7614 39.262C29.7634 39.262 29.7643 39.262 29.7663 39.262C29.7663 38.5474 29.7759 37.8328 29.7643 37.1192C29.7431 35.846 28.8229 34.8974 27.6179 34.8926C26.408 34.8877 25.4695 35.8226 25.4521 37.0968C25.4328 38.526 25.4454 39.9552 25.4502 41.3844C25.4521 41.9371 25.5931 42.4714 25.96 42.873C26.5867 43.5594 27.3997 43.7943 28.2832 43.5106C29.2004 43.2152 29.6881 42.5036 29.7518 41.5501C29.803 40.7907 29.7614 40.0254 29.7614 39.262Z" fill="#262324" stroke="#262324" stroke-width="0.438462"/>
<path d="M53.2795 18.2238C53.1743 20.7029 52.4762 22.602 50.8685 24.0966C50.1907 24.7263 49.397 25.1524 48.4681 25.244C46.901 25.399 45.6168 24.5314 44.9274 23.0914C43.6065 20.3315 44.7902 16.5177 46.8006 14.8243C47.9573 13.8504 49.2415 13.3688 50.7324 13.9323C51.8881 14.3691 52.5689 15.2874 52.9242 16.4319C53.1328 17.1056 53.2032 17.8231 53.2795 18.2238ZM51.5251 18.2618C51.4498 17.9235 51.3831 17.3688 51.2007 16.858C50.7053 15.4707 49.5235 15.0963 48.3088 15.9055C47.4861 16.4544 46.9763 17.2509 46.5949 18.1448C45.9673 19.615 45.8591 21.088 46.6132 22.5504C47.0342 23.3673 47.8839 23.6929 48.7365 23.3566C49.031 23.2406 49.3236 23.0768 49.563 22.8711C50.9042 21.7227 51.4189 20.1931 51.5251 18.2618Z" fill="#262324" stroke="#262324" stroke-width="0.438462"/>
<path d="M20.5399 41.3667C21.0989 41.3667 21.6387 41.3667 22.2093 41.3667C22.331 42.0609 22.0713 42.6741 21.7661 43.22C20.2618 45.9156 16.6844 45.8863 15.0999 43.529C14.6644 42.8817 14.4346 42.1622 14.4307 41.3784C14.424 39.8849 14.4143 38.3904 14.4317 36.8969C14.4558 34.8077 16.0297 33.1562 18.124 32.9934C20.0503 32.8442 21.8559 34.2861 22.2026 36.2583C22.2383 36.4591 22.2296 36.6678 22.2441 36.9047C21.6561 36.9047 21.1163 36.9047 20.5466 36.9047C20.5022 36.7204 20.4646 36.5332 20.4134 36.3499C20.1353 35.3585 19.2306 34.7238 18.1858 34.7862C17.1913 34.8447 16.3435 35.6022 16.2354 36.619C16.1639 37.2907 16.2035 37.9741 16.19 38.6526C16.1736 39.4784 16.1098 40.307 16.1475 41.1298C16.1871 41.9985 16.4719 42.755 17.3091 43.221C18.4755 43.8703 20.0368 43.2912 20.4201 41.8932C20.4655 41.7235 20.4983 41.551 20.5399 41.3667Z" fill="#262324" stroke="#262324" stroke-width="0.438462"/>
<path d="M53.0215 24.8151C53.1711 22.8595 53.933 21.2577 55.7386 20.3618C57.3994 19.538 59.0708 20.4047 59.4898 22.2258C59.9398 24.1805 58.7995 26.6479 57.0257 27.5585C55.1342 28.5295 53.23 27.4503 53.0447 25.3006C53.0311 25.1398 53.0292 24.977 53.0215 24.8151ZM54.7711 24.8024C54.7817 24.9331 54.7846 25.0637 54.8049 25.1914C54.9546 26.1195 55.559 26.4295 56.3189 25.8992C56.7158 25.6223 57.0643 25.2275 57.3299 24.8171C57.7528 24.1619 57.9256 23.4152 57.7644 22.6265C57.6369 22.0045 57.2275 21.7189 56.6935 21.8924C56.4686 21.9655 56.2436 22.0815 56.0601 22.2297C55.2442 22.8839 54.8609 23.7691 54.7711 24.8024Z" fill="#262324" stroke="#262324" stroke-width="0.438462"/>
<path d="M34.6288 43.5983C35.4042 43.5983 36.1844 43.5983 37.0012 43.5983C37.0012 44.2154 37.0012 44.7711 37.0012 45.3589C35.6176 45.3589 34.2581 45.3589 32.8464 45.3589C32.829 44.4367 32.7257 43.532 32.9285 42.6419C33.0694 42.0258 33.5097 41.6456 34.0968 41.4506C34.4772 41.3239 34.876 41.2449 35.2478 41.0967C35.6572 40.9329 35.7228 40.3499 35.3849 40.1072C35.157 39.9434 34.8779 40.0029 34.6655 40.2525C34.5873 40.3441 34.4956 40.4894 34.4048 40.4933C33.8969 40.5166 33.3881 40.505 32.8869 40.505C32.7894 39.3712 33.7222 38.3397 34.8731 38.2383C35.9922 38.1399 37.0051 38.8408 37.287 39.9083C37.5912 41.0597 37.0988 42.2042 36.0617 42.6838C35.6996 42.8515 35.3028 42.9422 34.9214 43.066C34.6115 43.1654 34.6115 43.1635 34.6288 43.5983Z" fill="#262324"/>
<path d="M57.3809 30.3211C57.3886 28.461 59.2464 26.5746 61.08 26.5629C62.4375 26.5542 63.3886 27.532 63.3558 28.9036C63.3124 30.7491 61.4816 32.5829 59.6529 32.6112C58.3213 32.6326 57.3751 31.6792 57.3809 30.3211ZM61.5898 28.8471C61.584 28.4835 61.4227 28.3411 61.0365 28.3577C60.2052 28.3947 59.1749 29.4359 59.1353 30.2802C59.1179 30.6429 59.2869 30.8213 59.6471 30.8232C60.4948 30.8271 61.6023 29.7001 61.5898 28.8471Z" fill="#262324" stroke="#262324" stroke-width="0.438462"/>
<path d="M61.6673 38.2891C60.7731 38.3213 60.0364 38.0074 59.5826 37.2226C59.1172 36.4163 59.2321 35.5818 59.7139 34.8243C60.5009 33.5882 61.6393 32.9311 63.105 32.9574C64.9174 32.9896 65.8858 34.7171 64.983 36.3042C64.253 37.5833 63.1253 38.2306 61.6673 38.2891ZM61.7146 36.5285C62.4194 36.4563 63.0451 36.1395 63.4342 35.4532C63.6892 35.0037 63.5298 34.721 63.0142 34.7298C62.2418 34.7434 61.6248 35.0944 61.2125 35.7573C60.916 36.234 61.0966 36.5265 61.7146 36.5285Z" fill="#262324" stroke="#262324" stroke-width="0.438462"/>
<path d="M62.359 44.0662C61.3722 44.1042 60.3951 43.4803 60.116 42.637C59.9789 42.2217 59.9982 41.8278 60.1682 41.4086C60.6635 40.1861 61.6156 39.646 62.8467 39.5095C63.1933 39.4705 63.5583 39.4393 63.8943 39.5066C65.5213 39.8342 66.1006 41.548 65.0395 42.8407C64.4157 43.6002 63.3912 44.0691 62.359 44.0662ZM63.8219 41.3959C63.3256 40.9855 62.0433 41.3179 61.8405 41.9126C61.7517 42.1739 61.9496 42.2139 62.1205 42.2587C62.7395 42.4225 63.5399 42.014 63.8219 41.3959Z" fill="#262324" stroke="#262324" stroke-width="0.438462"/>
<path d="M47.9757 45.5491C48.555 45.6915 49.0668 45.8182 49.6741 45.9674C51.0191 39.9435 50.2583 34.3895 46.4086 29.285C47.0594 29.3191 47.6126 29.3074 48.1524 29.3844C50.3684 29.7013 52.033 30.9472 53.3935 32.6591C54.7694 34.3885 55.6587 36.3461 56.015 38.5445C56.2487 39.9854 56.1589 41.4156 55.8818 42.8341C55.2677 45.9732 53.6194 48.5255 51.3977 50.7356C49.1025 53.0188 46.4153 54.7209 43.5109 56.0926C43.3979 56.1462 43.2743 56.1755 43.0938 56.2369C43.1324 55.6598 43.1488 55.1284 43.2067 54.602C43.6741 50.3368 43.06 46.2208 41.5836 42.2121C41.012 40.661 40.4018 39.0992 40.256 37.4419C40.03 34.8789 40.674 32.5704 42.6419 30.7941C43.031 30.4431 43.5312 30.2199 43.9782 29.9323C44.292 29.7305 44.5122 29.8046 44.7536 30.0922C46.4201 32.0751 47.5315 34.3369 48.1138 36.8638C48.7375 39.5701 48.6535 42.2774 48.0819 44.9808C48.0462 45.1523 48.0182 45.3249 47.9757 45.5491Z" fill="#F8BB71"/>
<path d="M37.2309 49.6652C37.2589 50.0395 37.2878 50.293 37.2946 50.5484C37.3718 53.2147 37.1247 55.8401 36.2286 58.368C35.0834 61.5979 33.0509 63.9844 29.6946 64.9466C27.7548 65.5033 25.8063 65.3921 23.964 64.4523C23.7593 64.348 23.5816 64.1901 23.29 63.9864C28.0551 63.2971 31.2975 60.504 34.0744 56.857C33.6052 56.5031 33.162 56.1706 32.6705 55.8002C32.517 55.9932 32.3789 56.1638 32.2437 56.3364C30.5849 58.4519 28.6615 60.2418 26.1877 61.3522C25.1507 61.8182 24.0692 62.1048 22.9347 62.2003C22.7387 62.2169 22.5504 62.3417 22.3071 62.4363C21.9498 61.552 21.7741 60.5411 21.888 59.4921C22.1632 56.9447 23.6173 55.3595 25.9733 54.604C27.2739 54.1867 28.6161 53.9069 29.9379 53.555C32.3364 52.9164 34.4838 51.77 36.4459 50.252C36.6718 50.0736 36.9055 49.906 37.2309 49.6652Z" fill="#FA8D81"/>
<path d="M29.7641 39.2619C29.7641 40.0243 29.8046 40.7906 29.7534 41.55C29.6887 42.5035 29.2021 43.2142 28.2848 43.5105C27.4013 43.7952 26.5883 43.5602 25.9617 42.8729C25.5947 42.4713 25.4538 41.937 25.4518 41.3843C25.447 39.9551 25.4345 38.5259 25.4538 37.0967C25.4712 35.8225 26.4097 34.8876 27.6195 34.8925C28.8246 34.8973 29.7448 35.8459 29.766 37.1191C29.7776 37.8328 29.7679 38.5473 29.7679 39.2619C29.7679 39.2619 29.766 39.2619 29.7641 39.2619Z" fill="#E1E7C7"/>
<path d="M51.5217 18.2618C51.4145 20.1931 50.9009 21.7227 49.5597 22.8702C49.3193 23.0759 49.0267 23.2387 48.7332 23.3557C47.8806 23.693 47.0309 23.3664 46.6099 22.5494C45.8558 21.0871 45.9639 19.614 46.5916 18.1439C46.9729 17.2509 47.4818 16.4534 48.3054 15.9045C49.5191 15.0954 50.702 15.4707 51.1973 16.857C51.3798 17.3688 51.4464 17.9226 51.5217 18.2618Z" fill="#E1E7C7"/>
<path d="M54.7734 24.8022C54.8632 23.7698 55.2466 22.8836 56.0634 22.2285C56.2479 22.0803 56.4728 21.9643 56.6968 21.8912C57.2308 21.7176 57.6402 22.0033 57.7677 22.6253C57.9289 23.4149 57.7561 24.1617 57.3332 24.8159C57.0676 25.2263 56.7191 25.6211 56.3222 25.898C55.5613 26.4283 54.9579 26.1183 54.8082 25.1902C54.787 25.0635 54.785 24.9328 54.7734 24.8022Z" fill="#E1E7C7"/>
<path d="M61.5914 28.8473C61.604 29.7003 60.4965 30.8273 59.6477 30.8234C59.2876 30.8224 59.1186 30.643 59.136 30.2803C59.1756 29.4361 60.2058 28.3949 61.0372 28.3579C61.4244 28.3413 61.5856 28.4836 61.5914 28.8473Z" fill="#E1E7C7"/>
<path d="M61.7137 36.5284C61.0958 36.5264 60.9152 36.234 61.2116 35.7572C61.6239 35.0943 62.2409 34.7424 63.0134 34.7297C63.528 34.7209 63.6883 35.0036 63.4334 35.4531C63.0443 36.1384 62.4186 36.4562 61.7137 36.5284Z" fill="#E1E7C7"/>
<path d="M63.8201 41.396C63.5381 42.0141 62.7377 42.4225 62.1187 42.2588C61.9478 42.2139 61.7489 42.1739 61.8387 41.9127C62.0415 41.318 63.3228 40.9855 63.8201 41.396Z" fill="#E1E7C7"/>
</svg>
