<svg width="80" height="80" viewBox="0 0 80 80" fill="none" xmlns="http://www.w3.org/2000/svg">
<path d="M40 78C60.9868 78 78 60.9868 78 40C78 19.0132 60.9868 2 40 2C19.0132 2 2 19.0132 2 40C2 60.9868 19.0132 78 40 78Z" fill="#E1E7C7" stroke="#262324" stroke-width="2.2931" stroke-miterlimit="10"/>
<path d="M21.422 47.1777L7.06641 56.4666C11.7109 65.3333 15.5109 67.4444 19.3109 70.8222L21.422 69.5555L25.6442 68.711L35.7775 67.8666L44.222 67.4444L47.5997 65.7555L63.6442 55.1999L67.4442 52.6666C67.7257 52.1036 68.2886 50.8933 68.2886 50.5555C68.2886 50.1333 68.2886 48.8666 67.8664 48.0221C67.4442 47.1777 67.4442 47.5999 66.5997 47.1777C65.7553 46.7555 65.7553 46.7555 64.9109 46.7555C64.0664 46.7555 64.0664 47.1777 63.222 47.1777C62.5464 47.1777 61.5331 47.7407 61.1109 48.0221L58.9997 48.8666V47.1777V45.911C58.7183 45.4888 57.9864 44.5599 57.3109 44.2221C56.4664 43.7999 56.4664 43.7999 56.0442 43.7999C55.622 43.7999 53.9331 44.2221 53.5109 44.2221C53.0886 44.2221 52.6664 45.0666 52.2442 45.4888L50.9775 46.7555H50.1331L49.2886 45.911C49.0071 45.7703 48.2753 45.4888 47.5997 45.4888C46.9242 45.4888 46.4738 45.7703 46.3331 45.911L43.7997 48.0221L42.5331 50.1333H41.6886L36.622 48.4444L29.022 47.1777L24.3775 46.7555L21.422 47.1777Z" fill="#FA8D81"/>
<path fill-rule="evenodd" clip-rule="evenodd" d="M57.6062 48.7698L57.1474 49.5175L48.5991 55.0748L45.5231 56.3664L53.3406 45.7277C54.2923 44.5041 56.0597 44.3002 57.2833 45.2519C58.337 46.0846 58.5239 47.6141 57.6912 48.6678C57.6572 48.7188 57.6232 48.7358 57.6062 48.7698ZM43.9256 50.8941L44.3844 48.7188C44.7583 47.2062 46.2708 46.2885 47.7833 46.6624C48.4291 46.8154 48.99 47.2402 49.3129 47.835L44.3504 54.5819C44.3844 54.446 44.4184 54.327 44.4524 54.191C44.6903 53.0524 44.5034 51.8798 43.9256 50.8941ZM68.4828 47.6651C67.1062 45.5238 64.2511 44.912 62.1098 46.3055L60.1724 47.5631C60.3084 46.0846 59.6796 44.6231 58.5239 43.7054C56.4506 42.0569 53.4256 42.4308 51.7941 44.5041C51.7941 44.5211 51.7771 44.5211 51.7771 44.5381L50.5875 46.1526C49.9926 45.4558 49.1939 44.963 48.2932 44.742C45.727 44.1132 43.1268 45.6937 42.498 48.2599C42.498 48.2769 42.498 48.2769 42.498 48.2939L42.3111 49.2116C41.8862 48.9567 41.4104 48.7698 40.9345 48.6678L27.5257 45.8297C24.6706 45.2179 21.6796 45.7617 19.2323 47.3592L5.41571 56.1284C4.97385 56.4513 4.87188 57.0631 5.17779 57.522C5.48369 57.9469 6.04452 58.0658 6.48638 57.8109L20.303 49.0417C22.3084 47.7331 24.7556 47.2742 27.1009 47.7841L40.4417 50.6222C40.9515 50.7241 41.4273 50.9791 41.7842 51.3699C41.9032 51.4889 42.0222 51.6418 42.1241 51.7948C42.9229 53.0354 42.566 54.6839 41.3254 55.4826C40.7306 55.8565 40.0168 55.9925 39.32 55.8565L25.1295 52.8315C24.5857 52.7125 24.0588 53.0694 23.9569 53.5962C23.9229 53.7322 23.9229 53.8851 23.9739 54.0381C24.0588 54.412 24.3647 54.7009 24.7386 54.7859C24.7386 54.7859 29.769 55.9585 29.888 55.9925L40.2717 58.6776L41.3764 58.9665L41.4613 58.9835C41.7163 59.0175 41.9712 59.0515 42.2261 59.0685C44.4694 59.2724 46.7127 58.7116 48.5991 57.471L63.1975 47.988C64.4041 47.2062 66.0356 47.5461 66.8173 48.7528C67.5991 49.9594 67.2592 51.5909 66.0526 52.3726L46.4238 65.1186C44.9452 66.0703 43.2458 66.6311 41.4783 66.7331L25.0445 67.7018C23.1411 67.8207 21.2717 68.3476 19.5892 69.2823C19.3003 69.4352 19.7422 69.1633 19.4703 69.3503L18.1447 70.2C17.6858 70.4889 17.5329 71.1007 17.8388 71.5766C18.1277 72.0354 18.7395 72.1884 19.2154 71.8825L19.2323 71.8655L20.5579 71.0157C22.1554 69.9791 23.2771 69.8091 25.1635 69.7071L41.5973 68.7384C43.7046 68.6195 45.744 67.9397 47.5114 66.8011L67.1232 54.0551C69.2476 52.6445 69.8594 49.7894 68.4828 47.6651Z" fill="#262324"/>
<path d="M50.1334 21.8445L48.8668 18.889L46.7556 17.6223L43.8001 17.2001L40.4223 18.0445L36.6223 19.7334L34.089 22.689L37.0445 25.2223L30.7112 26.0667L26.9112 30.289L28.1778 32.4001H24.8001L23.9556 32.8223L19.3112 36.2001C18.1853 37.0445 16.0179 38.7334 16.3556 38.7334C16.6934 38.7334 18.4668 39.5779 19.3112 40.0001L23.1112 40.4223H26.9112L30.289 40.0001L34.5112 38.7334L37.0445 37.4667V39.5779L38.7334 39.1556L40.4223 38.3112L43.3779 36.2001L44.6445 33.2445L46.3334 29.8667L47.6001 33.2445L48.8668 31.1334L50.1334 29.0223L50.5556 25.2223L50.1334 21.8445Z" fill="#F8BB71"/>
<path d="M12.5537 38.0802C12.5537 38.0802 12.5537 38.0972 12.5367 38.0972C12.5197 38.1312 12.5027 38.1652 12.5027 38.1992C12.5027 38.2162 12.5027 38.2332 12.4857 38.2501C12.4857 38.2841 12.4688 38.3011 12.4688 38.3351C12.4688 38.3691 12.4688 38.4201 12.4688 38.4711C12.4688 38.5221 12.4857 38.573 12.5027 38.607C12.5197 38.692 12.5707 38.794 12.6217 38.862C12.6557 38.9129 12.7067 38.9469 12.7577 38.9809L12.7916 39.0149C12.8426 39.0489 12.8936 39.0659 12.9616 39.0999C27.2031 43.2806 33.78 40.4085 36.3292 38.4881C36.3462 38.4881 36.3462 38.4881 36.3632 38.4881V38.5051L36.2782 40.3575C36.2782 40.3745 36.2782 40.3745 36.2952 40.3745H37.009C40.6459 40.3575 43.382 37.1455 43.501 37.0095C43.7559 36.7036 43.7219 36.2618 43.416 36.0069C43.348 35.9559 43.28 35.9049 43.195 35.8709C42.9231 35.7689 42.6002 35.8539 42.4133 36.0918C42.3963 36.1088 40.3739 38.4711 37.7738 38.8959C37.7568 38.8959 37.7568 38.8959 37.7568 38.879L37.8247 37.3154C37.8417 36.8226 37.4679 36.3977 36.975 36.3807C36.7031 36.3637 36.4312 36.4827 36.2612 36.6866C35.0716 37.9442 30.755 41.2582 19.5555 39.2358C19.5385 39.2358 19.5385 39.2188 19.5385 39.2188C19.5385 39.2188 19.5385 39.2018 19.5555 39.2018C31.5367 38.2841 39.8301 31.6902 44.9115 25.8441C46.373 24.1616 47.7156 22.3772 48.9562 20.5247C48.9562 20.5077 48.9732 20.5077 48.9732 20.5077C48.9732 20.5077 48.9732 20.5077 48.9902 20.5247C49.8569 22.5471 51.1315 27.1357 47.6476 31.7922C47.6476 31.8092 47.6306 31.8092 47.6137 31.7922L46.407 28.4272C46.407 28.4103 46.39 28.4103 46.39 28.4103L45.0645 28.7841C45.0475 28.7841 45.0475 28.8011 45.0475 28.8011C45.0305 30.0757 45.2004 32.1661 42.3963 36.1598C42.2094 36.5167 42.3453 36.9416 42.7022 37.1115C42.7362 37.1285 42.7702 37.1455 42.8042 37.1455C43.1441 37.2645 43.484 37.0775 43.6879 36.7886C44.7755 35.3441 45.6253 33.7296 46.1691 32.0131C46.1691 31.9961 46.1691 31.9961 46.1861 31.9961C46.2031 31.9961 46.2031 31.9961 46.2031 32.0131L47.1208 34.5453C47.1208 34.5623 47.1378 34.5623 47.1548 34.5453L47.9196 33.6786C53.5958 27.3226 50.7747 20.7457 49.8909 19.0632V19.0462C52.78 14.3727 54.0886 10.7188 54.1736 10.4979C54.3095 10.124 54.1056 9.71615 53.7487 9.59719C53.3748 9.46123 52.984 9.66517 52.848 10.0391C52.814 10.107 50.0949 17.7376 43.8408 24.9264C36.8391 32.9818 28.4267 37.2984 18.8077 37.8083C19.8444 37.3664 22.4106 35.1061 22.4616 35.0891C22.7675 34.8342 22.8015 34.3924 22.5636 34.0865C22.4786 33.9845 22.3766 33.8995 22.2407 33.8655C22.0027 33.7806 21.7478 33.8315 21.5609 33.9845C21.5439 34.0015 17.6521 37.2645 13.1315 37.7233H13.1145C13.0806 37.7233 13.0466 37.7403 13.0126 37.7403H12.9786C12.9616 37.7403 12.9276 37.7573 12.9106 37.7743C12.8256 37.8083 12.7407 37.8593 12.6897 37.9272L12.6727 37.9442L12.6557 37.9612C12.6557 37.9612 12.6557 37.9782 12.6387 37.9782C12.5877 38.0122 12.5537 38.0462 12.5537 38.0802Z" fill="#262324"/>
<path d="M22.427 35.0714C23.3108 34.5446 24.6024 33.3549 25.1292 32.8451H25.1462C25.1462 32.8451 30.0406 33.236 31.1963 33.3549C31.1963 33.3549 31.5532 33.083 31.3832 32.9131C30.4825 32.0124 29.4798 30.9927 28.2392 30.5508C28.1372 30.5168 28.0353 30.4828 27.9503 30.4489C27.9163 30.4319 27.8823 30.4149 27.8823 30.3809C27.8823 30.3639 27.8993 30.3299 27.9163 30.3129C29.038 29.1743 30.1256 28.0186 31.2643 26.88H31.2813L37.9092 26.1322C38.368 26.0812 38.6909 25.6734 38.6399 25.2145C38.6059 24.9596 38.453 24.7217 38.2321 24.5857L34.9351 22.6823C34.9181 22.6823 34.9181 22.6653 34.9351 22.6483C39.6086 17.193 45.7777 18.0938 46.0496 18.1447C46.4405 18.1957 46.7974 17.9408 46.8653 17.5499C46.9163 17.21 46.7124 16.8871 46.3895 16.7682C46.3555 16.7512 46.3045 16.7512 46.2705 16.7342C45.9476 16.6832 38.521 15.5615 33.2696 22.4274L32.7938 23.0562C32.7938 23.0562 32.7938 23.0732 32.7938 23.0902L35.9038 24.8916C35.9208 24.8916 35.9208 24.9086 35.9208 24.9256L35.9038 24.9426L30.6015 25.5544H30.5845L25.724 30.5338C25.724 30.5508 25.724 30.5508 25.724 30.5678L27.0836 31.6215C27.1006 31.6215 27.1006 31.6385 27.0836 31.6555L27.0666 31.6725L24.5854 31.4345L24.3474 31.6725C23.8716 32.1313 22.461 33.4569 21.6453 33.9328C21.3054 34.1367 21.2034 34.5785 21.4074 34.9184C21.4584 35.0034 21.5263 35.0714 21.5943 35.1224C21.8662 35.2243 22.1891 35.2413 22.427 35.0714Z" fill="#262324"/>
<path d="M44.8945 17.346C47.6307 17.193 48.9223 18.9775 48.9223 18.9775" stroke="#262324" stroke-width="1.42636" stroke-miterlimit="10"/>
</svg>
