<svg width="80" height="80" viewBox="0 0 80 80" fill="none" xmlns="http://www.w3.org/2000/svg">
<path d="M40 78C60.9868 78 78 60.9868 78 40C78 19.0132 60.9868 2 40 2C19.0132 2 2 19.0132 2 40C2 60.9868 19.0132 78 40 78Z" fill="#E1E7C7" stroke="#262324" stroke-width="2.2931" stroke-miterlimit="10"/>
<path d="M51.9065 39.2377C52.2337 40.3084 52.1147 40.6355 51.0887 41.1113C49.5273 41.84 47.8916 42.1076 46.1815 41.7805C45.6462 41.6764 45.4231 41.7805 45.2447 42.3158C43.0885 48.5316 40.9026 54.7324 38.7316 60.9481C38.5977 61.3199 38.4936 61.7065 38.107 61.9147C37.3933 62.3162 36.7092 61.9742 36.3672 61.0225C35.133 57.4388 33.8988 53.8402 32.6645 50.2565C29.4675 40.9329 26.2704 31.6093 23.0733 22.3006C22.8651 21.6909 22.6867 21.0961 23.3409 20.65C24.025 20.1742 24.7834 20.4418 25.0808 21.3043C25.9284 23.743 26.7611 26.1966 27.6087 28.6353C30.8355 38.0332 34.0623 47.4163 37.2892 56.8142C37.3486 56.9927 37.4379 57.1711 37.5122 57.3496C37.765 57.2901 37.7353 57.067 37.7799 56.9332C39.6089 51.7435 41.4082 46.5687 43.2372 41.379C43.3413 41.0667 43.5049 40.8288 43.1034 40.576C39.9063 38.5388 38.3747 34.628 39.4305 30.3453C40.5457 25.7802 43.3859 22.598 47.4306 20.3823C48.8879 19.5942 50.3898 18.9251 51.966 18.4046C52.6352 18.1816 53.1259 18.3749 53.4679 18.9697C55.8025 23.1184 57.2449 27.4754 56.8583 32.3082C56.7988 33.0666 56.6352 33.825 56.4271 34.5536C56.1743 35.4309 55.9066 35.6094 54.9847 35.535C54.256 35.2376 54.0627 34.7172 54.2858 33.9885C54.4939 33.3045 54.6278 32.6056 54.6724 31.877C54.9549 28.0256 53.795 24.5162 52.1445 21.1258C51.966 20.769 51.7876 20.8284 51.505 20.9325C50.2113 21.4381 48.9622 22.0181 47.7875 22.7467C44.1146 24.9921 41.7651 28.1297 41.3933 32.5164C41.1703 35.0294 42.122 37.0815 44.2335 38.6726C44.9027 36.7693 45.557 34.9402 46.1964 33.1112C46.7317 31.5796 47.267 30.0331 47.8172 28.5014C47.9957 27.9959 48.3526 27.7431 48.9028 27.7877C49.4083 27.8323 49.795 28.0702 49.9288 28.6055C50.018 28.9327 49.8991 29.2301 49.795 29.5424C48.6946 32.6651 47.6239 35.7878 46.5087 38.8957C46.3154 39.4459 46.4194 39.6392 46.9994 39.6689C48.1295 39.7284 49.2299 39.6095 50.2411 39.0741C50.821 38.7024 51.3712 38.7172 51.9065 39.2377Z" fill="#262324"/>
<path d="M51.9084 39.2378C51.3731 38.7174 50.8229 38.7025 50.1686 39.0594C49.1723 39.6096 48.0719 39.7137 46.9269 39.6542C46.3469 39.6244 46.2429 39.4311 46.4362 38.8809C47.5514 35.7731 48.6221 32.6503 49.7225 29.5276C49.8266 29.2153 49.9455 28.9179 49.8563 28.5908C49.7225 28.0703 49.3359 27.8324 48.8303 27.7729C48.2949 27.7283 47.9232 27.9811 47.7447 28.4867C47.1945 30.0183 46.6592 31.5499 46.1239 33.0964C45.4845 34.9255 44.8302 36.7545 44.161 38.6579C42.0495 37.0816 41.0978 35.0147 41.3208 32.5016C41.6926 28.1298 44.0421 24.9773 47.715 22.7319C48.8897 22.0182 50.1537 21.4234 51.4325 20.9178C51.7151 20.8137 51.8935 20.7542 52.072 21.1111C53.7225 24.5015 54.8973 28.0108 54.5999 31.8622C54.5404 32.576 54.4214 33.2898 54.2133 33.9738C53.9902 34.7173 54.1984 35.2229 54.9122 35.5203C54.2579 36.7099 53.5887 37.8698 52.5329 38.7768C52.3694 38.9702 52.2058 39.2081 51.9084 39.2378Z" fill="#F8BB71"/>
</svg>
