<svg width="19" height="19" viewBox="0 0 19 19" fill="none" xmlns="http://www.w3.org/2000/svg">
<path d="M8.53537 0.0316849C7.02172 0.187374 5.48211 0.74094 4.23082 1.57994C3.48408 2.08161 2.63355 2.85718 2.1117 3.50589C0.929609 4.98495 0.214586 6.72637 0.0300639 8.58889C-0.00741713 8.97235 -0.00741713 10.0276 0.0300639 10.411C0.214586 12.2563 0.915193 13.9862 2.07999 15.4537C2.37984 15.8314 3.15541 16.6098 3.51868 16.8981C5.02081 18.086 6.59213 18.7405 8.46329 18.9567C8.9592 19.0144 10.0433 19.0144 10.5392 18.9567C12.4103 18.7405 13.9817 18.086 15.4838 16.8981C15.8471 16.6098 16.6226 15.8314 16.9225 15.4537C18.0873 13.9862 18.7879 12.2563 18.9724 10.411C19.0099 10.0276 19.0099 8.97235 18.9724 8.58889C18.7533 6.38039 17.8105 4.37948 16.2478 2.80816C15.7404 2.30073 15.3886 2.00376 14.8466 1.63472C13.5348 0.738058 12.0096 0.187374 10.4123 0.028801C10.0634 -0.00579643 8.88712 -0.00291443 8.53537 0.0316849ZM10.049 1.26856C12.0759 1.41848 13.9009 2.24883 15.3252 3.67599C17.9748 6.32561 18.5111 10.3707 16.6457 13.6142C16.5736 13.7382 16.5073 13.8391 16.4958 13.8391C16.4842 13.8391 16.4035 13.7267 16.3199 13.5854C15.7144 12.5965 14.8985 11.7546 13.898 11.0886C13.529 10.8406 12.739 10.4341 12.3844 10.3073C12.2575 10.2611 12.1249 10.215 12.0874 10.2006C12.024 10.1775 12.0298 10.1689 12.22 10.0045C12.8976 9.41348 13.3906 8.51681 13.5377 7.59709C13.5953 7.25111 13.5924 6.59663 13.5348 6.25354C13.2493 4.58419 11.9519 3.25794 10.2739 2.92061C9.91929 2.85141 9.08317 2.85141 8.72855 2.92061C7.24949 3.21757 6.05009 4.28434 5.60032 5.70862C5.47346 6.10938 5.42157 6.46689 5.42157 6.93108C5.42157 7.60574 5.53689 8.12759 5.80791 8.69557C6.05586 9.21454 6.39319 9.66431 6.78242 10.0045C6.90639 10.1112 6.96694 10.1833 6.94387 10.1919C6.92369 10.1977 6.80836 10.2381 6.69015 10.2813C6.40472 10.3793 5.71565 10.7109 5.3985 10.9012C4.26542 11.5816 3.24767 12.6051 2.61337 13.7007C2.56724 13.7786 2.52111 13.8391 2.50958 13.8391C2.49516 13.8391 2.42885 13.7382 2.35677 13.6171C0.796983 10.9069 0.895011 7.58555 2.60761 4.98783C4.25389 2.48813 7.12551 1.0552 10.049 1.26856ZM10.0115 4.16325C11.1619 4.38525 12.0442 5.2675 12.2864 6.44382C12.344 6.72349 12.3296 7.26552 12.2575 7.56249C12.1249 8.11029 11.851 8.59177 11.456 8.96947C11.0754 9.32986 10.6458 9.57205 10.1615 9.69314C9.7982 9.78252 9.20427 9.78252 8.84099 9.69314C8.35662 9.57205 7.92703 9.32986 7.54645 8.96947C6.76512 8.22561 6.48257 7.1156 6.81125 6.08343C7.11398 5.12334 7.96739 4.36795 8.96785 4.16613C9.22157 4.11423 9.75207 4.11423 10.0115 4.16325ZM10.2018 11.0742C12.0759 11.276 13.7798 12.2534 14.9071 13.767C15.1292 14.064 15.4261 14.5484 15.5501 14.8136L15.6337 14.9924L15.5299 15.1192C15.4117 15.2634 14.9908 15.6555 14.6938 15.9006C12.8861 17.3768 10.493 18.0197 8.19228 17.6449C6.768 17.4114 5.41292 16.803 4.30867 15.9006C4.0117 15.6555 3.59076 15.2634 3.47255 15.1192L3.36876 14.9924L3.45237 14.8136C3.78105 14.113 4.43841 13.2538 5.05252 12.7262C6.13082 11.795 7.40229 11.227 8.75161 11.0771C9.08029 11.0396 9.87316 11.0367 10.2018 11.0742Z" fill="#112D2A"/>
</svg>
