<svg width="19" height="19" viewBox="0 0 19 19" fill="none" xmlns="http://www.w3.org/2000/svg">
<path d="M8.57973 0.0276966C8.20728 0.0630226 7.59827 0.171522 7.16542 0.280022C3.78569 1.13035 1.12066 3.82013 0.287676 7.21893C0.0989342 7.99609 0.0234375 8.64204 0.0234375 9.49994C0.0234375 10.3578 0.0989342 11.0038 0.287676 11.781C1.14079 15.2655 3.92662 17.9982 7.42211 18.7829C8.58476 19.0428 9.91854 19.0756 11.1164 18.8738C14.7931 18.2505 17.8155 15.4296 18.7089 11.781C18.812 11.357 18.9127 10.7691 18.9479 10.3629C18.9807 9.97936 18.9807 9.02053 18.9479 8.637C18.5931 4.64018 15.7117 1.25652 11.8311 0.280022C11.3781 0.166475 10.7867 0.0630226 10.3665 0.0251732C10.0267 -0.00510406 8.92198 -0.00258255 8.57973 0.0276966ZM9.97642 1.26156C12.0173 1.39277 13.8771 2.23301 15.3115 3.67126C17.2543 5.6192 18.0999 8.38215 17.5764 11.0719C17.3826 12.0686 16.9699 13.1082 16.4616 13.8778L16.3207 14.0897L16.2628 13.4488C16.1722 12.4521 15.8878 9.62358 15.7796 8.637C15.7091 8.0188 15.6664 7.7261 15.6387 7.66555C15.5783 7.54948 15.5053 7.47378 15.387 7.4107C15.2889 7.35771 15.2562 7.35519 14.2244 7.34762L13.1599 7.34005V7.18865C13.1599 6.77232 13.0391 6.09609 12.883 5.64191C12.3319 4.03713 11.1013 3.12876 9.48569 3.12876C8.77099 3.12876 8.10158 3.3281 7.53284 3.70911C7.26105 3.89078 6.81562 4.34496 6.61933 4.64018C6.1739 5.31136 5.9147 6.13646 5.86437 7.03978L5.84927 7.32996L4.79231 7.34257C4.05748 7.35014 3.71523 7.36528 3.66993 7.38547C3.56423 7.43089 3.43086 7.56209 3.38304 7.6605C3.36039 7.71097 3.33019 7.81946 3.32013 7.90526C3.25973 8.33421 2.93761 11.4681 2.77907 13.1586C2.72874 13.6835 2.68595 14.1175 2.68344 14.12C2.66834 14.1351 2.24807 13.4034 2.11218 13.1284C0.936948 10.7515 0.994828 7.89264 2.26821 5.56369C3.42834 3.44669 5.46927 1.91508 7.78953 1.4281C8.56715 1.26661 9.24158 1.21362 9.97642 1.26156ZM9.88079 4.31721C10.1425 4.35253 10.4873 4.4686 10.7163 4.59981C10.9503 4.73354 11.275 5.03885 11.4461 5.28613C11.7707 5.75545 11.9771 6.40645 12.0199 7.08016L12.035 7.34257H9.51086H6.98675L7.00185 7.08268C7.03205 6.55532 7.15033 6.09357 7.35668 5.66462C7.66622 5.03128 8.12675 4.61243 8.72569 4.41561C9.10569 4.2945 9.47814 4.2617 9.88079 4.31721ZM5.84172 9.25267C5.84927 9.97431 5.85178 10.0096 5.90463 10.1106C6.00781 10.3049 6.20662 10.4209 6.43311 10.4209C6.57907 10.4209 6.79046 10.3049 6.88105 10.1736L6.95655 10.0626L6.9641 9.28294L6.97165 8.50326H9.49827H12.0274V9.21734C12.0274 10.045 12.0375 10.103 12.2162 10.267C12.4905 10.5193 12.9183 10.4487 13.0894 10.1207L13.1599 9.98693V9.2451V8.50326H13.8771H14.5943L14.6069 8.55877C14.6497 8.75559 15.2738 15.0738 15.2738 15.3135C15.2738 15.364 15.2159 15.4321 15.007 15.6188C13.716 16.7795 12.1356 17.4961 10.4042 17.703C9.93112 17.7585 9.06542 17.7585 8.59231 17.703C7.59324 17.5844 6.78291 17.3422 5.87443 16.893C5.17735 16.5499 4.60609 16.1689 4.09523 15.7122C3.9845 15.6112 3.85364 15.4952 3.80834 15.4548L3.72278 15.3791L3.82344 14.2815C3.97443 12.6262 4.2739 9.67405 4.3947 8.63447L4.4098 8.50326H5.12198H5.83417L5.84172 9.25267Z" fill="#112D2A"/>
</svg>
