<svg width="18" height="18" viewBox="0 0 18 18" fill="none" xmlns="http://www.w3.org/2000/svg">
<path d="M6.07126 0.0430412C4.86479 0.203474 3.57298 0.763039 2.61867 1.53782C2.19195 1.88608 1.58289 2.53173 1.27255 2.97391C0.942807 3.44347 0.504445 4.31608 0.329876 4.85999C0.0699623 5.66999 0.0195312 6.04564 0.0195312 7.10216C0.0234106 7.92781 0.0311692 8.09216 0.108755 8.45216C0.492807 10.2287 1.41996 11.7117 2.81263 12.7604C5.27988 14.623 8.7441 14.6269 11.223 12.7722L11.5682 12.5178L12.5613 13.4961C13.1083 14.0322 14.3187 15.2413 15.2458 16.1804C16.173 17.1195 16.9799 17.9139 17.0381 17.9452C17.2049 18.0313 17.5385 18.0156 17.6937 17.91C17.9032 17.7691 18.0001 17.5891 18.0001 17.3465C18.0001 17.2291 17.9807 17.0961 17.9575 17.0491C17.9342 17.0021 16.7044 15.7382 15.2225 14.2435L12.5303 11.5239L12.7825 11.1717C13.8842 9.62216 14.3148 7.54434 13.9269 5.63086C13.3682 2.86434 11.1803 0.684778 8.39496 0.113476C8.05358 0.0430412 7.81307 0.0273876 7.15746 0.0156498C6.71134 0.0117359 6.22255 0.0234756 6.07126 0.0430412ZM8.08074 1.42826C9.20574 1.62782 10.2105 2.15999 11.06 3.01304C13.6592 5.61912 13.1394 9.91564 9.98936 11.8565C9.45789 12.1852 8.81005 12.4317 8.13893 12.5687C7.57643 12.6782 6.68419 12.6861 6.12945 12.5843C4.97341 12.373 3.97643 11.8409 3.14238 10.9995C2.3122 10.1622 1.84281 9.29346 1.58289 8.1352C1.50531 7.79086 1.49367 7.61868 1.49367 7.00434C1.49367 6.20216 1.55962 5.79912 1.79238 5.12999C2.59927 2.82521 4.83764 1.26782 7.23505 1.34999C7.51436 1.35782 7.89453 1.39304 8.08074 1.42826Z" fill="#112D2A"/>
</svg>
